<?xml version="1.0" encoding="UTF-8" standalone="no"?>
<svg
   width="210mm"
   height="297mm"
   viewBox="0 0 210 297"
   version="1.1"
   id="svg8"
   inkscape:version="1.2 (1:1.2+202206011327+fc4e4096c5)"
   sodipodi:docname="deckplatte_path.svg"
   xmlns:inkscape="http://www.inkscape.org/namespaces/inkscape"
   xmlns:sodipodi="http://sodipodi.sourceforge.net/DTD/sodipodi-0.dtd"
   xmlns="http://www.w3.org/2000/svg"
   xmlns:svg="http://www.w3.org/2000/svg"
   xmlns:rdf="http://www.w3.org/1999/02/22-rdf-syntax-ns#"
   xmlns:cc="http://creativecommons.org/ns#"
   xmlns:dc="http://purl.org/dc/elements/1.1/">
  <defs
     id="defs2">
    <rect
       x="169.42461"
       y="78.263643"
       width="17.139115"
       height="12.072837"
       id="rect877" />
  </defs>
  <sodipodi:namedview
     id="base"
     pagecolor="#ffffff"
     bordercolor="#666666"
     borderopacity="1.0"
     inkscape:pageopacity="0.0"
     inkscape:pageshadow="2"
     inkscape:zoom="0.66741326"
     inkscape:cx="442.005"
     inkscape:cy="1028.5981"
     inkscape:document-units="mm"
     inkscape:current-layer="layer1"
     inkscape:document-rotation="0"
     showgrid="false"
     inkscape:window-width="1366"
     inkscape:window-height="703"
     inkscape:window-x="0"
     inkscape:window-y="0"
     inkscape:window-maximized="1"
     inkscape:snap-others="false"
     inkscape:snap-nodes="false"
     inkscape:snap-bbox="true"
     inkscape:bbox-paths="true"
     inkscape:bbox-nodes="true"
     inkscape:pagecheckerboard="0"
     inkscape:snap-global="false"
     inkscape:showpageshadow="2"
     inkscape:deskcolor="#d1d1d1" />
  <metadata
     id="metadata5">
    <rdf:RDF>
      <cc:Work
         rdf:about="">
        <dc:format>image/svg+xml</dc:format>
        <dc:type
           rdf:resource="http://purl.org/dc/dcmitype/StillImage" />
        <dc:title />
      </cc:Work>
    </rdf:RDF>
  </metadata>
  <g
     inkscape:label="Layer 1"
     inkscape:groupmode="layer"
     id="layer1">
    <g
       id="g3735">
      <path
         id="path1640-9-1"
         style="opacity:0.501376;fill:#0000ff;stroke-width:0.299947"
         d="m 63.360768,242.25064 a 3.05,3.05 0 0 1 -3.05,3.05 3.05,3.05 0 0 1 -3.05,-3.05 3.05,3.05 0 0 1 3.05,-3.05 3.05,3.05 0 0 1 3.05,3.05 z" />
      <path
         d="M 27.472349,288.57304 H 267.47235 c 0.055,0 0.1,-0.045 0.1,-0.1 v -60 c 0,-0.055 -0.045,-0.1 -0.1,-0.1 H 27.472349 c -0.055,0 -0.1,0.045 -0.1,0.1 v 60 c 0,0.055 0.045,0.1 0.1,0.1"
         stroke="#000000"
         stroke-width="0.2"
         id="path414-4"
         style="opacity:0.501376;fill:#00ff00;stroke-linecap:round;stroke-linejoin:round" />
      <path
         d="m 38.872349,278.47304 c 0,0.268 -0.077,0.531 -0.222,0.757 -0.145,0.226 -0.352,0.405 -0.596,0.516 -0.245,0.112 -0.516,0.151 -0.781,0.113 -0.266,-0.038 -0.515,-0.152 -0.718,-0.328 -0.203,-0.176 -0.351,-0.406 -0.426,-0.664 -0.076,-0.257 -0.076,-0.531 0,-0.788 0.075,-0.258 0.223,-0.488 0.426,-0.664 0.203,-0.176 0.452,-0.29 0.718,-0.328 0.265,-0.038 0.536,10e-4 0.781,0.113 0.244,0.111 0.451,0.29 0.596,0.516 0.145,0.226 0.222,0.489 0.222,0.757 z"
         stroke="#0000ff"
         stroke-width="0.2"
         id="path410-3"
         style="fill:#0000ff;stroke-linecap:round;stroke-linejoin:round" />
      <path
         d="m 257.47235,277.07304 c 0.268,0 0.531,0.077 0.757,0.222 0.226,0.145 0.405,0.352 0.516,0.596 0.112,0.245 0.151,0.516 0.113,0.781 -0.038,0.266 -0.152,0.515 -0.328,0.718 -0.176,0.203 -0.406,0.351 -0.664,0.426 -0.257,0.076 -0.531,0.076 -0.788,0 -0.258,-0.075 -0.488,-0.223 -0.664,-0.426 -0.176,-0.203 -0.29,-0.452 -0.328,-0.718 -0.038,-0.265 0.001,-0.536 0.113,-0.781 0.111,-0.244 0.29,-0.451 0.516,-0.596 0.226,-0.145 0.489,-0.222 0.757,-0.222 z"
         stroke="#0000ff"
         stroke-width="0.2"
         id="path416-0"
         style="fill:#0000ff;stroke-linecap:round;stroke-linejoin:round" />
      <path
         d="m 256.07235,238.47304 c 0,-0.268 0.077,-0.531 0.222,-0.757 0.145,-0.226 0.352,-0.405 0.596,-0.516 0.245,-0.112 0.516,-0.151 0.781,-0.113 0.266,0.038 0.515,0.152 0.718,0.328 0.203,0.176 0.351,0.406 0.426,0.664 0.076,0.257 0.076,0.531 0,0.788 -0.075,0.258 -0.223,0.488 -0.426,0.664 -0.203,0.176 -0.452,0.29 -0.718,0.328 -0.265,0.038 -0.536,-0.001 -0.781,-0.113 -0.244,-0.111 -0.451,-0.29 -0.596,-0.516 -0.145,-0.226 -0.222,-0.489 -0.222,-0.757 z"
         stroke="#0000ff"
         stroke-width="0.2"
         id="path418-7"
         style="fill:#0000ff;stroke-linecap:round;stroke-linejoin:round" />
      <path
         d="m 37.472349,239.87304 c -0.268,0 -0.531,-0.077 -0.757,-0.222 -0.226,-0.145 -0.405,-0.352 -0.516,-0.596 -0.112,-0.245 -0.151,-0.516 -0.113,-0.781 0.038,-0.266 0.152,-0.515 0.328,-0.718 0.176,-0.203 0.406,-0.351 0.664,-0.426 0.257,-0.076 0.531,-0.076 0.788,0 0.258,0.075 0.488,0.223 0.664,0.426 0.176,0.203 0.29,0.452 0.328,0.718 0.038,0.265 -10e-4,0.536 -0.113,0.781 -0.111,0.244 -0.29,0.451 -0.516,0.596 -0.226,0.145 -0.489,0.222 -0.757,0.222 z"
         stroke="#0000ff"
         stroke-width="0.2"
         id="path420-8"
         style="fill:#0000ff;stroke-linecap:round;stroke-linejoin:round" />
      <path
         id="rect893-8"
         style="opacity:0.484735;fill:#ff0000;stroke-width:0.335559"
         d="m 167.47235,233.47304 h 80 v 50 h -80 z" />
      <path
         id="path835-8"
         style="opacity:0.484735;fill:#0000ff;stroke-width:0.110978"
         d="m 192.72922,258.47305 a 5.9400001,5.9400001 0 0 1 -5.94,5.94 5.9400001,5.9400001 0 0 1 -5.94,-5.94 5.9400001,5.9400001 0 0 1 5.94,-5.94 5.9400001,5.9400001 0 0 1 5.94,5.94 z" />
      <path
         d="m 181.14593,240.91444 q 0.0811,-0.0135 0.80375,-0.0135 0.72269,0 0.80374,0.007 0.0946,0.0135 0.18912,0.0405 0.0946,0.027 0.1756,0.0743 0.0878,0.0405 0.1621,0.10132 0.0811,0.054 0.1486,0.12157 0.14859,0.14859 0.18236,0.28367 0.027,0.11483 -0.007,0.22965 -0.0135,0.0473 -0.0338,0.0811 -0.0608,0.12832 -0.19587,0.20262 -0.12833,0.0675 -0.27016,0.0473 -0.0946,-0.0135 -0.17561,-0.0608 -0.0743,-0.0473 -0.13508,-0.12157 -0.027,-0.0338 -0.054,-0.0473 -0.027,-0.0203 -0.0608,-0.0338 h -0.0135 l -0.69568,-0.007 q -0.62138,0 -0.72269,0.007 -0.0203,0.007 -0.0338,0.027 v 0.007 q 0.007,0.007 0.007,0.0135 0.007,0.007 0.007,0.007 0.11482,0.054 0.59437,0.26341 1.01987,0.45253 1.15496,0.51332 0.13508,0.0608 0.20262,0.10131 0.13509,0.0946 0.24315,0.22289 0.10807,0.12157 0.16886,0.27016 0.0743,0.16886 0.0878,0.35122 0.0203,0.17561 -0.0203,0.35121 -0.054,0.20938 -0.17561,0.38499 -0.12158,0.16885 -0.29718,0.28368 -0.17561,0.11482 -0.37824,0.16209 -0.12157,0.027 -0.87804,0.027 -0.081,0 -0.20937,0 -0.4863,0 -0.55384,-0.0135 -0.0811,-0.0135 -0.15535,-0.0338 -0.0743,-0.0203 -0.17561,-0.0608 -0.20262,-0.0811 -0.37148,-0.21614 -0.027,-0.0203 -0.0473,-0.0338 -0.0203,-0.0203 -0.0405,-0.0338 -0.0135,-0.0203 -0.0338,-0.0338 -0.0135,-0.0203 -0.027,-0.0338 -0.0135,-0.0203 -0.027,-0.0405 -0.007,-0.0203 -0.0135,-0.0405 -0.0946,-0.19587 0.007,-0.39174 0.0608,-0.12833 0.18912,-0.19587 0.12833,-0.0743 0.27016,-0.054 0.13509,0.0135 0.26342,0.12157 0.0878,0.0675 0.18236,0.10131 0.0743,0.0338 0.12157,0.0405 0.054,0 0.66866,0 h 0.62814 q 0.007,0 0.007,0 0,0 0.007,-0.007 0.0878,-0.027 0.12833,-0.10806 0.0338,-0.0608 0.0135,-0.12833 -0.0135,-0.0675 -0.0675,-0.11482 l -0.027,-0.0135 q -0.0675,-0.0338 -1.30355,-0.5741 -0.50657,-0.22289 -0.54034,-0.24315 -0.0675,-0.0338 -0.13508,-0.081 -0.0608,-0.0473 -0.12157,-0.10807 -0.0675,-0.0743 -0.12158,-0.1621 -0.054,-0.0878 -0.0946,-0.18236 -0.0338,-0.10131 -0.0473,-0.20938 -0.0473,-0.38499 0.21614,-0.70243 0.2499,-0.29718 0.62813,-0.34446 z"
         style="font-size:6.75415px;line-height:1.25;font-family:OCRABold;-inkscape-font-specification:OCRABold;text-align:center;text-anchor:middle;stroke-width:0.168855"
         id="path3659" />
      <path
         d="m 186.26557,240.90768 q 0.054,0 0.52007,0 0.52007,-0.007 0.64164,0.0203 0.25666,0.0608 0.45253,0.22288 0.25666,0.20263 0.33771,0.29043 0.21613,0.22964 0.28367,0.54033 0.007,0.0608 0.0135,0.10807 0.007,0.0473 0.007,0.16885 0,0.12158 0,0.34446 0,0.054 0,0.13509 0,0.35797 -0.0405,0.43226 l -0.007,0.027 q -0.007,0.007 -0.0135,0.0203 -0.007,0.0135 -0.0135,0.027 -0.007,0.007 -0.0135,0.0203 -0.007,0.007 -0.0135,0.0203 -0.007,0.007 -0.0135,0.0135 -0.007,0.007 -0.0203,0.0203 -0.007,0.007 -0.0203,0.0135 -0.007,0.007 -0.0135,0.0203 -0.027,0.0135 -0.054,0.0338 -0.027,0.0135 -0.0608,0.027 -0.027,0.0135 -0.054,0.027 -0.0135,0 -0.027,0.007 -0.0135,0 -0.027,0.007 -0.0135,0 -0.0405,0 -0.0203,0 -0.054,0 -0.027,0 -0.081,0 -0.0473,0 -0.10806,0 -0.054,0 -0.14859,0 -0.0878,0 -0.18237,0 -0.0945,0 -0.24314,0 -0.14184,0 -0.29043,0 h -0.99962 q 0,0.0338 0,0.0743 0,0.0338 0,0.0473 0.007,0.007 0.0135,0.0203 l 0.007,0.007 q 0.0135,0.027 0.13508,0.13508 l 0.007,0.007 0.0135,0.007 q 0.14184,0.12833 0.18236,0.13508 l 0.0135,0.007 h 0.87129 0.007 0.007 0.007 0.007 0.0135 0.007 0.007 0.007 0.007 0.007 0.007 0.007 0.007 0.007 0.007 0.007 0.0135 0.007 0.007 0.007 0.007 0.007 0.007 0.007 0.007 0.007 0.007 0.007 0.007 0.007 0.007 0.007 0.007 0.007 0.007 0.007 0.0135 q 0.66866,0.007 0.72945,0.0338 h 0.0135 q 0.12833,0.054 0.20262,0.17561 0.0743,0.11482 0.0743,0.2499 0,0.27692 -0.24315,0.40525 -0.0675,0.0338 -0.12833,0.0473 -0.027,0.007 -0.22289,0.007 -0.18911,0.007 -0.45252,0.007 -0.25666,0 -0.52007,-0.007 -0.25666,0 -0.45253,0 -0.18912,0 -0.22289,-0.007 -0.31744,-0.0338 -0.55384,-0.22289 -0.22964,-0.18236 -0.35121,-0.31069 -0.25666,-0.26341 -0.29719,-0.63489 -0.007,-0.0608 -0.007,-0.78348 0,-0.7227 0.007,-0.79024 0.0473,-0.36472 0.29719,-0.62138 0.081,-0.0878 0.33095,-0.29043 0.12157,-0.10131 0.26341,-0.1621 0.14859,-0.0608 0.30394,-0.0811 z m 0.97259,0.91857 h -0.007 l -0.42551,-0.007 q -0.45253,0 -0.47955,0.0135 -0.007,0 -0.0203,0.007 -0.007,0.007 -0.0473,0.0338 -0.0338,0.027 -0.0946,0.0811 -0.10806,0.0945 -0.14859,0.12832 -0.0203,0.027 -0.027,0.0608 l -0.007,0.0203 v 0.24315 l -0.007,0.12833 h 0.81725 0.8105 v -0.12833 q 0,-0.0675 0,-0.15534 0,-0.10131 -0.007,-0.11482 -0.007,-0.0135 -0.0135,-0.0203 0,0 -0.0135,-0.0135 -0.007,-0.0135 -0.007,-0.0203 -0.0135,-0.0135 -0.054,-0.0473 -0.0405,-0.0405 -0.0878,-0.0743 -0.0743,-0.0675 -0.10807,-0.0878 -0.0338,-0.027 -0.0473,-0.0338 -0.007,-0.007 -0.027,-0.0135 z"
         style="font-size:6.75415px;line-height:1.25;font-family:OCRABold;-inkscape-font-specification:OCRABold;text-align:center;text-anchor:middle;stroke-width:0.168855"
         id="path3661" />
      <path
         d="m 190.89215,239.82702 q 0.10131,-0.0203 0.20938,0.007 0.0203,0.007 0.0405,0.0135 0.0203,0.007 0.0405,0.0203 0.0743,0.0338 0.12157,0.0878 0.054,0.054 0.0878,0.12157 0.0338,0.0675 0.0405,0.14859 0.007,0.0743 0.007,0.40525 v 0.27017 l 0.52683,0.007 h 0.6619 0.0203 l 0.0203,0.007 0.027,0.007 q 0.19587,0.0608 0.28367,0.2364 0.027,0.0473 0.0338,0.10131 0.0135,0.0473 0.0135,0.10131 0,0.0405 -0.007,0.0743 0,0.0338 -0.0135,0.0675 -0.007,0.0338 -0.027,0.0608 -0.0878,0.18236 -0.28367,0.24314 l -0.027,0.007 -0.0203,0.007 h -0.0203 -0.6619 -0.52683 l 0.007,0.91181 v 1.01988 l 0.007,0.0203 q 0.0135,0.054 0.054,0.081 0.0203,0.0203 0.027,0.027 0.007,0 0.0338,0.007 l 0.0135,0.007 h 0.35122 q 0.0878,0 0.15534,0 0.0743,0 0.10807,0 0.0405,-0.007 0.0675,-0.007 0.027,0 0.0405,0 h 0.007 q 0.007,0 0.027,-0.0135 0.0203,-0.0135 0.0405,-0.027 0.0203,-0.0203 0.0338,-0.0405 0.0135,-0.027 0.0203,-0.054 0.0338,-0.15535 0.11482,-0.24315 0.15535,-0.18236 0.3985,-0.15534 0.12157,0.0203 0.21613,0.0945 0.10131,0.0743 0.14859,0.18912 0.054,0.11482 0.0338,0.23639 -0.0338,0.20263 -0.14183,0.38499 -0.10131,0.17561 -0.26341,0.31069 -0.054,0.0405 -0.11483,0.0811 -0.054,0.0338 -0.11482,0.0608 -0.054,0.027 -0.12157,0.0473 -0.0608,0.0203 -0.12157,0.0338 -0.11483,0.0203 -0.5606,0.0203 h -0.39174 -0.007 l -0.0135,-0.007 -0.0608,-0.007 q -0.35122,-0.0675 -0.59437,-0.31744 -0.25665,-0.26341 -0.30393,-0.62814 -0.007,-0.0743 -0.007,-1.12119 v -0.91181 h -0.054 q -0.0135,0 -0.0405,0 -0.0473,0 -0.0676,0 -0.0203,0 -0.0473,0 -0.027,0 -0.0405,0 -0.0135,-0.007 -0.027,-0.007 -0.0135,-0.007 -0.027,-0.007 -0.0473,-0.0203 -0.0946,-0.0405 -0.0405,-0.027 -0.0811,-0.054 -0.0338,-0.0338 -0.0675,-0.0743 -0.027,-0.0405 -0.0473,-0.0811 -0.0203,-0.0473 -0.0338,-0.0946 -0.007,-0.0473 -0.007,-0.10131 0,-0.15534 0.0878,-0.27017 0.0946,-0.12157 0.24315,-0.16885 0.0473,-0.0135 0.2499,-0.0135 h 0.054 v -0.27692 q 0,-0.34446 0.007,-0.412 0.007,-0.0743 0.0405,-0.14184 0.027,-0.0675 0.0743,-0.11482 0.054,-0.054 0.11482,-0.0878 0.0608,-0.0338 0.12833,-0.0473 z"
         style="font-size:6.75415px;line-height:1.25;font-family:OCRABold;-inkscape-font-specification:OCRABold;text-align:center;text-anchor:middle;stroke-width:0.168855"
         id="path3663" />
      <path
         d="m 179.31126,270.77576 q 0.0338,-0.007 0.56735,-0.007 0.42551,0.007 0.50656,0.0135 0.0878,0 0.15534,0.0338 0.0473,0.027 0.081,0.0608 0.0405,0.027 0.0675,0.0608 0.0338,0.0338 0.054,0.0811 0.027,0.0405 0.0405,0.0878 0.0203,0.0608 0.0135,0.70244 0,0.74971 0,1.40486 v 1.90467 h 0.20938 l 0.34446,0.007 h 0.0203 0.0203 l 0.027,0.0135 q 0.19587,0.0608 0.28368,0.2364 0.027,0.0473 0.0338,0.10131 0.0135,0.0473 0.0135,0.10131 0,0.0405 -0.007,0.0743 0,0.0338 -0.0135,0.0675 -0.007,0.0338 -0.027,0.0608 -0.0878,0.18236 -0.28368,0.24315 l -0.0338,0.007 -0.0203,0.007 h -0.0203 -1.00637 -0.99962 -0.0203 l -0.0203,-0.007 -0.0338,-0.007 q -0.14859,-0.0473 -0.24315,-0.16886 -0.0878,-0.12157 -0.0878,-0.27692 0,-0.15534 0.0878,-0.27016 0.0946,-0.12158 0.24315,-0.16886 l 0.027,-0.0135 h 0.0203 0.0203 l 0.34446,-0.007 h 0.20938 v -1.71555 -1.71556 h -0.20938 -0.34446 -0.0203 l -0.0203,-0.007 -0.027,-0.0135 q -0.17561,-0.054 -0.27017,-0.20938 -0.0946,-0.15535 -0.054,-0.33771 0.0135,-0.054 0.0405,-0.10131 0.027,-0.0473 0.0608,-0.0878 0.0338,-0.0405 0.0743,-0.0675 0.0473,-0.0338 0.0946,-0.054 0.0473,-0.027 0.10131,-0.0338 z"
         style="font-size:6.75415px;line-height:1.25;font-family:OCRABold;-inkscape-font-specification:OCRABold;stroke-width:0.152254"
         id="path3650" />
      <path
         d="m 184.14046,272.13334 q 0.0338,0 0.56735,0 0.42551,0 0.50656,0.007 0.0878,0.007 0.15535,0.0405 0.0946,0.0405 0.15534,0.11482 0.027,0.0405 0.0473,0.0878 0.027,0.0405 0.0405,0.0878 0.0203,0.054 0.0135,0.50656 0,0.0878 0,0.13509 0,0.0473 0,0.15534 0,0.10807 0,0.18236 0,0.0675 0,0.20263 0,0.13508 0,0.24315 v 1.2225 h 0.20937 l 0.34447,0.007 h 0.0203 0.0203 l 0.027,0.0135 q 0.0608,0.0203 0.11482,0.054 0.054,0.0338 0.0946,0.0811 0.0473,0.0473 0.0743,0.10132 0.0473,0.0946 0.0473,0.20262 0,0.054 -0.0135,0.10807 -0.007,0.0473 -0.0338,0.0946 -0.0135,0.0338 -0.0405,0.0675 -0.0203,0.0338 -0.0473,0.054 -0.027,0.027 -0.0608,0.0473 -0.027,0.027 -0.0675,0.0405 -0.0338,0.0203 -0.0675,0.0338 l -0.0338,0.007 -0.0203,0.007 h -0.0203 -1.00637 -0.99961 -0.0203 l -0.0203,-0.007 -0.0338,-0.007 q -0.14859,-0.0473 -0.24315,-0.16886 -0.0878,-0.12157 -0.0878,-0.27692 0,-0.28367 0.2499,-0.412 0.0405,-0.0135 0.081,-0.027 l 0.027,-0.0135 h 0.0203 0.0203 l 0.34446,-0.007 h 0.20938 v -1.03339 -1.04013 h -0.20938 -0.34446 -0.0203 l -0.0203,-0.007 -0.027,-0.007 q -0.1756,-0.054 -0.27016,-0.20938 -0.0946,-0.1621 -0.054,-0.33771 0.0135,-0.0405 0.027,-0.0743 0.0135,-0.0405 0.0338,-0.0676 0.0203,-0.0338 0.0473,-0.0608 0.027,-0.027 0.054,-0.0473 0.0338,-0.027 0.0675,-0.0473 0.0338,-0.0203 0.0675,-0.0338 0.0405,-0.0135 0.0743,-0.0203 z m 0.62814,-1.62775 q 0.0405,-0.007 0.25666,-0.007 0.25665,0 0.34446,0.0473 0.0675,0.0338 0.12157,0.0878 0.054,0.054 0.0878,0.12158 0.0135,0.0338 0.0203,0.0608 0.0135,0.027 0.0203,0.0675 0.007,0.0338 0.007,0.0811 0,0.0473 0,0.12833 0,0.14859 -0.007,0.21613 -0.007,0.0608 -0.0405,0.12157 -0.0203,0.0473 -0.054,0.0878 -0.027,0.0338 -0.0675,0.0675 -0.0405,0.0338 -0.0878,0.054 -0.054,0.027 -0.12158,0.0405 -0.0608,0.007 -0.21613,0.007 -0.2499,0 -0.33095,-0.027 -0.0946,-0.0338 -0.16886,-0.10806 -0.0743,-0.0811 -0.10806,-0.1621 -0.0135,-0.027 -0.0203,-0.054 0,-0.027 -0.007,-0.0608 0,-0.0338 0,-0.0743 0,-0.0405 0,-0.10806 0,-0.0675 0,-0.10807 0,-0.0405 0,-0.0743 0.007,-0.0338 0.007,-0.0608 0.007,-0.027 0.0203,-0.054 0.0338,-0.0878 0.10806,-0.1621 0.0473,-0.0473 0.10807,-0.0811 0.0608,-0.0338 0.12833,-0.0473 z"
         style="font-size:6.75415px;line-height:1.25;font-family:OCRABold;-inkscape-font-specification:OCRABold;stroke-width:0.152254"
         id="path3652" />
      <path
         d="m 188.64547,272.1401 q 0.16885,-0.0338 0.31744,0.054 0.0338,0.0203 0.0608,0.0473 0.0338,0.0203 0.054,0.054 0.027,0.027 0.0473,0.0608 0.0203,0.0338 0.0338,0.0743 0.027,0.0811 0.027,0.38498 v 0.22289 l 0.46604,1.05365 q 0.20262,0.47279 0.35121,0.80374 0.14184,-0.33095 0.35122,-0.80374 l 0.45928,-1.05365 v -0.22289 q 0,-0.30393 0.0338,-0.38498 0.027,-0.0878 0.10131,-0.1621 0.0405,-0.0405 0.0811,-0.0675 0.0473,-0.027 0.0878,-0.0405 0.15534,-0.054 0.31069,-0.007 0.0405,0.0203 0.0811,0.0473 0.0473,0.027 0.0811,0.0675 0.0405,0.0338 0.0675,0.0743 0.027,0.0405 0.0473,0.0878 0.027,0.0811 0.027,0.43226 0,0.35797 -0.0405,0.44578 l -1.10093,2.51254 -0.007,0.007 q -0.0135,0.027 -0.0405,0.054 -0.0203,0.027 -0.054,0.0473 -0.027,0.027 -0.054,0.0473 -0.0675,0.0338 -0.14859,0.054 -0.027,0.007 -0.0878,0.007 -0.0608,0.007 -0.12832,0.007 -0.0676,0 -0.14184,0 -0.0675,0 -0.12833,-0.007 -0.054,0 -0.0811,-0.007 -0.0878,-0.0203 -0.14859,-0.054 -0.0946,-0.0608 -0.15535,-0.1486 -0.0203,-0.027 -0.28367,-0.62813 -0.26341,-0.60112 -0.52683,-1.20224 -0.26341,-0.60787 -0.29718,-0.68892 -0.0338,-0.0878 -0.0338,-0.44578 0,-0.24315 0,-0.30393 0.007,-0.0675 0.027,-0.12833 0.0338,-0.0878 0.10806,-0.1621 0.10132,-0.10807 0.2364,-0.12833 z"
         style="font-size:6.75415px;line-height:1.25;font-family:OCRABold;-inkscape-font-specification:OCRABold;stroke-width:0.152254"
         id="path3654" />
      <path
         d="m 194.30544,272.13334 q 0.054,0 0.52007,0 0.52006,-0.007 0.64164,0.0203 0.25666,0.0608 0.45253,0.22288 0.25666,0.20263 0.3377,0.29043 0.21614,0.22964 0.28368,0.54033 0.007,0.0608 0.0135,0.10807 0.007,0.0473 0.007,0.16885 0,0.12158 0,0.34447 0,0.054 0,0.13508 0,0.35797 -0.0405,0.43227 l -0.007,0.027 q -0.007,0.007 -0.0135,0.0203 -0.007,0.0135 -0.0135,0.027 -0.007,0.007 -0.0135,0.0203 -0.007,0.007 -0.0135,0.0203 -0.007,0.007 -0.0135,0.0135 -0.007,0.007 -0.0203,0.0203 -0.007,0.007 -0.0203,0.0135 -0.007,0.007 -0.0135,0.0203 -0.027,0.0135 -0.054,0.0338 -0.027,0.0135 -0.0608,0.027 -0.027,0.0135 -0.054,0.027 -0.0135,0 -0.027,0.007 -0.0135,0 -0.027,0.007 -0.0135,0 -0.0405,0 -0.0203,0 -0.054,0 -0.027,0 -0.0811,0 -0.0473,0 -0.10806,0 -0.054,0 -0.14859,0 -0.0878,0 -0.18237,0 -0.0945,0 -0.24315,0 -0.14183,0 -0.29042,0 h -0.99962 q 0,0.0338 0,0.0743 0,0.0338 0,0.0473 0.007,0.007 0.0135,0.0203 l 0.007,0.007 q 0.0135,0.027 0.13509,0.13508 l 0.007,0.007 0.0135,0.007 q 0.14184,0.12833 0.18236,0.13509 l 0.0135,0.007 h 0.87128 0.007 0.007 0.007 0.007 0.0135 0.007 0.007 0.007 0.007 0.007 0.007 0.007 0.007 0.007 0.007 0.007 0.0135 0.007 0.007 0.007 0.007 0.007 0.007 0.007 0.007 0.007 0.007 0.007 0.007 0.007 0.007 0.007 0.007 0.007 0.007 0.007 0.0135 q 0.66866,0.007 0.72945,0.0338 h 0.0135 q 0.12833,0.054 0.20262,0.17561 0.0743,0.11482 0.0743,0.2499 0,0.27692 -0.24315,0.40525 -0.0675,0.0338 -0.12833,0.0473 -0.027,0.007 -0.22289,0.007 -0.18911,0.007 -0.45253,0.007 -0.25665,0 -0.52007,-0.007 -0.25665,0 -0.45252,0 -0.18912,0 -0.22289,-0.007 -0.31745,-0.0338 -0.55384,-0.22289 -0.22964,-0.18236 -0.35122,-0.31069 -0.25665,-0.26341 -0.29718,-0.63489 -0.007,-0.0608 -0.007,-0.78348 0,-0.72269 0.007,-0.79024 0.0473,-0.36472 0.29718,-0.62138 0.0811,-0.0878 0.33096,-0.29043 0.12157,-0.10131 0.26341,-0.1621 0.14859,-0.0608 0.30394,-0.0811 z m 0.97259,0.91857 h -0.007 l -0.42551,-0.007 q -0.45253,0 -0.47955,0.0135 -0.007,0 -0.0203,0.007 -0.007,0.007 -0.0473,0.0338 -0.0338,0.027 -0.0946,0.0811 -0.10806,0.0946 -0.14859,0.12833 -0.0203,0.027 -0.027,0.0608 l -0.007,0.0203 v 0.24315 l -0.007,0.12833 h 0.81725 0.8105 v -0.12833 q 0,-0.0675 0,-0.15535 0,-0.10131 -0.007,-0.11482 -0.007,-0.0135 -0.0135,-0.0203 0,0 -0.0135,-0.0135 -0.007,-0.0135 -0.007,-0.0203 -0.0135,-0.0135 -0.054,-0.0473 -0.0405,-0.0405 -0.0878,-0.0743 -0.0743,-0.0675 -0.10807,-0.0878 -0.0338,-0.027 -0.0473,-0.0338 -0.007,-0.007 -0.027,-0.0135 z"
         style="font-size:6.75415px;line-height:1.25;font-family:OCRABold;-inkscape-font-specification:OCRABold;stroke-width:0.152254"
         id="path3656" />
      <path
         id="path835-3-0"
         style="opacity:0.484735;fill:#0000ff;stroke-width:0.0635228"
         d="m 231.51369,258.47305 a 3.4000001,3.4000001 0 0 1 -3.4,3.4 3.4000001,3.4000001 0 0 1 -3.4,-3.4 3.4000001,3.4000001 0 0 1 3.4,-3.4 3.4000001,3.4000001 0 0 1 3.4,3.4 z" />
      <path
         d="m 239.07873,255.77341 q 0.0741,-0.0106 0.14817,-0.0106 0.0847,0 0.16933,0.0212 0.0529,0.0212 0.127,0.0529 0.10583,0.0529 0.1905,0.13758 0.0847,0.0847 0.13758,0.1905 0.0529,0.10583 0.0635,0.24342 0.0106,0.127 0.0106,0.77258 v 0.57149 h 0.56091 q 0.78316,0 0.84666,0.0106 0.254,0.0529 0.41275,0.254 0.16934,0.1905 0.16934,0.45508 0,0.0847 -0.0212,0.16933 -0.0106,0.0741 -0.0529,0.14817 -0.0317,0.0741 -0.0847,0.13758 -0.0529,0.0635 -0.11642,0.11642 -0.0635,0.0423 -0.14817,0.0847 -0.0741,0.0317 -0.15875,0.0529 -0.0635,0.0106 -0.84666,0.0106 h -0.56091 v 0.5715 q 0,0.86783 -0.0741,1.016 -0.0529,0.10583 -0.13758,0.1905 -0.0847,0.0847 -0.1905,0.13758 -0.127,0.0635 -0.27517,0.0741 -0.13758,0.0106 -0.27516,-0.0423 -0.14817,-0.0529 -0.26458,-0.16933 -0.11642,-0.11642 -0.16934,-0.254 -0.0318,-0.10583 -0.0423,-0.22225 0,-0.11642 0,-0.75141 v -0.55034 h -0.58208 l -0.78317,-0.0106 h -0.0318 -0.0317 l -0.0423,-0.0212 q -0.15875,-0.0423 -0.27516,-0.13758 -0.11642,-0.10583 -0.17992,-0.24342 -0.0635,-0.14816 -0.0635,-0.30691 0,-0.15875 0.0635,-0.29633 0.0635,-0.14817 0.17992,-0.24342 0.11641,-0.10583 0.27516,-0.15875 l 0.0423,-0.0106 0.0317,-0.0106 h 0.0318 0.78317 0.58208 v -0.55033 q 0,-0.63499 0,-0.75141 0.0106,-0.11642 0.0423,-0.22225 0.0529,-0.127 0.16934,-0.254 0.15875,-0.14817 0.37041,-0.20108 z"
         style="font-size:10.5833px;line-height:1.25;font-family:OCRABold;-inkscape-font-specification:OCRABold;stroke-width:0.264583"
         id="path3646" />
      <path
         d="m 216.27575,257.55228 q 0.0635,-0.0106 2.14841,-0.0106 0.62441,0 1.36524,0 0.6985,0 0.79375,0.0212 0.0741,0.0212 0.13758,0.0635 0.0741,0.0317 0.127,0.0741 0.11642,0.0953 0.1905,0.24342 0.0741,0.14816 0.0741,0.52916 0,0.381 -0.0741,0.52917 -0.0741,0.14816 -0.1905,0.24341 -0.11641,0.0847 -0.26458,0.13758 -0.0952,0.0212 -0.78316,0.0212 -0.73025,0 -1.36525,0 -2.06374,0 -2.12724,-0.0106 -0.0529,0 -0.0952,-0.0106 -0.0423,-0.0212 -0.0847,-0.0317 -0.0423,-0.0212 -0.0847,-0.0423 -0.0741,-0.0529 -0.14816,-0.11642 -0.0635,-0.0635 -0.10583,-0.13758 -0.0106,-0.0317 -0.0317,-0.0529 -0.0106,-0.0317 -0.0212,-0.0635 -0.0423,-0.127 -0.0423,-0.46567 0,-0.33867 0.0423,-0.46566 0.0529,-0.127 0.16933,-0.254 0.0741,-0.0741 0.16933,-0.127 0.0952,-0.0529 0.20109,-0.0741 z"
         style="font-size:10.5833px;line-height:1.25;font-family:OCRABold;-inkscape-font-specification:OCRABold;stroke-width:0.264583"
         id="path3643" />
      <path
         id="path865-4"
         style="opacity:0.483699;fill:#0000ff;stroke-width:0.194018"
         d="m 212.30217,242.31833 a 3.75,3.75 0 0 1 -3.75,3.75 3.75,3.75 0 0 1 -3.75,-3.75 3.75,3.75 0 0 1 3.75,-3.75 3.75,3.75 0 0 1 3.75,3.75 z" />
      <path
         id="path865-36-95"
         style="opacity:0.483699;fill:#0000ff;stroke-width:0.194018"
         d="m 212.30217,273.27142 a 3.75,3.75 0 0 1 -3.75,3.75 3.75,3.75 0 0 1 -3.75,-3.75 3.75,3.75 0 0 1 3.75,-3.75 3.75,3.75 0 0 1 3.75,3.75 z" />
      <path
         id="rect895-4"
         style="opacity:0.484735;fill:#ff0000;stroke-width:0.212505"
         d="m 102.47235,233.47304 h 60 v 50 h -60 z" />
      <path
         id="rect833-8"
         style="opacity:0.484735;fill:#0000ff;stroke-width:0.0819251"
         transform="rotate(-90)"
         d="m -254.68591,108.66201 h 16 v 30 h -16 z" />
      <path
         d="m 144.56903,244.74297 q 0.054,-0.007 0.41875,-0.007 0.36473,-0.007 0.72945,-0.007 0.36473,0 0.412,0.0135 0.1621,0.027 0.26342,0.15535 0.10806,0.12833 0.10806,0.29043 0,0.14183 -0.0743,0.25666 -0.0743,0.11482 -0.20263,0.16885 -0.0675,0.027 -0.1621,0.0338 -0.0878,0 -0.69567,0 l -0.70919,0.007 q 0,0 -0.007,0 -0.0203,0.007 -0.0338,0.0135 -0.0135,0.007 -0.0203,0.0135 -0.054,0.0405 -0.30393,0.25666 -0.12158,0.10131 -0.20263,0.16885 -0.0743,0.0675 -0.0878,0.081 -0.0203,0.0338 -0.0338,0.0675 v 0.007 0.41875 q 0,0.0811 0,0.1486 0,0.0608 0,0.10806 0,0.0405 0,0.0743 0,0.0338 0,0.0608 0,0.0203 0,0.0338 0,0.007 0,0.007 l 0.0338,0.0675 q 0.0405,0.0405 0.29043,0.25666 0.0675,0.0608 0.13508,0.12157 0.0743,0.054 0.11482,0.0946 0.0405,0.0338 0.054,0.0405 0.007,0.007 0.0203,0.0135 0.0203,0.007 0.027,0.007 0.0135,0.007 0.054,0.007 0.0405,0 0.12158,0 0.0811,0 0.20938,0 0.13508,0 0.33771,0 0.76997,0.007 0.824,0.027 0.007,0 0.0338,0.007 0.12833,0.054 0.20263,0.17561 0.0743,0.11482 0.0743,0.24991 0,0.16885 -0.10806,0.29718 -0.10132,0.12157 -0.26342,0.15534 -0.0878,0.0135 -0.77672,0.007 -0.68217,0 -0.78348,-0.007 -0.0743,-0.007 -0.1486,-0.027 -0.0675,-0.0203 -0.13508,-0.0473 -0.0675,-0.0203 -0.12833,-0.054 -0.0608,-0.0405 -0.11482,-0.0811 -0.054,-0.0405 -0.33771,-0.28368 -0.28367,-0.24315 -0.33095,-0.29043 -0.22289,-0.21613 -0.29043,-0.51331 -0.0338,-0.12158 -0.0338,-0.62814 0,-0.47279 0.007,-0.54708 0.0473,-0.35797 0.29718,-0.61463 0.0203,-0.027 0.11482,-0.10807 0.10131,-0.0878 0.20938,-0.18236 0.11482,-0.10131 0.21613,-0.18912 0.10807,-0.0878 0.14184,-0.11482 0.22964,-0.17561 0.53358,-0.20938 z"
         style="font-size:6.75415px;line-height:1.25;font-family:OCRABold;-inkscape-font-specification:OCRABold;stroke-width:0.215766"
         id="path3634" />
      <path
         d="m 148.20275,244.74297 q 0.1621,-0.0338 0.31069,0.054 0.054,0.0338 0.11482,0.0946 0.18236,-0.12158 0.39849,-0.1486 0.18237,-0.027 0.36473,0.027 0.18236,0.054 0.33095,0.16885 0.0203,0.0203 0.054,0.0473 0.0811,-0.0743 0.13509,-0.10806 0.28367,-0.18237 0.60112,-0.13509 0.29042,0.0338 0.4998,0.24315 0.2364,0.22289 0.27692,0.5606 0.007,0.0608 0.0473,1.33732 0.0473,1.26978 0.0473,1.33057 -0.007,0.0878 -0.0473,0.16885 -0.0675,0.14184 -0.20938,0.20938 -0.0135,0.007 -0.0338,0.0135 -0.0135,0.007 -0.0338,0.0135 -0.0135,0.007 -0.0338,0.007 -0.0135,0.007 -0.0338,0.007 -0.0203,0.007 -0.0405,0.007 -0.14184,0.007 -0.25666,-0.0608 -0.10131,-0.0608 -0.1621,-0.16885 -0.007,-0.007 -0.0135,-0.0203 -0.007,-0.0135 -0.0135,-0.027 -0.007,-0.0135 -0.0135,-0.027 0,-0.0135 -0.007,-0.027 0,-0.0135 -0.007,-0.027 0,-0.0135 -0.007,-0.027 -0.007,-0.0338 -0.0473,-1.33732 -0.0405,-1.0604 -0.0473,-1.23601 -0.0608,0.0473 -0.15534,0.12833 l -0.15535,0.13508 -0.007,1.11444 q 0,0.16885 0,0.31069 0,0.13508 0,0.2499 0,0.10807 0,0.18912 0.007,0.0811 0.007,0.14859 0,0.0675 0,0.11482 0,0.0473 -0.007,0.0811 0,0.0338 0,0.054 0,0.0203 -0.007,0.0405 0,0.0203 0,0.0338 0,0.007 -0.007,0.0203 -0.007,0.027 -0.0203,0.054 -0.007,0.0203 -0.0203,0.0405 -0.007,0.0203 -0.0203,0.0405 -0.0135,0.0135 -0.027,0.0338 -0.0338,0.0405 -0.0743,0.0676 -0.0338,0.0338 -0.0811,0.054 -0.16885,0.0811 -0.35122,0.0203 -0.0878,-0.0338 -0.1621,-0.10131 -0.0878,-0.0878 -0.12832,-0.21613 -0.0203,-0.054 -0.0203,-0.52007 0.007,-0.45928 0.007,-0.83752 l -0.007,-1.29004 q -0.0135,0.0135 -0.0405,0.0338 -0.0203,0.0203 -0.0473,0.0473 -0.027,0.0203 -0.0608,0.0473 -0.0338,0.027 -0.0743,0.0675 l -0.17561,0.14859 v 1.09417 q -0.007,1.16847 -0.0135,1.20224 -0.007,0.007 -0.007,0.0135 -0.0135,0.0473 -0.0338,0.0946 -0.0203,0.0405 -0.054,0.0743 -0.027,0.0405 -0.0675,0.0676 -0.0405,0.0338 -0.081,0.054 -0.17561,0.0811 -0.35797,0.0203 -0.0878,-0.0338 -0.16885,-0.10806 -0.0473,-0.054 -0.0811,-0.11483 -0.0338,-0.0608 -0.0473,-0.12832 -0.007,-0.0473 -0.0135,-0.8105 -0.007,-0.76322 0,-1.52644 0.007,-0.76322 0.0135,-0.81725 0.027,-0.13509 0.12833,-0.2364 0.054,-0.054 0.10806,-0.0811 0.0608,-0.0338 0.13509,-0.0473 z"
         style="font-size:6.75415px;line-height:1.25;font-family:OCRABold;-inkscape-font-specification:OCRABold;stroke-width:0.215766"
         id="path3636" />
      <path
         id="rect1023-5-67-7"
         style="opacity:0.483699;fill:#0000ff;stroke-width:0.264583"
         d="m 140.63152,259.90387 h 12.3422 v 12.3422 h -12.3422 z" />
      <path
         d="m 135.79062,276.2163 q 0.16885,-0.0338 0.31744,0.054 0.0338,0.0203 0.0608,0.0473 0.0338,0.0203 0.054,0.054 0.027,0.027 0.0473,0.0608 0.0203,0.0338 0.0338,0.0743 0.007,0.0203 0.007,0.0405 0.007,0.0135 0.007,0.0405 0.007,0.0203 0.007,0.0473 0.007,0.0203 0.007,0.054 0,0.027 0,0.0675 0.0405,-0.0338 0.0743,-0.0608 0.0405,-0.0338 0.0811,-0.0675 0.37148,-0.32419 0.41201,-0.34446 0.0608,-0.0405 0.13508,-0.0675 0.0473,-0.007 0.44577,-0.007 0.31745,0 0.39175,0.007 0.0743,0 0.16209,0.0203 0.22289,0.054 0.3985,0.18912 0.18236,0.12833 0.29043,0.3242 0.11482,0.18912 0.14859,0.412 0.007,0.0878 0.007,0.20938 0,0.12158 -0.007,0.18912 -0.0203,0.10806 -0.0878,0.19587 -0.0608,0.0878 -0.1621,0.13508 -0.0946,0.0473 -0.20263,0.0473 -0.15534,0 -0.27692,-0.0946 -0.12157,-0.0946 -0.1621,-0.24315 -0.0135,-0.0473 -0.0203,-0.20938 v -0.12833 l -0.007,-0.0135 q -0.0135,-0.0338 -0.0338,-0.0675 -0.0203,-0.0203 -0.0608,-0.0405 -0.0338,-0.0135 -0.0405,-0.0135 -0.007,0 -0.27016,0 h -0.2364 l -0.49305,0.41876 -0.4863,0.412 v 0.84427 q 0,0.75647 -0.007,0.87129 0,0.10806 -0.0405,0.18236 -0.0675,0.14184 -0.20938,0.20938 -0.16885,0.0811 -0.35121,0.0203 -0.0946,-0.0338 -0.16886,-0.10807 -0.10131,-0.10131 -0.12833,-0.24315 -0.0135,-0.0811 -0.0135,-1.57371 0,-1.49942 0.0135,-1.58047 0.007,-0.0338 0.0135,-0.0608 0.0135,-0.0338 0.027,-0.0608 0.0203,-0.0338 0.0405,-0.0608 0.0203,-0.027 0.0473,-0.054 0.10131,-0.10807 0.2364,-0.12833 z"
         style="font-size:6.75415px;line-height:1.25;font-family:OCRABold;-inkscape-font-specification:OCRABold;text-align:center;text-anchor:middle;stroke-width:0.168854"
         id="path3622" />
      <path
         d="m 141.45058,276.20955 q 0.054,0 0.52007,0 0.52007,-0.007 0.64165,0.0203 0.25665,0.0608 0.45252,0.22289 0.25666,0.20262 0.33771,0.29043 0.21614,0.22964 0.28368,0.54033 0.007,0.0608 0.0135,0.10806 0.007,0.0473 0.007,0.16886 0,0.12157 0,0.34446 0,0.054 0,0.13508 0,0.35797 -0.0405,0.43227 l -0.007,0.027 q -0.007,0.007 -0.0135,0.0203 -0.007,0.0135 -0.0135,0.027 -0.007,0.007 -0.0135,0.0203 -0.007,0.007 -0.0135,0.0203 -0.007,0.007 -0.0135,0.0135 -0.007,0.007 -0.0203,0.0203 -0.007,0.007 -0.0203,0.0135 -0.007,0.007 -0.0135,0.0203 -0.027,0.0135 -0.054,0.0338 -0.027,0.0135 -0.0608,0.027 -0.027,0.0135 -0.054,0.027 -0.0135,0 -0.027,0.007 -0.0135,0 -0.027,0.007 -0.0135,0 -0.0405,0 -0.0203,0 -0.054,0 -0.027,0 -0.0811,0 -0.0473,0 -0.10807,0 -0.054,0 -0.14859,0 -0.0878,0 -0.18236,0 -0.0946,0 -0.24315,0 -0.14184,0 -0.29043,0 H 141.167 q 0,0.0338 0,0.0743 0,0.0338 0,0.0473 0.007,0.007 0.0135,0.0203 l 0.007,0.007 q 0.0135,0.027 0.13508,0.13509 l 0.007,0.007 0.0135,0.007 q 0.14183,0.12833 0.18236,0.13509 l 0.0135,0.007 h 0.87128 0.007 0.007 0.007 0.007 0.0135 0.007 0.007 0.007 0.007 0.007 0.007 0.007 0.007 0.007 0.007 0.007 0.0135 0.007 0.007 0.007 0.007 0.007 0.007 0.007 0.007 0.007 0.007 0.007 0.007 0.007 0.007 0.007 0.007 0.007 0.007 0.007 0.0135 q 0.66866,0.007 0.72945,0.0338 h 0.0135 q 0.12833,0.054 0.20263,0.17561 0.0743,0.11482 0.0743,0.2499 0,0.27692 -0.24314,0.40525 -0.0676,0.0338 -0.12833,0.0473 -0.027,0.007 -0.22289,0.007 -0.18912,0.007 -0.45253,0.007 -0.25666,0 -0.52007,-0.007 -0.25666,0 -0.45253,0 -0.18911,0 -0.22288,-0.007 -0.31745,-0.0338 -0.55384,-0.22289 -0.22964,-0.18236 -0.35122,-0.31069 -0.25666,-0.26341 -0.29718,-0.63489 -0.007,-0.0608 -0.007,-0.78348 0,-0.72269 0.007,-0.79023 0.0473,-0.36473 0.29718,-0.62138 0.0811,-0.0878 0.33095,-0.29043 0.12158,-0.10132 0.26342,-0.1621 0.14859,-0.0608 0.30393,-0.0811 z m 0.9726,0.91856 h -0.007 l -0.42552,-0.007 q -0.45252,0 -0.47954,0.0135 -0.007,0 -0.0203,0.007 -0.007,0.007 -0.0473,0.0338 -0.0338,0.027 -0.0946,0.0811 -0.10807,0.0946 -0.14859,0.12833 -0.0203,0.027 -0.027,0.0608 l -0.007,0.0203 v 0.24315 l -0.007,0.12833 h 0.81726 0.81049 v -0.12833 q 0,-0.0675 0,-0.15535 0,-0.10131 -0.007,-0.11482 -0.007,-0.0135 -0.0135,-0.0203 0,0 -0.0135,-0.0135 -0.007,-0.0135 -0.007,-0.0203 -0.0135,-0.0135 -0.054,-0.0473 -0.0405,-0.0405 -0.0878,-0.0743 -0.0743,-0.0675 -0.10806,-0.0878 -0.0338,-0.027 -0.0473,-0.0338 -0.007,-0.007 -0.027,-0.0135 z"
         style="font-size:6.75415px;line-height:1.25;font-family:OCRABold;-inkscape-font-specification:OCRABold;text-align:center;text-anchor:middle;stroke-width:0.168854"
         id="path3624" />
      <path
         d="m 145.98936,276.2163 q 0.0811,-0.0135 0.80374,-0.0135 0.7227,0 0.80375,0.007 0.0946,0.0135 0.18911,0.0405 0.0946,0.027 0.17561,0.0743 0.0878,0.0405 0.1621,0.10131 0.0811,0.054 0.14859,0.12157 0.14859,0.1486 0.18236,0.28368 0.027,0.11482 -0.007,0.22964 -0.0135,0.0473 -0.0338,0.0811 -0.0608,0.12833 -0.19587,0.20262 -0.12833,0.0675 -0.27017,0.0473 -0.0945,-0.0135 -0.1756,-0.0608 -0.0743,-0.0473 -0.13509,-0.12158 -0.027,-0.0338 -0.054,-0.0473 -0.027,-0.0203 -0.0608,-0.0338 h -0.0135 l -0.69567,-0.007 q -0.62139,0 -0.7227,0.007 -0.0203,0.007 -0.0338,0.027 v 0.007 q 0.007,0.007 0.007,0.0135 0.007,0.007 0.007,0.007 0.11482,0.054 0.59436,0.26342 1.01988,0.45252 1.15496,0.51331 0.13509,0.0608 0.20263,0.10131 0.13508,0.0946 0.24315,0.22289 0.10806,0.12158 0.16885,0.27017 0.0743,0.16885 0.0878,0.35121 0.0203,0.17561 -0.0203,0.35122 -0.054,0.20938 -0.1756,0.38499 -0.12158,0.16885 -0.29719,0.28367 -0.1756,0.11482 -0.37823,0.1621 -0.12157,0.027 -0.87804,0.027 -0.0811,0 -0.20938,0 -0.4863,0 -0.55384,-0.0135 -0.0811,-0.0135 -0.15534,-0.0338 -0.0743,-0.0203 -0.17561,-0.0608 -0.20263,-0.0811 -0.37148,-0.21613 -0.027,-0.0203 -0.0473,-0.0338 -0.0203,-0.0203 -0.0405,-0.0338 -0.0135,-0.0203 -0.0338,-0.0338 -0.0135,-0.0203 -0.027,-0.0338 -0.0135,-0.0203 -0.027,-0.0405 -0.007,-0.0203 -0.0135,-0.0405 -0.0945,-0.19587 0.007,-0.39174 0.0608,-0.12833 0.18911,-0.19587 0.12833,-0.0743 0.27017,-0.054 0.13508,0.0135 0.26341,0.12157 0.0878,0.0675 0.18236,0.10132 0.0743,0.0338 0.12158,0.0405 0.054,0 0.66866,0 h 0.62814 q 0.007,0 0.007,0 0,0 0.007,-0.007 0.0878,-0.027 0.12833,-0.10807 0.0338,-0.0608 0.0135,-0.12833 -0.0135,-0.0675 -0.0675,-0.11482 l -0.027,-0.0135 q -0.0675,-0.0338 -1.30355,-0.5741 -0.50656,-0.22289 -0.54033,-0.24315 -0.0675,-0.0338 -0.13508,-0.0811 -0.0608,-0.0473 -0.12158,-0.10806 -0.0675,-0.0743 -0.12157,-0.1621 -0.054,-0.0878 -0.0946,-0.18237 -0.0338,-0.10131 -0.0473,-0.20938 -0.0473,-0.38498 0.21613,-0.70243 0.24991,-0.29718 0.62814,-0.34446 z"
         style="font-size:6.75415px;line-height:1.25;font-family:OCRABold;-inkscape-font-specification:OCRABold;text-align:center;text-anchor:middle;stroke-width:0.168854"
         id="path3626" />
      <path
         d="m 151.10899,276.20955 q 0.054,0 0.52007,0 0.52007,-0.007 0.64165,0.0203 0.25666,0.0608 0.45253,0.22289 0.25665,0.20262 0.3377,0.29043 0.21614,0.22964 0.28368,0.54033 0.007,0.0608 0.0135,0.10806 0.007,0.0473 0.007,0.16886 0,0.12157 0,0.34446 0,0.054 0,0.13508 0,0.35797 -0.0405,0.43227 l -0.007,0.027 q -0.007,0.007 -0.0135,0.0203 -0.007,0.0135 -0.0135,0.027 -0.007,0.007 -0.0135,0.0203 -0.007,0.007 -0.0135,0.0203 -0.007,0.007 -0.0135,0.0135 -0.007,0.007 -0.0203,0.0203 -0.007,0.007 -0.0203,0.0135 -0.007,0.007 -0.0135,0.0203 -0.027,0.0135 -0.054,0.0338 -0.027,0.0135 -0.0608,0.027 -0.027,0.0135 -0.054,0.027 -0.0135,0 -0.027,0.007 -0.0135,0 -0.027,0.007 -0.0135,0 -0.0405,0 -0.0203,0 -0.054,0 -0.027,0 -0.0811,0 -0.0473,0 -0.10806,0 -0.054,0 -0.1486,0 -0.0878,0 -0.18236,0 -0.0946,0 -0.24315,0 -0.14183,0 -0.29043,0 h -0.99961 q 0,0.0338 0,0.0743 0,0.0338 0,0.0473 0.007,0.007 0.0135,0.0203 l 0.007,0.007 q 0.0135,0.027 0.13509,0.13509 l 0.007,0.007 0.0135,0.007 q 0.14183,0.12833 0.18236,0.13509 l 0.0135,0.007 h 0.87128 0.007 0.007 0.007 0.007 0.0135 0.007 0.007 0.007 0.007 0.007 0.007 0.007 0.007 0.007 0.007 0.007 0.0135 0.007 0.007 0.007 0.007 0.007 0.007 0.007 0.007 0.007 0.007 0.007 0.007 0.007 0.007 0.007 0.007 0.007 0.007 0.007 0.0135 q 0.66866,0.007 0.72945,0.0338 h 0.0135 q 0.12832,0.054 0.20262,0.17561 0.0743,0.11482 0.0743,0.2499 0,0.27692 -0.24315,0.40525 -0.0676,0.0338 -0.12833,0.0473 -0.027,0.007 -0.22289,0.007 -0.18912,0.007 -0.45253,0.007 -0.25666,0 -0.52007,-0.007 -0.25665,0 -0.45252,0 -0.18912,0 -0.22289,-0.007 -0.31745,-0.0338 -0.55384,-0.22289 -0.22964,-0.18236 -0.35122,-0.31069 -0.25666,-0.26341 -0.29718,-0.63489 -0.007,-0.0608 -0.007,-0.78348 0,-0.72269 0.007,-0.79023 0.0473,-0.36473 0.29718,-0.62138 0.0811,-0.0878 0.33096,-0.29043 0.12157,-0.10132 0.26341,-0.1621 0.14859,-0.0608 0.30393,-0.0811 z m 0.9726,0.91856 h -0.007 l -0.42551,-0.007 q -0.45253,0 -0.47955,0.0135 -0.007,0 -0.0203,0.007 -0.007,0.007 -0.0473,0.0338 -0.0338,0.027 -0.0946,0.0811 -0.10806,0.0946 -0.14859,0.12833 -0.0203,0.027 -0.027,0.0608 l -0.007,0.0203 v 0.24315 l -0.007,0.12833 h 0.81725 0.8105 v -0.12833 q 0,-0.0675 0,-0.15535 0,-0.10131 -0.007,-0.11482 -0.007,-0.0135 -0.0135,-0.0203 0,0 -0.0135,-0.0135 -0.007,-0.0135 -0.007,-0.0203 -0.0135,-0.0135 -0.054,-0.0473 -0.0405,-0.0405 -0.0878,-0.0743 -0.0743,-0.0675 -0.10806,-0.0878 -0.0338,-0.027 -0.0473,-0.0338 -0.007,-0.007 -0.027,-0.0135 z"
         style="font-size:6.75415px;line-height:1.25;font-family:OCRABold;-inkscape-font-specification:OCRABold;text-align:center;text-anchor:middle;stroke-width:0.168854"
         id="path3628" />
      <path
         d="m 155.73557,275.12888 q 0.10132,-0.0203 0.20938,0.007 0.0203,0.007 0.0405,0.0135 0.0203,0.007 0.0405,0.0203 0.0743,0.0338 0.12158,0.0878 0.054,0.054 0.0878,0.12158 0.0338,0.0675 0.0405,0.14859 0.007,0.0743 0.007,0.40525 v 0.27016 l 0.52682,0.007 h 0.66191 0.0203 l 0.0203,0.007 0.027,0.007 q 0.19587,0.0608 0.28368,0.23639 0.027,0.0473 0.0338,0.10131 0.0135,0.0473 0.0135,0.10132 0,0.0405 -0.007,0.0743 0,0.0338 -0.0135,0.0675 -0.007,0.0338 -0.027,0.0608 -0.0878,0.18236 -0.28368,0.24315 l -0.027,0.007 -0.0203,0.007 h -0.0203 -0.66191 -0.52682 l 0.007,0.91181 v 1.01987 l 0.007,0.0203 q 0.0135,0.054 0.054,0.0811 0.0203,0.0203 0.027,0.027 0.007,0 0.0338,0.007 l 0.0135,0.007 h 0.35121 q 0.0878,0 0.15535,0 0.0743,0 0.10807,0 0.0405,-0.007 0.0675,-0.007 0.027,0 0.0405,0 h 0.007 q 0.007,0 0.027,-0.0135 0.0203,-0.0135 0.0405,-0.027 0.0203,-0.0203 0.0338,-0.0405 0.0135,-0.027 0.0203,-0.054 0.0338,-0.15534 0.11482,-0.24314 0.15535,-0.18237 0.3985,-0.15535 0.12157,0.0203 0.21613,0.0946 0.10131,0.0743 0.14859,0.18911 0.054,0.11482 0.0338,0.2364 -0.0338,0.20262 -0.14184,0.38499 -0.10131,0.1756 -0.26341,0.31069 -0.054,0.0405 -0.11482,0.0811 -0.054,0.0338 -0.11482,0.0608 -0.054,0.027 -0.12157,0.0473 -0.0608,0.0203 -0.12158,0.0338 -0.11482,0.0203 -0.56059,0.0203 h -0.39174 -0.007 l -0.0135,-0.007 -0.0608,-0.007 q -0.35122,-0.0675 -0.59437,-0.31745 -0.25666,-0.26341 -0.30393,-0.62813 -0.007,-0.0743 -0.007,-1.12119 v -0.91181 h -0.054 q -0.0135,0 -0.0405,0 -0.0473,0 -0.0675,0 -0.0203,0 -0.0473,0 -0.027,0 -0.0405,0 -0.0135,-0.007 -0.027,-0.007 -0.0135,-0.007 -0.027,-0.007 -0.0473,-0.0203 -0.0945,-0.0405 -0.0405,-0.027 -0.0811,-0.054 -0.0338,-0.0338 -0.0676,-0.0743 -0.027,-0.0405 -0.0473,-0.0811 -0.0203,-0.0473 -0.0338,-0.0946 -0.007,-0.0473 -0.007,-0.10131 0,-0.15535 0.0878,-0.27017 0.0946,-0.12158 0.24315,-0.16885 0.0473,-0.0135 0.24991,-0.0135 h 0.054 v -0.27692 q 0,-0.34446 0.007,-0.41201 0.007,-0.0743 0.0405,-0.14183 0.027,-0.0675 0.0743,-0.11482 0.054,-0.054 0.11482,-0.0878 0.0608,-0.0338 0.12832,-0.0473 z"
         style="font-size:6.75415px;line-height:1.25;font-family:OCRABold;-inkscape-font-specification:OCRABold;text-align:center;text-anchor:middle;stroke-width:0.168854"
         id="path3630" />
      <path
         id="rect893-04-1"
         style="opacity:0.484735;fill:#ff0000;stroke-width:0.265283"
         d="m 47.472347,233.47304 h 50 v 50 h -50 z" />
      <path
         id="rect1023-5-6-9"
         style="opacity:0.483699;fill:#0000ff;stroke-width:0.264583"
         d="m 78.459679,257.87595 h 12.342203 v 12.3422 H 78.459679 Z" />
      <path
         d="m 76.010817,273.94521 q 0.162099,-0.0338 0.310691,0.054 0.05403,0.0338 0.11482,0.0946 0.182362,-0.12158 0.398495,-0.1486 0.182362,-0.027 0.364724,0.027 0.182362,0.054 0.330954,0.16885 0.02026,0.0203 0.05403,0.0473 0.08105,-0.0743 0.135083,-0.10806 0.283674,-0.18237 0.601119,-0.13509 0.290429,0.0338 0.499807,0.24315 0.236396,0.22289 0.27692,0.5606 0.0068,0.0608 0.04728,1.33732 0.04728,1.26978 0.04728,1.33057 -0.0068,0.0878 -0.04728,0.16885 -0.06754,0.14184 -0.209378,0.20938 -0.01351,0.007 -0.03377,0.0135 -0.01351,0.007 -0.03377,0.0135 -0.01351,0.007 -0.03377,0.007 -0.01351,0.007 -0.03377,0.007 -0.02026,0.007 -0.04053,0.007 -0.141837,0.007 -0.256658,-0.0608 -0.101312,-0.0608 -0.162099,-0.16885 -0.0068,-0.007 -0.01351,-0.0203 -0.0068,-0.0135 -0.01351,-0.027 -0.0068,-0.0135 -0.01351,-0.027 0,-0.0135 -0.0068,-0.027 0,-0.0135 -0.0068,-0.027 0,-0.0135 -0.0068,-0.027 -0.0068,-0.0338 -0.04728,-1.33732 -0.04053,-1.0604 -0.04728,-1.23601 -0.06079,0.0473 -0.155345,0.12833 l -0.155346,0.13508 -0.0068,1.11444 q 0,0.16885 0,0.31069 0,0.13508 0,0.2499 0,0.10807 0,0.18912 0.0068,0.0811 0.0068,0.14859 0,0.0675 0,0.11482 0,0.0473 -0.0068,0.0811 0,0.0338 0,0.054 0,0.0203 -0.0068,0.0405 0,0.0203 0,0.0338 0,0.007 -0.0068,0.0203 -0.0068,0.027 -0.02026,0.054 -0.0068,0.0203 -0.02026,0.0405 -0.0068,0.0203 -0.02026,0.0405 -0.01351,0.0135 -0.02702,0.0338 -0.03377,0.0405 -0.0743,0.0675 -0.03377,0.0338 -0.08105,0.054 -0.168853,0.0811 -0.351215,0.0203 -0.0878,-0.0338 -0.1621,-0.10131 -0.0878,-0.0878 -0.128329,-0.21613 -0.02026,-0.054 -0.02026,-0.52007 0.0068,-0.45928 0.0068,-0.83752 l -0.0068,-1.29004 q -0.01351,0.0135 -0.04053,0.0338 -0.02026,0.0203 -0.04728,0.0473 -0.02702,0.0203 -0.06079,0.0473 -0.03377,0.027 -0.07429,0.0675 l -0.175608,0.14859 v 1.09417 q -0.0068,1.16847 -0.01351,1.20224 -0.0068,0.007 -0.0068,0.0135 -0.01351,0.0473 -0.03377,0.0946 -0.02026,0.0405 -0.05403,0.0743 -0.02702,0.0405 -0.06754,0.0675 -0.04053,0.0338 -0.08105,0.054 -0.175608,0.0811 -0.35797,0.0203 -0.0878,-0.0338 -0.168854,-0.10806 -0.04728,-0.054 -0.08105,-0.11483 -0.03377,-0.0608 -0.04728,-0.12832 -0.0068,-0.0473 -0.01351,-0.8105 -0.0068,-0.76322 0,-1.52644 0.0068,-0.76322 0.01351,-0.81725 0.02702,-0.13509 0.128328,-0.2364 0.05403,-0.054 0.108067,-0.0811 0.06079,-0.0338 0.135083,-0.0473 z"
         style="font-size:6.75415px;line-height:1.25;font-family:OCRABold;-inkscape-font-specification:OCRABold;stroke-width:0.160238"
         id="path3611" />
      <path
         d="m 81.711308,273.94521 q 0.05403,-0.007 0.547086,-0.007 0.493053,0 0.547086,0.007 0.121575,0.0203 0.216133,0.054 0.08105,0.0338 0.162099,0.0811 0.08105,0.0473 0.141838,0.0945 0.236395,0.19588 0.317445,0.27693 0.27692,0.26341 0.324199,0.6619 0.0068,0.054 0.0068,0.77673 0,0.72269 -0.0068,0.79699 -0.05403,0.37823 -0.324199,0.64164 -0.08105,0.0811 -0.317445,0.27692 -0.189117,0.15535 -0.445774,0.20938 -0.06079,0.0135 -0.121575,0.0203 -0.05403,0.007 -0.148591,0.007 -0.09456,0 -0.364724,0 -0.209379,0 -0.290429,0 -0.08105,0 -0.162099,-0.007 -0.08105,0 -0.108067,-0.007 -0.02702,0 -0.0743,-0.0135 -0.07429,-0.0135 -0.155345,-0.0473 -0.0743,-0.027 -0.148591,-0.0675 -0.0743,-0.0405 -0.135083,-0.0878 -0.229641,-0.18236 -0.351216,-0.31069 -0.256658,-0.26342 -0.297183,-0.63489 -0.0068,-0.0608 -0.0068,-0.78349 0,-0.054 0,-0.15534 0,-0.56059 0.0068,-0.63489 0.04728,-0.35797 0.297183,-0.62138 0.135083,-0.14184 0.35797,-0.31069 0.11482,-0.0878 0.249903,-0.14184 0.135083,-0.0608 0.283675,-0.0743 z m 0.979351,0.91181 q -0.02026,0 -0.11482,0 -0.09456,0 -0.324199,-0.007 -0.445774,0 -0.466037,0.0135 -0.01351,0 -0.03377,0.0135 -0.01351,0.007 -0.02026,0.0135 -0.02026,0.0203 -0.141837,0.12158 -0.114821,0.0946 -0.128329,0.10807 -0.0068,0.0135 -0.02026,0.054 l -0.0068,0.0203 v 0.68892 q 0,0.68217 0.0068,0.7227 l 0.0068,0.0203 q 0,0 0.0068,0.007 0.01351,0.027 0.155345,0.14859 0.03377,0.0338 0.06079,0.054 0.02702,0.0203 0.04053,0.0338 0.02026,0.0135 0.02702,0.0203 0.01351,0.007 0.01351,0.0135 0.0068,0 0.0068,0 0.01351,0.007 0.02702,0.0135 0.02702,0.007 0.459283,0.007 0.09456,0 0.175607,0 0.08105,0 0.128329,0 0.05403,0 0.0878,0 0.03377,-0.007 0.04728,-0.007 0.01351,0 0.01351,0 0,0 0.0068,0 0.0068,-0.007 0.01351,-0.007 0.01351,-0.007 0.01351,-0.007 0.0068,-0.007 0.02026,-0.0135 0.02026,-0.0135 0.04728,-0.0405 0.03377,-0.027 0.0878,-0.0743 0.121575,-0.10131 0.135083,-0.11482 0.01351,-0.0135 0.02702,-0.0608 l 0.0068,-0.0135 v -0.69568 q 0,-0.66191 -0.0068,-0.70919 -0.0068,-0.027 -0.02702,-0.0608 -0.03377,-0.027 -0.148591,-0.12833 -0.114821,-0.10132 -0.128329,-0.10807 -0.0068,-0.007 -0.02702,-0.0135 -0.01351,-0.007 -0.02702,-0.0135 z"
         style="font-size:6.75415px;line-height:1.25;font-family:OCRABold;-inkscape-font-specification:OCRABold;stroke-width:0.160238"
         id="path3613" />
      <path
         d="m 88.256067,272.58763 q 0.101313,-0.027 0.202625,0 0.101312,0.027 0.175608,0.0946 0.11482,0.0878 0.155345,0.23639 0.01351,0.0608 0.01351,0.78348 0,0.80375 0,1.50618 0,2.23562 -0.01351,2.27615 0,0.0135 0,0.0135 -0.01351,0.0405 -0.03377,0.0878 -0.06754,0.14184 -0.209378,0.20938 -0.175608,0.0811 -0.35797,0.0203 -0.0878,-0.0338 -0.168854,-0.10806 -0.0743,-0.0811 -0.108066,-0.16886 -0.0743,0.0608 -0.0878,0.0743 -0.236396,0.18236 -0.547086,0.22288 -0.08105,0.007 -0.364724,0.007 -0.283675,0 -0.35797,-0.007 -0.317445,-0.0338 -0.553841,-0.22288 -0.229641,-0.18236 -0.351216,-0.31069 -0.256657,-0.26342 -0.297182,-0.63489 -0.0068,-0.054 -0.01351,-0.41876 0,-0.36473 0,-0.7227 0.0068,-0.36472 0.01351,-0.41875 0.04728,-0.37148 0.290428,-0.63489 0.128329,-0.12833 0.35797,-0.31069 0.195871,-0.14859 0.43902,-0.20263 0.121575,-0.027 0.472791,-0.027 0.148591,0 0.209378,0.007 0.06079,0 0.09456,0 0.04052,0 0.0743,0.007 0.297182,0.0338 0.526824,0.20938 0.0068,0.007 0.02702,0.027 0.02026,0.0135 0.04053,0.0338 v -0.47279 q 0,-0.10807 0,-0.18912 0,-0.0878 0,-0.15534 0,-0.0743 0,-0.12833 0,-0.054 0,-0.0946 0,-0.0473 0,-0.0743 0,-0.0338 0,-0.0608 0,-0.027 0,-0.0405 0,-0.0203 0,-0.0338 0.0068,-0.0135 0.0068,-0.0203 0.0068,-0.0135 0.0068,-0.027 0.04052,-0.12833 0.135083,-0.21613 0.09456,-0.0878 0.222887,-0.11482 z m -1.067155,2.26939 q -0.05403,-0.007 -0.283675,-0.007 -0.222887,0 -0.27692,0.007 -0.04053,0.007 -0.189116,0.13509 -0.114821,0.10131 -0.135083,0.11482 -0.01351,0.0135 -0.02702,0.0473 0,0 -0.0068,0.0203 -0.0068,0.0405 -0.0068,0.71594 0,0.67541 0.0068,0.71594 0.0068,0.0135 0.0068,0.0203 l 0.0068,0.007 q 0.01351,0.027 0.135083,0.13508 l 0.0068,0.007 0.01351,0.007 q 0.114821,0.10131 0.135083,0.11482 0.02026,0.0135 0.04728,0.0203 l 0.01351,0.007 h 0.276921 q 0.06079,0 0.148591,0 0.141837,0 0.155345,-0.007 0.0068,-0.007 0.01351,-0.0135 0.0068,0 0.0068,0 0.01351,-0.007 0.236395,-0.19587 0.202624,-0.16885 0.290428,-0.24315 0.08105,-0.0675 0.0878,-0.0811 0.01351,-0.0135 0.02702,-0.054 l 0.0068,-0.0203 v -0.41876 -0.42551 l -0.0068,-0.007 q 0,-0.0135 -0.0068,-0.027 -0.0068,-0.0135 -0.01351,-0.0203 -0.0068,-0.0135 -0.01351,-0.0203 -0.04053,-0.0473 -0.297182,-0.26341 -0.256658,-0.21613 -0.297183,-0.2499 -0.02702,-0.0135 -0.06079,-0.0203 z"
         style="font-size:6.75415px;line-height:1.25;font-family:OCRABold;-inkscape-font-specification:OCRABold;stroke-width:0.160238"
         id="path3615" />
      <path
         d="m 90.559221,272.58088 q 0.02702,-0.007 1.18873,-0.007 0.965844,0 1.087418,0.007 0.128329,0 0.209379,0.0203 0.148591,0.0405 0.270166,0.13508 0.128329,0.0878 0.202624,0.22289 0.08105,0.13508 0.108067,0.29718 0.01351,0.0811 0.01351,0.86453 0,0.78348 -0.01351,0.86453 -0.04052,0.27692 -0.236395,0.46604 -0.02702,0.0203 -0.05403,0.0473 -0.02702,0.0203 -0.06079,0.0405 -0.02702,0.0135 -0.06079,0.0338 -0.02702,0.0135 -0.06079,0.0338 -0.02702,0.0135 -0.06079,0.027 -0.03377,0.007 -0.0743,0.0135 l -0.04053,0.0135 h -0.01351 -0.02026 l -0.99286,0.007 q -0.270166,0 -0.499807,0 -0.229642,0 -0.364725,0 0,0.22964 0,0.62814 v 0.62813 h 0.992861 q 1.134697,0 1.175222,0.007 0.162099,0.0338 0.263411,0.1621 0.108067,0.12833 0.108067,0.29718 0,0.1621 -0.108067,0.29043 -0.101312,0.12157 -0.263411,0.15534 -0.04053,0.007 -1.499422,0.007 h -1.445388 -0.135083 v -0.13508 -1.12795 -1.12794 -0.0135 -0.0135 l 0.01351,-0.0405 q 0.05403,-0.24991 0.229641,-0.41201 0.19587,-0.19587 0.479544,-0.21613 0.05403,-0.007 1.006369,-0.007 h 0.810498 v -0.62814 -0.62813 h -0.999615 -1.141451 -0.02026 l -0.02026,-0.007 -0.02702,-0.0135 q -0.04728,-0.0135 -0.09456,-0.0338 -0.04052,-0.027 -0.08105,-0.054 -0.03377,-0.0338 -0.06754,-0.0743 -0.02702,-0.0405 -0.04728,-0.0878 -0.0878,-0.18912 0,-0.37823 0.02702,-0.0675 0.08105,-0.12158 0.05403,-0.054 0.11482,-0.0878 0.06754,-0.0405 0.148592,-0.054 z"
         style="font-size:6.75415px;line-height:1.25;font-family:OCRABold;-inkscape-font-specification:OCRABold;stroke-width:0.160238"
         id="path3617" />
      <path
         id="path1640-0"
         style="opacity:0.501376;fill:#0000ff;stroke-width:0.299947"
         d="m 87.680775,242.25064 a 3.05,3.05 0 0 1 -3.05,3.05 3.05,3.05 0 0 1 -3.05,-3.05 3.05,3.05 0 0 1 3.05,-3.05 3.05,3.05 0 0 1 3.05,3.05 z" />
      <path
         id="rect1023-5-7"
         style="opacity:0.483699;fill:#0000ff;stroke-width:0.264583"
         d="m 54.139668,257.87595 h 12.342203 v 12.3422 H 54.139668 Z" />
      <path
         d="m 51.69418,273.94521 q 0.1621,-0.0338 0.310691,0.054 0.05403,0.0338 0.114821,0.0946 0.182362,-0.12158 0.398494,-0.1486 0.182363,-0.027 0.364725,0.027 0.182362,0.054 0.330953,0.16885 0.02026,0.0203 0.05403,0.0473 0.08105,-0.0743 0.135083,-0.10806 0.283674,-0.18237 0.601119,-0.13509 0.290429,0.0338 0.499808,0.24315 0.236395,0.22289 0.27692,0.5606 0.0068,0.0608 0.04728,1.33732 0.04728,1.26978 0.04728,1.33057 -0.0068,0.0878 -0.04728,0.16885 -0.06754,0.14184 -0.209379,0.20938 -0.01351,0.007 -0.03377,0.0135 -0.01351,0.007 -0.03377,0.0135 -0.01351,0.007 -0.03377,0.007 -0.01351,0.007 -0.03377,0.007 -0.02026,0.007 -0.04052,0.007 -0.141837,0.007 -0.256657,-0.0608 -0.101313,-0.0608 -0.1621,-0.16885 -0.0068,-0.007 -0.01351,-0.0203 -0.0068,-0.0135 -0.01351,-0.027 -0.0068,-0.0135 -0.01351,-0.027 0,-0.0135 -0.0068,-0.027 0,-0.0135 -0.0068,-0.027 0,-0.0135 -0.0068,-0.027 -0.0068,-0.0338 -0.04728,-1.33732 -0.04053,-1.0604 -0.04728,-1.23601 -0.06079,0.0473 -0.155345,0.12833 l -0.155345,0.13508 -0.0068,1.11444 q 0,0.16885 0,0.31069 0,0.13508 0,0.2499 0,0.10807 0,0.18912 0.0068,0.0811 0.0068,0.14859 0,0.0675 0,0.11482 0,0.0473 -0.0068,0.0811 0,0.0338 0,0.054 0,0.0203 -0.0068,0.0405 0,0.0203 0,0.0338 0,0.007 -0.0068,0.0203 -0.0068,0.027 -0.02026,0.054 -0.0068,0.0203 -0.02026,0.0405 -0.0068,0.0203 -0.02026,0.0405 -0.01351,0.0135 -0.02702,0.0338 -0.03377,0.0405 -0.07429,0.0675 -0.03377,0.0338 -0.08105,0.054 -0.168854,0.0811 -0.351216,0.0203 -0.0878,-0.0338 -0.1621,-0.10131 -0.0878,-0.0878 -0.128329,-0.21613 -0.02026,-0.054 -0.02026,-0.52007 0.0068,-0.45928 0.0068,-0.83752 l -0.0068,-1.29004 q -0.01351,0.0135 -0.04053,0.0338 -0.02026,0.0203 -0.04728,0.0473 -0.02702,0.0203 -0.06079,0.0473 -0.03377,0.027 -0.0743,0.0675 l -0.175608,0.14859 v 1.09417 q -0.0068,1.16847 -0.01351,1.20224 -0.0068,0.007 -0.0068,0.0135 -0.01351,0.0473 -0.03377,0.0946 -0.02026,0.0405 -0.05403,0.0743 -0.02702,0.0405 -0.06754,0.0675 -0.04052,0.0338 -0.08105,0.054 -0.175608,0.0811 -0.35797,0.0203 -0.0878,-0.0338 -0.168854,-0.10806 -0.04728,-0.054 -0.08105,-0.11483 -0.03377,-0.0608 -0.04728,-0.12832 -0.0068,-0.0473 -0.01351,-0.8105 -0.0068,-0.76322 0,-1.52644 0.0068,-0.76322 0.01351,-0.81725 0.02702,-0.13509 0.128329,-0.2364 0.05403,-0.054 0.108066,-0.0811 0.06079,-0.0338 0.135083,-0.0473 z"
         style="font-size:6.75415px;line-height:1.25;font-family:OCRABold;-inkscape-font-specification:OCRABold;text-align:center;text-anchor:middle;stroke-width:0.160238"
         id="path3600" />
      <path
         d="m 57.394671,273.94521 q 0.05403,-0.007 0.547086,-0.007 0.493053,0 0.547086,0.007 0.121575,0.0203 0.216133,0.054 0.08105,0.0338 0.1621,0.0811 0.08105,0.0473 0.141837,0.0945 0.236395,0.19588 0.317445,0.27693 0.27692,0.26341 0.324199,0.6619 0.0068,0.054 0.0068,0.77673 0,0.72269 -0.0068,0.79699 -0.05403,0.37823 -0.324199,0.64164 -0.08105,0.0811 -0.317445,0.27692 -0.189116,0.15535 -0.445774,0.20938 -0.06079,0.0135 -0.121575,0.0203 -0.05403,0.007 -0.148591,0.007 -0.09456,0 -0.364724,0 -0.209379,0 -0.290429,0 -0.08105,0 -0.162099,-0.007 -0.08105,0 -0.108067,-0.007 -0.02702,0 -0.07429,-0.0135 -0.0743,-0.0135 -0.155346,-0.0473 -0.07429,-0.027 -0.148591,-0.0675 -0.0743,-0.0405 -0.135083,-0.0878 -0.229641,-0.18236 -0.351216,-0.31069 -0.256657,-0.26342 -0.297182,-0.63489 -0.0068,-0.0608 -0.0068,-0.78349 0,-0.054 0,-0.15534 0,-0.56059 0.0068,-0.63489 0.04728,-0.35797 0.297182,-0.62138 0.135083,-0.14184 0.35797,-0.31069 0.114821,-0.0878 0.249904,-0.14184 0.135083,-0.0608 0.283674,-0.0743 z m 0.979352,0.91181 q -0.02026,0 -0.114821,0 -0.09456,0 -0.324199,-0.007 -0.445774,0 -0.466036,0.0135 -0.01351,0 -0.03377,0.0135 -0.01351,0.007 -0.02026,0.0135 -0.02026,0.0203 -0.141838,0.12158 -0.11482,0.0946 -0.128328,0.10807 -0.0068,0.0135 -0.02026,0.054 l -0.0068,0.0203 v 0.68892 q 0,0.68217 0.0068,0.7227 l 0.0068,0.0203 q 0,0 0.0068,0.007 0.01351,0.027 0.155346,0.14859 0.03377,0.0338 0.06079,0.054 0.02702,0.0203 0.04053,0.0338 0.02026,0.0135 0.02702,0.0203 0.01351,0.007 0.01351,0.0135 0.0068,0 0.0068,0 0.01351,0.007 0.02702,0.0135 0.02702,0.007 0.459282,0.007 0.09456,0 0.175608,0 0.08105,0 0.128329,0 0.05403,0 0.0878,0 0.03377,-0.007 0.04728,-0.007 0.01351,0 0.01351,0 0,0 0.0068,0 0.0068,-0.007 0.01351,-0.007 0.01351,-0.007 0.01351,-0.007 0.0068,-0.007 0.02026,-0.0135 0.02026,-0.0135 0.04728,-0.0405 0.03377,-0.027 0.0878,-0.0743 0.121575,-0.10131 0.135083,-0.11482 0.01351,-0.0135 0.02702,-0.0608 l 0.0068,-0.0135 v -0.69568 q 0,-0.66191 -0.0068,-0.70919 -0.0068,-0.027 -0.02702,-0.0608 -0.03377,-0.027 -0.148591,-0.12833 -0.114821,-0.10132 -0.128329,-0.10807 -0.0068,-0.007 -0.02702,-0.0135 -0.01351,-0.007 -0.02702,-0.0135 z"
         style="font-size:6.75415px;line-height:1.25;font-family:OCRABold;-inkscape-font-specification:OCRABold;text-align:center;text-anchor:middle;stroke-width:0.160238"
         id="path3602" />
      <path
         d="m 63.939431,272.58763 q 0.101312,-0.027 0.202624,0 0.101312,0.027 0.175608,0.0946 0.114821,0.0878 0.155345,0.23639 0.01351,0.0608 0.01351,0.78348 0,0.80375 0,1.50618 0,2.23562 -0.01351,2.27615 0,0.0135 0,0.0135 -0.01351,0.0405 -0.03377,0.0878 -0.06754,0.14184 -0.209379,0.20938 -0.175608,0.0811 -0.35797,0.0203 -0.0878,-0.0338 -0.168854,-0.10806 -0.07429,-0.0811 -0.108066,-0.16886 -0.0743,0.0608 -0.0878,0.0743 -0.236395,0.18236 -0.547086,0.22288 -0.08105,0.007 -0.364724,0.007 -0.283674,0 -0.35797,-0.007 -0.317445,-0.0338 -0.55384,-0.22288 -0.229642,-0.18236 -0.351216,-0.31069 -0.256658,-0.26342 -0.297183,-0.63489 -0.0068,-0.054 -0.01351,-0.41876 0,-0.36473 0,-0.7227 0.0068,-0.36472 0.01351,-0.41875 0.04728,-0.37148 0.290429,-0.63489 0.128328,-0.12833 0.35797,-0.31069 0.19587,-0.14859 0.439019,-0.20263 0.121575,-0.027 0.472791,-0.027 0.148591,0 0.209378,0.007 0.06079,0 0.09456,0 0.04052,0 0.07429,0.007 0.297183,0.0338 0.526824,0.20938 0.0068,0.007 0.02702,0.027 0.02026,0.0135 0.04052,0.0338 v -0.47279 q 0,-0.10807 0,-0.18912 0,-0.0878 0,-0.15534 0,-0.0743 0,-0.12833 0,-0.054 0,-0.0946 0,-0.0473 0,-0.0743 0,-0.0338 0,-0.0608 0,-0.027 0,-0.0405 0,-0.0203 0,-0.0338 0.0068,-0.0135 0.0068,-0.0203 0.0068,-0.0135 0.0068,-0.027 0.04053,-0.12833 0.135083,-0.21613 0.09456,-0.0878 0.222887,-0.11482 z m -1.067156,2.26939 q -0.05403,-0.007 -0.283674,-0.007 -0.222887,0 -0.27692,0.007 -0.04053,0.007 -0.189117,0.13509 -0.11482,0.10131 -0.135083,0.11482 -0.01351,0.0135 -0.02702,0.0473 0,0 -0.0068,0.0203 -0.0068,0.0405 -0.0068,0.71594 0,0.67541 0.0068,0.71594 0.0068,0.0135 0.0068,0.0203 l 0.0068,0.007 q 0.01351,0.027 0.135083,0.13508 l 0.0068,0.007 0.01351,0.007 q 0.114821,0.10131 0.135083,0.11482 0.02026,0.0135 0.04728,0.0203 l 0.01351,0.007 h 0.27692 q 0.06079,0 0.148591,0 0.141837,0 0.155346,-0.007 0.0068,-0.007 0.01351,-0.0135 0.0068,0 0.0068,0 0.01351,-0.007 0.236395,-0.19587 0.202625,-0.16885 0.290429,-0.24315 0.08105,-0.0675 0.0878,-0.0811 0.01351,-0.0135 0.02702,-0.054 l 0.0068,-0.0203 v -0.41876 -0.42551 l -0.0068,-0.007 q 0,-0.0135 -0.0068,-0.027 -0.0068,-0.0135 -0.01351,-0.0203 -0.0068,-0.0135 -0.01351,-0.0203 -0.04053,-0.0473 -0.297183,-0.26341 -0.256658,-0.21613 -0.297183,-0.2499 -0.02702,-0.0135 -0.06079,-0.0203 z"
         style="font-size:6.75415px;line-height:1.25;font-family:OCRABold;-inkscape-font-specification:OCRABold;text-align:center;text-anchor:middle;stroke-width:0.160238"
         id="path3604" />
      <path
         d="m 66.242584,272.58088 q 0.02702,-0.007 0.851023,-0.007 h 0.810498 0.135083 v 0.13508 2.17484 2.03975 h 0.182362 0.175608 v -0.53357 q 0,-0.0878 0,-0.24315 0,-0.47279 0.02702,-0.55384 0.02026,-0.0405 0.04052,-0.0743 0.02702,-0.0473 0.06754,-0.0878 0.04053,-0.0473 0.09456,-0.0743 0.0743,-0.0473 0.175608,-0.0608 0.08105,-0.007 0.155345,0.0135 0.08105,0.0135 0.148592,0.0608 0.0878,0.0608 0.141837,0.14859 0.04728,0.0743 0.06079,0.16885 0.0068,0.0405 0.0068,0.89831 0,0.89154 -0.02702,0.95909 -0.0068,0.0135 -0.02026,0.0405 -0.06754,0.14184 -0.209378,0.20938 -0.04728,0.0203 -0.0878,0.0338 -0.05403,0.0135 -0.52007,0.0135 -0.135083,0 -0.229641,0 -0.0878,0 -0.270166,0 -0.182362,0 -0.364724,0 h -1.323813 -0.02026 l -0.02026,-0.007 -0.03377,-0.007 q -0.148591,-0.0473 -0.24315,-0.16885 -0.0878,-0.12158 -0.0878,-0.27692 0,-0.15535 0.0878,-0.27017 0.09456,-0.12157 0.24315,-0.16885 l 0.02702,-0.0135 h 0.02026 0.02026 l 0.499807,-0.007 h 0.371479 v -1.71555 -1.71555 h -0.371479 -0.499807 -0.02026 l -0.02026,-0.007 -0.02702,-0.0135 q -0.04728,-0.0135 -0.09456,-0.0338 -0.04053,-0.027 -0.08105,-0.054 -0.03377,-0.0338 -0.06754,-0.0743 -0.02702,-0.0405 -0.04728,-0.0878 -0.0878,-0.18912 0,-0.37823 0.09456,-0.22289 0.344462,-0.26341 z"
         style="font-size:6.75415px;line-height:1.25;font-family:OCRABold;-inkscape-font-specification:OCRABold;text-align:center;text-anchor:middle;stroke-width:0.160238"
         id="path3606" />
    </g>
  </g>
</svg>
