<?xml version="1.0" encoding="UTF-8"?>
<svg height="338.90mm" viewBox="0.0 0.0 334.20 338.90" width="334.20mm" xmlns="http://www.w3.org/2000/svg" xmlns:cc="http://creativecommons.org/ns#" xmlns:dc="http://purl.org/dc/elements/1.1/" xmlns:inkscape="http://www.inkscape.org/namespaces/inkscape" xmlns:rdf="http://www.w3.org/1999/02/22-rdf-syntax-ns#" xmlns:svg="http://www.w3.org/2000/svg" xmlns:xlink="http://www.w3.org/1999/xlink"><link xmlns="" type="text/css" rel="stylesheet" id="dark-mode-custom-link"/><link xmlns="" type="text/css" rel="stylesheet" id="dark-mode-general-link"/><style xmlns="" lang="en" type="text/css" id="dark-mode-custom-style"/><style xmlns="" lang="en" type="text/css" id="dark-mode-native-style"/>
<!--
ElectronicsBox - Closed box with screw on top and mounting holes

Created with Boxes.py (https://festi.info/boxes.py)
Creation date: 2022-06-17 13:15:18
Command line (remove spaces between dashes): boxes ElectronicsBox - -FingerJoint_angle=90.0 - -FingerJoint_style=rectangular - -FingerJoint_surroundingspaces=2.0 - -FingerJoint_edge_width=1.0 - -FingerJoint_extra_length=0.0 - -FingerJoint_finger=2.0 - -FingerJoint_play=0.0 - -FingerJoint_space=2.0 - -FingerJoint_width=1.0 - -x=240 - -y=60 - -h=60 - -outside=0 - -triangle=30 - -d1=2.0 - -d2=3.0 - -d3=3.0 - -outsidemounts=0 - -outsidemounts=1 - -holedist=7.0 - -thickness=3.0 - -format=svg - -tabs=0.0 - -debug=0 - -labels=0 - -labels=1 - -reference=100 - -inner_corners=loop - -burn=0.1
Url: http://www.festi.info/ElectronicsBox?FingerJoint_angle=90.0&FingerJoint_style=rectangular&FingerJoint_surroundingspaces=2.0&FingerJoint_edge_width=1.0&FingerJoint_extra_length=0.0&FingerJoint_finger=2.0&FingerJoint_play=0.0&FingerJoint_space=2.0&FingerJoint_width=1.0&x=240&y=60&h=60&outside=0&triangle=30&d1=2.0&d2=3.0&d3=3.0&outsidemounts=0&outsidemounts=1&holedist=7.0&thickness=3.0&format=svg&tabs=0.0&debug=0&labels=0&labels=1&reference=100&inner_corners=loop&burn=0.1&render=1
SettingsUrl: http://www.festi.info/ElectronicsBox?FingerJoint_angle=90.0&FingerJoint_style=rectangular&FingerJoint_surroundingspaces=2.0&FingerJoint_edge_width=1.0&FingerJoint_extra_length=0.0&FingerJoint_finger=2.0&FingerJoint_play=0.0&FingerJoint_space=2.0&FingerJoint_width=1.0&x=240&y=60&h=60&outside=0&triangle=30&d1=2.0&d2=3.0&d3=3.0&outsidemounts=0&outsidemounts=1&holedist=7.0&thickness=3.0&format=svg&tabs=0.0&debug=0&labels=0&labels=1&reference=100&inner_corners=loop&burn=0.1
-->
<title>ElectronicsBox</title>
<metadata>
<rdf:RDF><cc:Work>
<dc:title>Box - ElectronicsBox</dc:title>
<dc:date>2022-06-17 13:15:18</dc:date>
<dc:source>http://www.festi.info/ElectronicsBox?FingerJoint_angle=90.0&amp;FingerJoint_style=rectangular&amp;FingerJoint_surroundingspaces=2.0&amp;FingerJoint_edge_width=1.0&amp;FingerJoint_extra_length=0.0&amp;FingerJoint_finger=2.0&amp;FingerJoint_play=0.0&amp;FingerJoint_space=2.0&amp;FingerJoint_width=1.0&amp;x=240&amp;y=60&amp;h=60&amp;outside=0&amp;triangle=30&amp;d1=2.0&amp;d2=3.0&amp;d3=3.0&amp;outsidemounts=0&amp;outsidemounts=1&amp;holedist=7.0&amp;thickness=3.0&amp;format=svg&amp;tabs=0.0&amp;debug=0&amp;labels=0&amp;labels=1&amp;reference=100&amp;inner_corners=loop&amp;burn=0.1&amp;render=1</dc:source>
<dc:description>Closed box with screw on top and mounting holes

Created with Boxes.py (https://festi.info/boxes.py)
Command line: boxes ElectronicsBox --FingerJoint_angle=90.0 --FingerJoint_style=rectangular --FingerJoint_surroundingspaces=2.0 --FingerJoint_edge_width=1.0 --FingerJoint_extra_length=0.0 --FingerJoint_finger=2.0 --FingerJoint_play=0.0 --FingerJoint_space=2.0 --FingerJoint_width=1.0 --x=240 --y=60 --h=60 --outside=0 --triangle=30 --d1=2.0 --d2=3.0 --d3=3.0 --outsidemounts=0 --outsidemounts=1 --holedist=7.0 --thickness=3.0 --format=svg --tabs=0.0 --debug=0 --labels=0 --labels=1 --reference=100 --inner_corners=loop --burn=0.1
Url: http://www.festi.info/ElectronicsBox?FingerJoint_angle=90.0&amp;FingerJoint_style=rectangular&amp;FingerJoint_surroundingspaces=2.0&amp;FingerJoint_edge_width=1.0&amp;FingerJoint_extra_length=0.0&amp;FingerJoint_finger=2.0&amp;FingerJoint_play=0.0&amp;FingerJoint_space=2.0&amp;FingerJoint_width=1.0&amp;x=240&amp;y=60&amp;h=60&amp;outside=0&amp;triangle=30&amp;d1=2.0&amp;d2=3.0&amp;d3=3.0&amp;outsidemounts=0&amp;outsidemounts=1&amp;holedist=7.0&amp;thickness=3.0&amp;format=svg&amp;tabs=0.0&amp;debug=0&amp;labels=0&amp;labels=1&amp;reference=100&amp;inner_corners=loop&amp;burn=0.1&amp;render=1
SettingsUrl: http://www.festi.info/ElectronicsBox?FingerJoint_angle=90.0&amp;FingerJoint_style=rectangular&amp;FingerJoint_surroundingspaces=2.0&amp;FingerJoint_edge_width=1.0&amp;FingerJoint_extra_length=0.0&amp;FingerJoint_finger=2.0&amp;FingerJoint_play=0.0&amp;FingerJoint_space=2.0&amp;FingerJoint_width=1.0&amp;x=240&amp;y=60&amp;h=60&amp;outside=0&amp;triangle=30&amp;d1=2.0&amp;d2=3.0&amp;d3=3.0&amp;outsidemounts=0&amp;outsidemounts=1&amp;holedist=7.0&amp;thickness=3.0&amp;format=svg&amp;tabs=0.0&amp;debug=0&amp;labels=0&amp;labels=1&amp;reference=100&amp;inner_corners=loop&amp;burn=0.1
</dc:description>
</cc:Work></rdf:RDF></metadata>
<g id="p-0" style="fill:none;stroke-linecap:round;stroke-linejoin:round;">
  <path d="M 10.400 328.900 H 110.400 V 318.900 H 10.400 V 328.900 Z" stroke="rgb(0,0,0)" stroke-width="0.20"/>
  <text dominant-baseline="hanging" font-size="8px" style="font-family: sans-serif ; font-weight: normal; font-style: normal; fill: rgb(255,0,0)" text-anchor="middle" transform="matrix( 1.000 0.000 0.000 1.000 60.400 319.900 )">100mm, burn:0.10mm</text>
</g>
<g id="p-1" style="fill:none;stroke-linecap:round;stroke-linejoin:round;">
  <path d="M 22.400 254.000 H 19.500 C 19.400 254.000 19.500 254.100 19.500 254.000 V 251.200 C 19.500 251.100 19.400 251.200 19.500 251.200 H 25.300 C 25.400 251.200 25.300 251.100 25.300 251.200 V 254.000 C 25.300 254.100 25.400 254.000 25.300 254.000 H 22.400 Z" stroke="rgb(0,0,255)" stroke-width="0.20"/>
  <path d="M 34.400 254.000 H 31.500 C 31.400 254.000 31.500 254.100 31.500 254.000 V 251.200 C 31.500 251.100 31.400 251.200 31.500 251.200 H 37.300 C 37.400 251.200 37.300 251.100 37.300 251.200 V 254.000 C 37.300 254.100 37.400 254.000 37.300 254.000 H 34.400 Z" stroke="rgb(0,0,255)" stroke-width="0.20"/>
  <path d="M 244.400 251.200 H 247.300 C 247.400 251.200 247.300 251.100 247.300 251.200 V 254.000 C 247.300 254.100 247.400 254.000 247.300 254.000 H 241.500 C 241.400 254.000 241.500 254.100 241.500 254.000 V 251.200 C 241.500 251.100 241.400 251.200 241.500 251.200 H 244.400 Z" stroke="rgb(0,0,255)" stroke-width="0.20"/>
  <path d="M 232.400 251.200 H 235.300 C 235.400 251.200 235.300 251.100 235.300 251.200 V 254.000 C 235.300 254.100 235.400 254.000 235.300 254.000 H 229.500 C 229.400 254.000 229.500 254.100 229.500 254.000 V 251.200 C 229.500 251.100 229.400 251.200 229.500 251.200 H 232.400 Z" stroke="rgb(0,0,255)" stroke-width="0.20"/>
  <text dominant-baseline="hanging" font-size="4px" style="font-family: sans-serif ; font-weight: normal; font-style: normal; fill: rgb(255,0,0)" text-anchor="middle" transform="matrix( 1.000 0.000 0.000 1.000 133.400 280.700 )">Wall 1</text><path d="M 13.400 314.200 H 22.300 C 22.400 314.200 22.300 314.100 22.300 314.200 V 317.100 C 22.300 317.155 22.345 317.200 22.400 317.200 H 28.400 C 28.455 317.200 28.500 317.155 28.500 317.100 V 314.200 C 28.500 314.100 28.400 314.200 28.500 314.200 H 34.300 C 34.400 314.200 34.300 314.100 34.300 314.200 V 317.100 C 34.300 317.155 34.345 317.200 34.400 317.200 H 40.400 C 40.455 317.200 40.500 317.155 40.500 317.100 V 314.200 C 40.500 314.100 40.400 314.200 40.500 314.200 H 46.300 C 46.400 314.200 46.300 314.100 46.300 314.200 V 317.100 C 46.300 317.155 46.345 317.200 46.400 317.200 H 52.400 C 52.455 317.200 52.500 317.155 52.500 317.100 V 314.200 C 52.500 314.100 52.400 314.200 52.500 314.200 H 58.300 C 58.400 314.200 58.300 314.100 58.300 314.200 V 317.100 C 58.300 317.155 58.345 317.200 58.400 317.200 H 64.400 C 64.455 317.200 64.500 317.155 64.500 317.100 V 314.200 C 64.500 314.100 64.400 314.200 64.500 314.200 H 70.300 C 70.400 314.200 70.300 314.100 70.300 314.200 V 317.100 C 70.300 317.155 70.345 317.200 70.400 317.200 H 76.400 C 76.455 317.200 76.500 317.155 76.500 317.100 V 314.200 C 76.500 314.100 76.400 314.200 76.500 314.200 H 82.300 C 82.400 314.200 82.300 314.100 82.300 314.200 V 317.100 C 82.300 317.155 82.345 317.200 82.400 317.200 H 88.400 C 88.455 317.200 88.500 317.155 88.500 317.100 V 314.200 C 88.500 314.100 88.400 314.200 88.500 314.200 H 94.300 C 94.400 314.200 94.300 314.100 94.300 314.200 V 317.100 C 94.300 317.155 94.345 317.200 94.400 317.200 H 100.400 C 100.455 317.200 100.500 317.155 100.500 317.100 V 314.200 C 100.500 314.100 100.400 314.200 100.500 314.200 H 106.300 C 106.400 314.200 106.300 314.100 106.300 314.200 V 317.100 C 106.300 317.155 106.345 317.200 106.400 317.200 H 112.400 C 112.455 317.200 112.500 317.155 112.500 317.100 V 314.200 C 112.500 314.100 112.400 314.200 112.500 314.200 H 118.300 C 118.400 314.200 118.300 314.100 118.300 314.200 V 317.100 C 118.300 317.155 118.345 317.200 118.400 317.200 H 124.400 C 124.455 317.200 124.500 317.155 124.500 317.100 V 314.200 C 124.500 314.100 124.400 314.200 124.500 314.200 H 130.300 C 130.400 314.200 130.300 314.100 130.300 314.200 V 317.100 C 130.300 317.155 130.345 317.200 130.400 317.200 H 136.400 C 136.455 317.200 136.500 317.155 136.500 317.100 V 314.200 C 136.500 314.100 136.400 314.200 136.500 314.200 H 142.300 C 142.400 314.200 142.300 314.100 142.300 314.200 V 317.100 C 142.300 317.155 142.345 317.200 142.400 317.200 H 148.400 C 148.455 317.200 148.500 317.155 148.500 317.100 V 314.200 C 148.500 314.100 148.400 314.200 148.500 314.200 H 154.300 C 154.400 314.200 154.300 314.100 154.300 314.200 V 317.100 C 154.300 317.155 154.345 317.200 154.400 317.200 H 160.400 C 160.455 317.200 160.500 317.155 160.500 317.100 V 314.200 C 160.500 314.100 160.400 314.200 160.500 314.200 H 166.300 C 166.400 314.200 166.300 314.100 166.300 314.200 V 317.100 C 166.300 317.155 166.345 317.200 166.400 317.200 H 172.400 C 172.455 317.200 172.500 317.155 172.500 317.100 V 314.200 C 172.500 314.100 172.400 314.200 172.500 314.200 H 178.300 C 178.400 314.200 178.300 314.100 178.300 314.200 V 317.100 C 178.300 317.155 178.345 317.200 178.400 317.200 H 184.400 C 184.455 317.200 184.500 317.155 184.500 317.100 V 314.200 C 184.500 314.100 184.400 314.200 184.500 314.200 H 190.300 C 190.400 314.200 190.300 314.100 190.300 314.200 V 317.100 C 190.300 317.155 190.345 317.200 190.400 317.200 H 196.400 C 196.455 317.200 196.500 317.155 196.500 317.100 V 314.200 C 196.500 314.100 196.400 314.200 196.500 314.200 H 202.300 C 202.400 314.200 202.300 314.100 202.300 314.200 V 317.100 C 202.300 317.155 202.345 317.200 202.400 317.200 H 208.400 C 208.455 317.200 208.500 317.155 208.500 317.100 V 314.200 C 208.500 314.100 208.400 314.200 208.500 314.200 H 214.300 C 214.400 314.200 214.300 314.100 214.300 314.200 V 317.100 C 214.300 317.155 214.345 317.200 214.400 317.200 H 220.400 C 220.455 317.200 220.500 317.155 220.500 317.100 V 314.200 C 220.500 314.100 220.400 314.200 220.500 314.200 H 226.300 C 226.400 314.200 226.300 314.100 226.300 314.200 V 317.100 C 226.300 317.155 226.345 317.200 226.400 317.200 H 232.400 C 232.455 317.200 232.500 317.155 232.500 317.100 V 314.200 C 232.500 314.100 232.400 314.200 232.500 314.200 H 238.300 C 238.400 314.200 238.300 314.100 238.300 314.200 V 317.100 C 238.300 317.155 238.345 317.200 238.400 317.200 H 244.400 C 244.455 317.200 244.500 317.155 244.500 317.100 V 314.200 C 244.500 314.100 244.400 314.200 244.500 314.200 H 253.400 H 256.400 C 256.455 314.200 256.500 314.155 256.500 314.100 V 308.100 C 256.500 308.045 256.455 308.000 256.400 308.000 H 253.500 C 253.400 308.000 253.500 308.100 253.500 308.000 V 302.200 C 253.500 302.100 253.400 302.200 253.500 302.200 H 256.400 C 256.455 302.200 256.500 302.155 256.500 302.100 V 296.100 C 256.500 296.045 256.455 296.000 256.400 296.000 H 253.500 C 253.400 296.000 253.500 296.100 253.500 296.000 V 290.200 C 253.500 290.100 253.400 290.200 253.500 290.200 H 256.400 C 256.455 290.200 256.500 290.155 256.500 290.100 V 284.100 C 256.500 284.045 256.455 284.000 256.400 284.000 H 253.500 C 253.400 284.000 253.500 284.100 253.500 284.000 V 278.200 C 253.500 278.100 253.400 278.200 253.500 278.200 H 256.400 C 256.455 278.200 256.500 278.155 256.500 278.100 V 272.100 C 256.500 272.045 256.455 272.000 256.400 272.000 H 253.500 C 253.400 272.000 253.500 272.100 253.500 272.000 V 266.200 C 253.500 266.100 253.400 266.200 253.500 266.200 H 256.400 C 256.455 266.200 256.500 266.155 256.500 266.100 V 260.100 C 256.500 260.045 256.455 260.000 256.400 260.000 H 253.500 C 253.400 260.000 253.500 260.100 253.500 260.000 V 254.200 C 253.500 254.100 253.400 254.200 253.500 254.200 H 256.400 C 256.455 254.200 256.500 254.155 256.500 254.100 V 248.100 C 256.500 248.045 256.455 248.000 256.400 248.000 H 253.400 H 13.400 H 10.400 C 10.345 248.000 10.300 248.045 10.300 248.100 V 254.100 C 10.300 254.155 10.345 254.200 10.400 254.200 H 13.300 C 13.400 254.200 13.300 254.100 13.300 254.200 V 260.000 C 13.300 260.100 13.400 260.000 13.300 260.000 H 10.400 C 10.345 260.000 10.300 260.045 10.300 260.100 V 266.100 C 10.300 266.155 10.345 266.200 10.400 266.200 H 13.300 C 13.400 266.200 13.300 266.100 13.300 266.200 V 272.000 C 13.300 272.100 13.400 272.000 13.300 272.000 H 10.400 C 10.345 272.000 10.300 272.045 10.300 272.100 V 278.100 C 10.300 278.155 10.345 278.200 10.400 278.200 H 13.300 C 13.400 278.200 13.300 278.100 13.300 278.200 V 284.000 C 13.300 284.100 13.400 284.000 13.300 284.000 H 10.400 C 10.345 284.000 10.300 284.045 10.300 284.100 V 290.100 C 10.300 290.155 10.345 290.200 10.400 290.200 H 13.300 C 13.400 290.200 13.300 290.100 13.300 290.200 V 296.000 C 13.300 296.100 13.400 296.000 13.300 296.000 H 10.400 C 10.345 296.000 10.300 296.045 10.300 296.100 V 302.100 C 10.300 302.155 10.345 302.200 10.400 302.200 H 13.300 C 13.400 302.200 13.300 302.100 13.300 302.200 V 308.000 C 13.300 308.100 13.400 308.000 13.300 308.000 H 10.400 C 10.345 308.000 10.300 308.045 10.300 308.100 V 314.100 C 10.300 314.155 10.345 314.200 10.400 314.200 H 13.400" stroke="rgb(0,0,0)" stroke-width="0.20"/>
</g>
<g id="p-2" style="fill:none;stroke-linecap:round;stroke-linejoin:round;">
  <path d="M 270.100 254.000 H 267.200 C 267.100 254.000 267.200 254.100 267.200 254.000 V 251.200 C 267.200 251.100 267.100 251.200 267.200 251.200 H 273.000 C 273.100 251.200 273.000 251.100 273.000 251.200 V 254.000 C 273.000 254.100 273.100 254.000 273.000 254.000 H 270.100 Z" stroke="rgb(0,0,255)" stroke-width="0.20"/>
  <path d="M 282.100 254.000 H 279.200 C 279.100 254.000 279.200 254.100 279.200 254.000 V 251.200 C 279.200 251.100 279.100 251.200 279.200 251.200 H 285.000 C 285.100 251.200 285.000 251.100 285.000 251.200 V 254.000 C 285.000 254.100 285.100 254.000 285.000 254.000 H 282.100 Z" stroke="rgb(0,0,255)" stroke-width="0.20"/>
  <path d="M 312.100 251.200 H 315.000 C 315.100 251.200 315.000 251.100 315.000 251.200 V 254.000 C 315.000 254.100 315.100 254.000 315.000 254.000 H 309.200 C 309.100 254.000 309.200 254.100 309.200 254.000 V 251.200 C 309.200 251.100 309.100 251.200 309.200 251.200 H 312.100 Z" stroke="rgb(0,0,255)" stroke-width="0.20"/>
  <path d="M 300.100 251.200 H 303.000 C 303.100 251.200 303.000 251.100 303.000 251.200 V 254.000 C 303.000 254.100 303.100 254.000 303.000 254.000 H 297.200 C 297.100 254.000 297.200 254.100 297.200 254.000 V 251.200 C 297.200 251.100 297.100 251.200 297.200 251.200 H 300.100 Z" stroke="rgb(0,0,255)" stroke-width="0.20"/>
  <text dominant-baseline="hanging" font-size="4px" style="font-family: sans-serif ; font-weight: normal; font-style: normal; fill: rgb(255,0,0)" text-anchor="middle" transform="matrix( 1.000 0.000 0.000 1.000 291.100 280.700 )">Wall 2</text><path d="M 261.100 314.200 H 270.000 C 270.100 314.200 270.000 314.100 270.000 314.200 V 317.100 C 270.000 317.155 270.045 317.200 270.100 317.200 H 276.100 C 276.155 317.200 276.200 317.155 276.200 317.100 V 314.200 C 276.200 314.100 276.100 314.200 276.200 314.200 H 282.000 C 282.100 314.200 282.000 314.100 282.000 314.200 V 317.100 C 282.000 317.155 282.045 317.200 282.100 317.200 H 288.100 C 288.155 317.200 288.200 317.155 288.200 317.100 V 314.200 C 288.200 314.100 288.100 314.200 288.200 314.200 H 294.000 C 294.100 314.200 294.000 314.100 294.000 314.200 V 317.100 C 294.000 317.155 294.045 317.200 294.100 317.200 H 300.100 C 300.155 317.200 300.200 317.155 300.200 317.100 V 314.200 C 300.200 314.100 300.100 314.200 300.200 314.200 H 306.000 C 306.100 314.200 306.000 314.100 306.000 314.200 V 317.100 C 306.000 317.155 306.045 317.200 306.100 317.200 H 312.100 C 312.155 317.200 312.200 317.155 312.200 317.100 V 314.200 C 312.200 314.100 312.100 314.200 312.200 314.200 H 321.100 C 321.155 314.200 321.200 314.155 321.200 314.100 V 308.200 C 321.200 308.100 321.100 308.200 321.200 308.200 H 324.100 C 324.155 308.200 324.200 308.155 324.200 308.100 V 302.100 C 324.200 302.045 324.155 302.000 324.100 302.000 H 321.200 C 321.100 302.000 321.200 302.100 321.200 302.000 V 296.200 C 321.200 296.100 321.100 296.200 321.200 296.200 H 324.100 C 324.155 296.200 324.200 296.155 324.200 296.100 V 290.100 C 324.200 290.045 324.155 290.000 324.100 290.000 H 321.200 C 321.100 290.000 321.200 290.100 321.200 290.000 V 284.200 C 321.200 284.100 321.100 284.200 321.200 284.200 H 324.100 C 324.155 284.200 324.200 284.155 324.200 284.100 V 278.100 C 324.200 278.045 324.155 278.000 324.100 278.000 H 321.200 C 321.100 278.000 321.200 278.100 321.200 278.000 V 272.200 C 321.200 272.100 321.100 272.200 321.200 272.200 H 324.100 C 324.155 272.200 324.200 272.155 324.200 272.100 V 266.100 C 324.200 266.045 324.155 266.000 324.100 266.000 H 321.200 C 321.100 266.000 321.200 266.100 321.200 266.000 V 260.200 C 321.200 260.100 321.100 260.200 321.200 260.200 H 324.100 C 324.155 260.200 324.200 260.155 324.200 260.100 V 254.100 C 324.200 254.045 324.155 254.000 324.100 254.000 H 321.200 C 321.100 254.000 321.200 254.100 321.200 254.000 V 248.100 C 321.200 248.045 321.155 248.000 321.100 248.000 H 261.100 C 261.045 248.000 261.000 248.045 261.000 248.100 V 254.000 C 261.000 254.100 261.100 254.000 261.000 254.000 H 258.100 C 258.045 254.000 258.000 254.045 258.000 254.100 V 260.100 C 258.000 260.155 258.045 260.200 258.100 260.200 H 261.000 C 261.100 260.200 261.000 260.100 261.000 260.200 V 266.000 C 261.000 266.100 261.100 266.000 261.000 266.000 H 258.100 C 258.045 266.000 258.000 266.045 258.000 266.100 V 272.100 C 258.000 272.155 258.045 272.200 258.100 272.200 H 261.000 C 261.100 272.200 261.000 272.100 261.000 272.200 V 278.000 C 261.000 278.100 261.100 278.000 261.000 278.000 H 258.100 C 258.045 278.000 258.000 278.045 258.000 278.100 V 284.100 C 258.000 284.155 258.045 284.200 258.100 284.200 H 261.000 C 261.100 284.200 261.000 284.100 261.000 284.200 V 290.000 C 261.000 290.100 261.100 290.000 261.000 290.000 H 258.100 C 258.045 290.000 258.000 290.045 258.000 290.100 V 296.100 C 258.000 296.155 258.045 296.200 258.100 296.200 H 261.000 C 261.100 296.200 261.000 296.100 261.000 296.200 V 302.000 C 261.000 302.100 261.100 302.000 261.000 302.000 H 258.100 C 258.045 302.000 258.000 302.045 258.000 302.100 V 308.100 C 258.000 308.155 258.045 308.200 258.100 308.200 H 261.000 C 261.100 308.200 261.000 308.100 261.000 308.200 V 314.100 C 261.000 314.155 261.045 314.200 261.100 314.200" stroke="rgb(0,0,0)" stroke-width="0.20"/>
</g>
<g id="p-3" style="fill:none;stroke-linecap:round;stroke-linejoin:round;">
  <path d="M 270.100 183.300 H 267.200 C 267.100 183.300 267.200 183.400 267.200 183.300 V 180.500 C 267.200 180.400 267.100 180.500 267.200 180.500 H 273.000 C 273.100 180.500 273.000 180.400 273.000 180.500 V 183.300 C 273.000 183.400 273.100 183.300 273.000 183.300 H 270.100 Z" stroke="rgb(0,0,255)" stroke-width="0.20"/>
  <path d="M 282.100 183.300 H 279.200 C 279.100 183.300 279.200 183.400 279.200 183.300 V 180.500 C 279.200 180.400 279.100 180.500 279.200 180.500 H 285.000 C 285.100 180.500 285.000 180.400 285.000 180.500 V 183.300 C 285.000 183.400 285.100 183.300 285.000 183.300 H 282.100 Z" stroke="rgb(0,0,255)" stroke-width="0.20"/>
  <path d="M 312.100 180.500 H 315.000 C 315.100 180.500 315.000 180.400 315.000 180.500 V 183.300 C 315.000 183.400 315.100 183.300 315.000 183.300 H 309.200 C 309.100 183.300 309.200 183.400 309.200 183.300 V 180.500 C 309.200 180.400 309.100 180.500 309.200 180.500 H 312.100 Z" stroke="rgb(0,0,255)" stroke-width="0.20"/>
  <path d="M 300.100 180.500 H 303.000 C 303.100 180.500 303.000 180.400 303.000 180.500 V 183.300 C 303.000 183.400 303.100 183.300 303.000 183.300 H 297.200 C 297.100 183.300 297.200 183.400 297.200 183.300 V 180.500 C 297.200 180.400 297.100 180.500 297.200 180.500 H 300.100 Z" stroke="rgb(0,0,255)" stroke-width="0.20"/>
  <text dominant-baseline="hanging" font-size="4px" style="font-family: sans-serif ; font-weight: normal; font-style: normal; fill: rgb(255,0,0)" text-anchor="middle" transform="matrix( 1.000 0.000 0.000 1.000 291.100 210.000 )">Wall 4</text><path d="M 261.100 243.500 H 270.000 C 270.100 243.500 270.000 243.400 270.000 243.500 V 246.400 C 270.000 246.455 270.045 246.500 270.100 246.500 H 276.100 C 276.155 246.500 276.200 246.455 276.200 246.400 V 243.500 C 276.200 243.400 276.100 243.500 276.200 243.500 H 282.000 C 282.100 243.500 282.000 243.400 282.000 243.500 V 246.400 C 282.000 246.455 282.045 246.500 282.100 246.500 H 288.100 C 288.155 246.500 288.200 246.455 288.200 246.400 V 243.500 C 288.200 243.400 288.100 243.500 288.200 243.500 H 294.000 C 294.100 243.500 294.000 243.400 294.000 243.500 V 246.400 C 294.000 246.455 294.045 246.500 294.100 246.500 H 300.100 C 300.155 246.500 300.200 246.455 300.200 246.400 V 243.500 C 300.200 243.400 300.100 243.500 300.200 243.500 H 306.000 C 306.100 243.500 306.000 243.400 306.000 243.500 V 246.400 C 306.000 246.455 306.045 246.500 306.100 246.500 H 312.100 C 312.155 246.500 312.200 246.455 312.200 246.400 V 243.500 C 312.200 243.400 312.100 243.500 312.200 243.500 H 321.100 C 321.155 243.500 321.200 243.455 321.200 243.400 V 237.500 C 321.200 237.400 321.100 237.500 321.200 237.500 H 324.100 C 324.155 237.500 324.200 237.455 324.200 237.400 V 231.400 C 324.200 231.345 324.155 231.300 324.100 231.300 H 321.200 C 321.100 231.300 321.200 231.400 321.200 231.300 V 225.500 C 321.200 225.400 321.100 225.500 321.200 225.500 H 324.100 C 324.155 225.500 324.200 225.455 324.200 225.400 V 219.400 C 324.200 219.345 324.155 219.300 324.100 219.300 H 321.200 C 321.100 219.300 321.200 219.400 321.200 219.300 V 213.500 C 321.200 213.400 321.100 213.500 321.200 213.500 H 324.100 C 324.155 213.500 324.200 213.455 324.200 213.400 V 207.400 C 324.200 207.345 324.155 207.300 324.100 207.300 H 321.200 C 321.100 207.300 321.200 207.400 321.200 207.300 V 201.500 C 321.200 201.400 321.100 201.500 321.200 201.500 H 324.100 C 324.155 201.500 324.200 201.455 324.200 201.400 V 195.400 C 324.200 195.345 324.155 195.300 324.100 195.300 H 321.200 C 321.100 195.300 321.200 195.400 321.200 195.300 V 189.500 C 321.200 189.400 321.100 189.500 321.200 189.500 H 324.100 C 324.155 189.500 324.200 189.455 324.200 189.400 V 183.400 C 324.200 183.345 324.155 183.300 324.100 183.300 H 321.200 C 321.100 183.300 321.200 183.400 321.200 183.300 V 177.400 C 321.200 177.345 321.155 177.300 321.100 177.300 H 261.100 C 261.045 177.300 261.000 177.345 261.000 177.400 V 183.300 C 261.000 183.400 261.100 183.300 261.000 183.300 H 258.100 C 258.045 183.300 258.000 183.345 258.000 183.400 V 189.400 C 258.000 189.455 258.045 189.500 258.100 189.500 H 261.000 C 261.100 189.500 261.000 189.400 261.000 189.500 V 195.300 C 261.000 195.400 261.100 195.300 261.000 195.300 H 258.100 C 258.045 195.300 258.000 195.345 258.000 195.400 V 201.400 C 258.000 201.455 258.045 201.500 258.100 201.500 H 261.000 C 261.100 201.500 261.000 201.400 261.000 201.500 V 207.300 C 261.000 207.400 261.100 207.300 261.000 207.300 H 258.100 C 258.045 207.300 258.000 207.345 258.000 207.400 V 213.400 C 258.000 213.455 258.045 213.500 258.100 213.500 H 261.000 C 261.100 213.500 261.000 213.400 261.000 213.500 V 219.300 C 261.000 219.400 261.100 219.300 261.000 219.300 H 258.100 C 258.045 219.300 258.000 219.345 258.000 219.400 V 225.400 C 258.000 225.455 258.045 225.500 258.100 225.500 H 261.000 C 261.100 225.500 261.000 225.400 261.000 225.500 V 231.300 C 261.000 231.400 261.100 231.300 261.000 231.300 H 258.100 C 258.045 231.300 258.000 231.345 258.000 231.400 V 237.400 C 258.000 237.455 258.045 237.500 258.100 237.500 H 261.000 C 261.100 237.500 261.000 237.400 261.000 237.500 V 243.400 C 261.000 243.455 261.045 243.500 261.100 243.500" stroke="rgb(0,0,0)" stroke-width="0.20"/>
</g>
<g id="p-4" style="fill:none;stroke-linecap:round;stroke-linejoin:round;">
  <path d="M 22.400 183.300 H 19.500 C 19.400 183.300 19.500 183.400 19.500 183.300 V 180.500 C 19.500 180.400 19.400 180.500 19.500 180.500 H 25.300 C 25.400 180.500 25.300 180.400 25.300 180.500 V 183.300 C 25.300 183.400 25.400 183.300 25.300 183.300 H 22.400 Z" stroke="rgb(0,0,255)" stroke-width="0.20"/>
  <path d="M 34.400 183.300 H 31.500 C 31.400 183.300 31.500 183.400 31.500 183.300 V 180.500 C 31.500 180.400 31.400 180.500 31.500 180.500 H 37.300 C 37.400 180.500 37.300 180.400 37.300 180.500 V 183.300 C 37.300 183.400 37.400 183.300 37.300 183.300 H 34.400 Z" stroke="rgb(0,0,255)" stroke-width="0.20"/>
  <path d="M 244.400 180.500 H 247.300 C 247.400 180.500 247.300 180.400 247.300 180.500 V 183.300 C 247.300 183.400 247.400 183.300 247.300 183.300 H 241.500 C 241.400 183.300 241.500 183.400 241.500 183.300 V 180.500 C 241.500 180.400 241.400 180.500 241.500 180.500 H 244.400 Z" stroke="rgb(0,0,255)" stroke-width="0.20"/>
  <path d="M 232.400 180.500 H 235.300 C 235.400 180.500 235.300 180.400 235.300 180.500 V 183.300 C 235.300 183.400 235.400 183.300 235.300 183.300 H 229.500 C 229.400 183.300 229.500 183.400 229.500 183.300 V 180.500 C 229.500 180.400 229.400 180.500 229.500 180.500 H 232.400 Z" stroke="rgb(0,0,255)" stroke-width="0.20"/>
  <text dominant-baseline="hanging" font-size="4px" style="font-family: sans-serif ; font-weight: normal; font-style: normal; fill: rgb(255,0,0)" text-anchor="middle" transform="matrix( 1.000 0.000 0.000 1.000 133.400 210.000 )">Wall 3</text><path d="M 13.400 243.500 H 22.300 C 22.400 243.500 22.300 243.400 22.300 243.500 V 246.400 C 22.300 246.455 22.345 246.500 22.400 246.500 H 28.400 C 28.455 246.500 28.500 246.455 28.500 246.400 V 243.500 C 28.500 243.400 28.400 243.500 28.500 243.500 H 34.300 C 34.400 243.500 34.300 243.400 34.300 243.500 V 246.400 C 34.300 246.455 34.345 246.500 34.400 246.500 H 40.400 C 40.455 246.500 40.500 246.455 40.500 246.400 V 243.500 C 40.500 243.400 40.400 243.500 40.500 243.500 H 46.300 C 46.400 243.500 46.300 243.400 46.300 243.500 V 246.400 C 46.300 246.455 46.345 246.500 46.400 246.500 H 52.400 C 52.455 246.500 52.500 246.455 52.500 246.400 V 243.500 C 52.500 243.400 52.400 243.500 52.500 243.500 H 58.300 C 58.400 243.500 58.300 243.400 58.300 243.500 V 246.400 C 58.300 246.455 58.345 246.500 58.400 246.500 H 64.400 C 64.455 246.500 64.500 246.455 64.500 246.400 V 243.500 C 64.500 243.400 64.400 243.500 64.500 243.500 H 70.300 C 70.400 243.500 70.300 243.400 70.300 243.500 V 246.400 C 70.300 246.455 70.345 246.500 70.400 246.500 H 76.400 C 76.455 246.500 76.500 246.455 76.500 246.400 V 243.500 C 76.500 243.400 76.400 243.500 76.500 243.500 H 82.300 C 82.400 243.500 82.300 243.400 82.300 243.500 V 246.400 C 82.300 246.455 82.345 246.500 82.400 246.500 H 88.400 C 88.455 246.500 88.500 246.455 88.500 246.400 V 243.500 C 88.500 243.400 88.400 243.500 88.500 243.500 H 94.300 C 94.400 243.500 94.300 243.400 94.300 243.500 V 246.400 C 94.300 246.455 94.345 246.500 94.400 246.500 H 100.400 C 100.455 246.500 100.500 246.455 100.500 246.400 V 243.500 C 100.500 243.400 100.400 243.500 100.500 243.500 H 106.300 C 106.400 243.500 106.300 243.400 106.300 243.500 V 246.400 C 106.300 246.455 106.345 246.500 106.400 246.500 H 112.400 C 112.455 246.500 112.500 246.455 112.500 246.400 V 243.500 C 112.500 243.400 112.400 243.500 112.500 243.500 H 118.300 C 118.400 243.500 118.300 243.400 118.300 243.500 V 246.400 C 118.300 246.455 118.345 246.500 118.400 246.500 H 124.400 C 124.455 246.500 124.500 246.455 124.500 246.400 V 243.500 C 124.500 243.400 124.400 243.500 124.500 243.500 H 130.300 C 130.400 243.500 130.300 243.400 130.300 243.500 V 246.400 C 130.300 246.455 130.345 246.500 130.400 246.500 H 136.400 C 136.455 246.500 136.500 246.455 136.500 246.400 V 243.500 C 136.500 243.400 136.400 243.500 136.500 243.500 H 142.300 C 142.400 243.500 142.300 243.400 142.300 243.500 V 246.400 C 142.300 246.455 142.345 246.500 142.400 246.500 H 148.400 C 148.455 246.500 148.500 246.455 148.500 246.400 V 243.500 C 148.500 243.400 148.400 243.500 148.500 243.500 H 154.300 C 154.400 243.500 154.300 243.400 154.300 243.500 V 246.400 C 154.300 246.455 154.345 246.500 154.400 246.500 H 160.400 C 160.455 246.500 160.500 246.455 160.500 246.400 V 243.500 C 160.500 243.400 160.400 243.500 160.500 243.500 H 166.300 C 166.400 243.500 166.300 243.400 166.300 243.500 V 246.400 C 166.300 246.455 166.345 246.500 166.400 246.500 H 172.400 C 172.455 246.500 172.500 246.455 172.500 246.400 V 243.500 C 172.500 243.400 172.400 243.500 172.500 243.500 H 178.300 C 178.400 243.500 178.300 243.400 178.300 243.500 V 246.400 C 178.300 246.455 178.345 246.500 178.400 246.500 H 184.400 C 184.455 246.500 184.500 246.455 184.500 246.400 V 243.500 C 184.500 243.400 184.400 243.500 184.500 243.500 H 190.300 C 190.400 243.500 190.300 243.400 190.300 243.500 V 246.400 C 190.300 246.455 190.345 246.500 190.400 246.500 H 196.400 C 196.455 246.500 196.500 246.455 196.500 246.400 V 243.500 C 196.500 243.400 196.400 243.500 196.500 243.500 H 202.300 C 202.400 243.500 202.300 243.400 202.300 243.500 V 246.400 C 202.300 246.455 202.345 246.500 202.400 246.500 H 208.400 C 208.455 246.500 208.500 246.455 208.500 246.400 V 243.500 C 208.500 243.400 208.400 243.500 208.500 243.500 H 214.300 C 214.400 243.500 214.300 243.400 214.300 243.500 V 246.400 C 214.300 246.455 214.345 246.500 214.400 246.500 H 220.400 C 220.455 246.500 220.500 246.455 220.500 246.400 V 243.500 C 220.500 243.400 220.400 243.500 220.500 243.500 H 226.300 C 226.400 243.500 226.300 243.400 226.300 243.500 V 246.400 C 226.300 246.455 226.345 246.500 226.400 246.500 H 232.400 C 232.455 246.500 232.500 246.455 232.500 246.400 V 243.500 C 232.500 243.400 232.400 243.500 232.500 243.500 H 238.300 C 238.400 243.500 238.300 243.400 238.300 243.500 V 246.400 C 238.300 246.455 238.345 246.500 238.400 246.500 H 244.400 C 244.455 246.500 244.500 246.455 244.500 246.400 V 243.500 C 244.500 243.400 244.400 243.500 244.500 243.500 H 253.400 H 256.400 C 256.455 243.500 256.500 243.455 256.500 243.400 V 237.400 C 256.500 237.345 256.455 237.300 256.400 237.300 H 253.500 C 253.400 237.300 253.500 237.400 253.500 237.300 V 231.500 C 253.500 231.400 253.400 231.500 253.500 231.500 H 256.400 C 256.455 231.500 256.500 231.455 256.500 231.400 V 225.400 C 256.500 225.345 256.455 225.300 256.400 225.300 H 253.500 C 253.400 225.300 253.500 225.400 253.500 225.300 V 219.500 C 253.500 219.400 253.400 219.500 253.500 219.500 H 256.400 C 256.455 219.500 256.500 219.455 256.500 219.400 V 213.400 C 256.500 213.345 256.455 213.300 256.400 213.300 H 253.500 C 253.400 213.300 253.500 213.400 253.500 213.300 V 207.500 C 253.500 207.400 253.400 207.500 253.500 207.500 H 256.400 C 256.455 207.500 256.500 207.455 256.500 207.400 V 201.400 C 256.500 201.345 256.455 201.300 256.400 201.300 H 253.500 C 253.400 201.300 253.500 201.400 253.500 201.300 V 195.500 C 253.500 195.400 253.400 195.500 253.500 195.500 H 256.400 C 256.455 195.500 256.500 195.455 256.500 195.400 V 189.400 C 256.500 189.345 256.455 189.300 256.400 189.300 H 253.500 C 253.400 189.300 253.500 189.400 253.500 189.300 V 183.500 C 253.500 183.400 253.400 183.500 253.500 183.500 H 256.400 C 256.455 183.500 256.500 183.455 256.500 183.400 V 177.400 C 256.500 177.345 256.455 177.300 256.400 177.300 H 253.400 H 13.400 H 10.400 C 10.345 177.300 10.300 177.345 10.300 177.400 V 183.400 C 10.300 183.455 10.345 183.500 10.400 183.500 H 13.300 C 13.400 183.500 13.300 183.400 13.300 183.500 V 189.300 C 13.300 189.400 13.400 189.300 13.300 189.300 H 10.400 C 10.345 189.300 10.300 189.345 10.300 189.400 V 195.400 C 10.300 195.455 10.345 195.500 10.400 195.500 H 13.300 C 13.400 195.500 13.300 195.400 13.300 195.500 V 201.300 C 13.300 201.400 13.400 201.300 13.300 201.300 H 10.400 C 10.345 201.300 10.300 201.345 10.300 201.400 V 207.400 C 10.300 207.455 10.345 207.500 10.400 207.500 H 13.300 C 13.400 207.500 13.300 207.400 13.300 207.500 V 213.300 C 13.300 213.400 13.400 213.300 13.300 213.300 H 10.400 C 10.345 213.300 10.300 213.345 10.300 213.400 V 219.400 C 10.300 219.455 10.345 219.500 10.400 219.500 H 13.300 C 13.400 219.500 13.300 219.400 13.300 219.500 V 225.300 C 13.300 225.400 13.400 225.300 13.300 225.300 H 10.400 C 10.345 225.300 10.300 225.345 10.300 225.400 V 231.400 C 10.300 231.455 10.345 231.500 10.400 231.500 H 13.300 C 13.400 231.500 13.300 231.400 13.300 231.500 V 237.300 C 13.300 237.400 13.400 237.300 13.300 237.300 H 10.400 C 10.345 237.300 10.300 237.345 10.300 237.400 V 243.400 C 10.300 243.455 10.345 243.500 10.400 243.500 H 13.400" stroke="rgb(0,0,0)" stroke-width="0.20"/>
</g>
<g id="p-5" style="fill:none;stroke-linecap:round;stroke-linejoin:round;">
  <path d="M 18.800 168.700 C 18.800 168.968 18.723 169.231 18.578 169.457 C 18.433 169.683 18.226 169.862 17.982 169.973 C 17.737 170.085 17.466 170.124 17.201 170.086 C 16.935 170.048 16.686 169.934 16.483 169.758 C 16.280 169.582 16.132 169.352 16.057 169.094 C 15.981 168.837 15.981 168.563 16.057 168.306 C 16.132 168.048 16.280 167.818 16.483 167.642 C 16.686 167.466 16.935 167.352 17.201 167.314 C 17.466 167.276 17.737 167.315 17.982 167.427 C 18.226 167.538 18.433 167.717 18.578 167.943 C 18.723 168.169 18.800 168.432 18.800 168.700 Z" stroke="rgb(0,0,255)" stroke-width="0.20"/>
  <text dominant-baseline="hanging" font-size="4px" style="font-family: sans-serif ; font-weight: normal; font-style: normal; fill: rgb(255,0,0)" text-anchor="middle" transform="matrix( 1.000 0.000 0.000 1.000 147.400 140.800 )">Bottom</text><path d="M 17.400 175.800 H 27.400 H 36.400 C 36.455 175.800 36.500 175.755 36.500 175.700 V 172.800 C 36.500 172.700 36.400 172.800 36.500 172.800 H 42.300 C 42.400 172.800 42.300 172.700 42.300 172.800 V 175.700 C 42.300 175.755 42.345 175.800 42.400 175.800 H 48.400 C 48.455 175.800 48.500 175.755 48.500 175.700 V 172.800 C 48.500 172.700 48.400 172.800 48.500 172.800 H 54.300 C 54.400 172.800 54.300 172.700 54.300 172.800 V 175.700 C 54.300 175.755 54.345 175.800 54.400 175.800 H 60.400 C 60.455 175.800 60.500 175.755 60.500 175.700 V 172.800 C 60.500 172.700 60.400 172.800 60.500 172.800 H 66.300 C 66.400 172.800 66.300 172.700 66.300 172.800 V 175.700 C 66.300 175.755 66.345 175.800 66.400 175.800 H 72.400 C 72.455 175.800 72.500 175.755 72.500 175.700 V 172.800 C 72.500 172.700 72.400 172.800 72.500 172.800 H 78.300 C 78.400 172.800 78.300 172.700 78.300 172.800 V 175.700 C 78.300 175.755 78.345 175.800 78.400 175.800 H 84.400 C 84.455 175.800 84.500 175.755 84.500 175.700 V 172.800 C 84.500 172.700 84.400 172.800 84.500 172.800 H 90.300 C 90.400 172.800 90.300 172.700 90.300 172.800 V 175.700 C 90.300 175.755 90.345 175.800 90.400 175.800 H 96.400 C 96.455 175.800 96.500 175.755 96.500 175.700 V 172.800 C 96.500 172.700 96.400 172.800 96.500 172.800 H 102.300 C 102.400 172.800 102.300 172.700 102.300 172.800 V 175.700 C 102.300 175.755 102.345 175.800 102.400 175.800 H 108.400 C 108.455 175.800 108.500 175.755 108.500 175.700 V 172.800 C 108.500 172.700 108.400 172.800 108.500 172.800 H 114.300 C 114.400 172.800 114.300 172.700 114.300 172.800 V 175.700 C 114.300 175.755 114.345 175.800 114.400 175.800 H 120.400 C 120.455 175.800 120.500 175.755 120.500 175.700 V 172.800 C 120.500 172.700 120.400 172.800 120.500 172.800 H 126.300 C 126.400 172.800 126.300 172.700 126.300 172.800 V 175.700 C 126.300 175.755 126.345 175.800 126.400 175.800 H 132.400 C 132.455 175.800 132.500 175.755 132.500 175.700 V 172.800 C 132.500 172.700 132.400 172.800 132.500 172.800 H 138.300 C 138.400 172.800 138.300 172.700 138.300 172.800 V 175.700 C 138.300 175.755 138.345 175.800 138.400 175.800 H 144.400 C 144.455 175.800 144.500 175.755 144.500 175.700 V 172.800 C 144.500 172.700 144.400 172.800 144.500 172.800 H 150.300 C 150.400 172.800 150.300 172.700 150.300 172.800 V 175.700 C 150.300 175.755 150.345 175.800 150.400 175.800 H 156.400 C 156.455 175.800 156.500 175.755 156.500 175.700 V 172.800 C 156.500 172.700 156.400 172.800 156.500 172.800 H 162.300 C 162.400 172.800 162.300 172.700 162.300 172.800 V 175.700 C 162.300 175.755 162.345 175.800 162.400 175.800 H 168.400 C 168.455 175.800 168.500 175.755 168.500 175.700 V 172.800 C 168.500 172.700 168.400 172.800 168.500 172.800 H 174.300 C 174.400 172.800 174.300 172.700 174.300 172.800 V 175.700 C 174.300 175.755 174.345 175.800 174.400 175.800 H 180.400 C 180.455 175.800 180.500 175.755 180.500 175.700 V 172.800 C 180.500 172.700 180.400 172.800 180.500 172.800 H 186.300 C 186.400 172.800 186.300 172.700 186.300 172.800 V 175.700 C 186.300 175.755 186.345 175.800 186.400 175.800 H 192.400 C 192.455 175.800 192.500 175.755 192.500 175.700 V 172.800 C 192.500 172.700 192.400 172.800 192.500 172.800 H 198.300 C 198.400 172.800 198.300 172.700 198.300 172.800 V 175.700 C 198.300 175.755 198.345 175.800 198.400 175.800 H 204.400 C 204.455 175.800 204.500 175.755 204.500 175.700 V 172.800 C 204.500 172.700 204.400 172.800 204.500 172.800 H 210.300 C 210.400 172.800 210.300 172.700 210.300 172.800 V 175.700 C 210.300 175.755 210.345 175.800 210.400 175.800 H 216.400 C 216.455 175.800 216.500 175.755 216.500 175.700 V 172.800 C 216.500 172.700 216.400 172.800 216.500 172.800 H 222.300 C 222.400 172.800 222.300 172.700 222.300 172.800 V 175.700 C 222.300 175.755 222.345 175.800 222.400 175.800 H 228.400 C 228.455 175.800 228.500 175.755 228.500 175.700 V 172.800 C 228.500 172.700 228.400 172.800 228.500 172.800 H 234.300 C 234.400 172.800 234.300 172.700 234.300 172.800 V 175.700 C 234.300 175.755 234.345 175.800 234.400 175.800 H 240.400 C 240.455 175.800 240.500 175.755 240.500 175.700 V 172.800 C 240.500 172.700 240.400 172.800 240.500 172.800 H 246.300 C 246.400 172.800 246.300 172.700 246.300 172.800 V 175.700 C 246.300 175.755 246.345 175.800 246.400 175.800 H 252.400 C 252.455 175.800 252.500 175.755 252.500 175.700 V 172.800 C 252.500 172.700 252.400 172.800 252.500 172.800 H 258.300 C 258.400 172.800 258.300 172.700 258.300 172.800 V 175.700 C 258.300 175.755 258.345 175.800 258.400 175.800 H 267.400 H 277.400 C 278.646 175.800 279.871 175.472 280.950 174.849 C 282.029 174.226 282.926 173.329 283.549 172.250 C 284.172 171.171 284.500 169.946 284.500 168.700 V 116.700 C 284.500 115.454 284.172 114.229 283.549 113.150 C 282.926 112.071 282.029 111.174 280.950 110.551 C 279.871 109.928 278.646 109.600 277.400 109.600 H 267.400 H 258.400 C 258.345 109.600 258.300 109.645 258.300 109.700 V 112.600 C 258.300 112.700 258.400 112.600 258.300 112.600 H 252.500 C 252.400 112.600 252.500 112.700 252.500 112.600 V 109.700 C 252.500 109.645 252.455 109.600 252.400 109.600 H 246.400 C 246.345 109.600 246.300 109.645 246.300 109.700 V 112.600 C 246.300 112.700 246.400 112.600 246.300 112.600 H 240.500 C 240.400 112.600 240.500 112.700 240.500 112.600 V 109.700 C 240.500 109.645 240.455 109.600 240.400 109.600 H 234.400 C 234.345 109.600 234.300 109.645 234.300 109.700 V 112.600 C 234.300 112.700 234.400 112.600 234.300 112.600 H 228.500 C 228.400 112.600 228.500 112.700 228.500 112.600 V 109.700 C 228.500 109.645 228.455 109.600 228.400 109.600 H 222.400 C 222.345 109.600 222.300 109.645 222.300 109.700 V 112.600 C 222.300 112.700 222.400 112.600 222.300 112.600 H 216.500 C 216.400 112.600 216.500 112.700 216.500 112.600 V 109.700 C 216.500 109.645 216.455 109.600 216.400 109.600 H 210.400 C 210.345 109.600 210.300 109.645 210.300 109.700 V 112.600 C 210.300 112.700 210.400 112.600 210.300 112.600 H 204.500 C 204.400 112.600 204.500 112.700 204.500 112.600 V 109.700 C 204.500 109.645 204.455 109.600 204.400 109.600 H 198.400 C 198.345 109.600 198.300 109.645 198.300 109.700 V 112.600 C 198.300 112.700 198.400 112.600 198.300 112.600 H 192.500 C 192.400 112.600 192.500 112.700 192.500 112.600 V 109.700 C 192.500 109.645 192.455 109.600 192.400 109.600 H 186.400 C 186.345 109.600 186.300 109.645 186.300 109.700 V 112.600 C 186.300 112.700 186.400 112.600 186.300 112.600 H 180.500 C 180.400 112.600 180.500 112.700 180.500 112.600 V 109.700 C 180.500 109.645 180.455 109.600 180.400 109.600 H 174.400 C 174.345 109.600 174.300 109.645 174.300 109.700 V 112.600 C 174.300 112.700 174.400 112.600 174.300 112.600 H 168.500 C 168.400 112.600 168.500 112.700 168.500 112.600 V 109.700 C 168.500 109.645 168.455 109.600 168.400 109.600 H 162.400 C 162.345 109.600 162.300 109.645 162.300 109.700 V 112.600 C 162.300 112.700 162.400 112.600 162.300 112.600 H 156.500 C 156.400 112.600 156.500 112.700 156.500 112.600 V 109.700 C 156.500 109.645 156.455 109.600 156.400 109.600 H 150.400 C 150.345 109.600 150.300 109.645 150.300 109.700 V 112.600 C 150.300 112.700 150.400 112.600 150.300 112.600 H 144.500 C 144.400 112.600 144.500 112.700 144.500 112.600 V 109.700 C 144.500 109.645 144.455 109.600 144.400 109.600 H 138.400 C 138.345 109.600 138.300 109.645 138.300 109.700 V 112.600 C 138.300 112.700 138.400 112.600 138.300 112.600 H 132.500 C 132.400 112.600 132.500 112.700 132.500 112.600 V 109.700 C 132.500 109.645 132.455 109.600 132.400 109.600 H 126.400 C 126.345 109.600 126.300 109.645 126.300 109.700 V 112.600 C 126.300 112.700 126.400 112.600 126.300 112.600 H 120.500 C 120.400 112.600 120.500 112.700 120.500 112.600 V 109.700 C 120.500 109.645 120.455 109.600 120.400 109.600 H 114.400 C 114.345 109.600 114.300 109.645 114.300 109.700 V 112.600 C 114.300 112.700 114.400 112.600 114.300 112.600 H 108.500 C 108.400 112.600 108.500 112.700 108.500 112.600 V 109.700 C 108.500 109.645 108.455 109.600 108.400 109.600 H 102.400 C 102.345 109.600 102.300 109.645 102.300 109.700 V 112.600 C 102.300 112.700 102.400 112.600 102.300 112.600 H 96.500 C 96.400 112.600 96.500 112.700 96.500 112.600 V 109.700 C 96.500 109.645 96.455 109.600 96.400 109.600 H 90.400 C 90.345 109.600 90.300 109.645 90.300 109.700 V 112.600 C 90.300 112.700 90.400 112.600 90.300 112.600 H 84.500 C 84.400 112.600 84.500 112.700 84.500 112.600 V 109.700 C 84.500 109.645 84.455 109.600 84.400 109.600 H 78.400 C 78.345 109.600 78.300 109.645 78.300 109.700 V 112.600 C 78.300 112.700 78.400 112.600 78.300 112.600 H 72.500 C 72.400 112.600 72.500 112.700 72.500 112.600 V 109.700 C 72.500 109.645 72.455 109.600 72.400 109.600 H 66.400 C 66.345 109.600 66.300 109.645 66.300 109.700 V 112.600 C 66.300 112.700 66.400 112.600 66.300 112.600 H 60.500 C 60.400 112.600 60.500 112.700 60.500 112.600 V 109.700 C 60.500 109.645 60.455 109.600 60.400 109.600 H 54.400 C 54.345 109.600 54.300 109.645 54.300 109.700 V 112.600 C 54.300 112.700 54.400 112.600 54.300 112.600 H 48.500 C 48.400 112.600 48.500 112.700 48.500 112.600 V 109.700 C 48.500 109.645 48.455 109.600 48.400 109.600 H 42.400 C 42.345 109.600 42.300 109.645 42.300 109.700 V 112.600 C 42.300 112.700 42.400 112.600 42.300 112.600 H 36.500 C 36.400 112.600 36.500 112.700 36.500 112.600 V 109.700 C 36.500 109.645 36.455 109.600 36.400 109.600 H 27.400 H 17.400 C 16.154 109.600 14.929 109.928 13.850 110.551 C 12.771 111.174 11.874 112.071 11.251 113.150 C 10.628 114.229 10.300 115.454 10.300 116.700 V 168.700 C 10.300 169.946 10.628 171.171 11.251 172.250 C 11.874 173.329 12.771 174.226 13.850 174.849 C 14.929 175.472 16.154 175.800 17.400 175.800" stroke="rgb(0,0,0)" stroke-width="0.20"/>
  <path d="M 277.400 167.300 C 277.668 167.300 277.931 167.377 278.157 167.522 C 278.383 167.667 278.562 167.874 278.673 168.118 C 278.785 168.363 278.824 168.634 278.786 168.899 C 278.748 169.165 278.634 169.414 278.458 169.617 C 278.282 169.820 278.052 169.968 277.794 170.043 C 277.537 170.119 277.263 170.119 277.006 170.043 C 276.748 169.968 276.518 169.820 276.342 169.617 C 276.166 169.414 276.052 169.165 276.014 168.899 C 275.976 168.634 276.015 168.363 276.127 168.118 C 276.238 167.874 276.417 167.667 276.643 167.522 C 276.869 167.377 277.132 167.300 277.400 167.300 Z" stroke="rgb(0,0,255)" stroke-width="0.20"/>
  <path d="M 270.400 160.700 V 163.600 C 270.400 163.700 270.500 163.600 270.400 163.600 H 267.600 C 267.500 163.600 267.600 163.700 267.600 163.600 V 157.800 C 267.600 157.700 267.500 157.800 267.600 157.800 H 270.400 C 270.500 157.800 270.400 157.700 270.400 157.800 V 160.700 Z" stroke="rgb(0,0,255)" stroke-width="0.20"/>
  <path d="M 270.400 148.700 V 151.600 C 270.400 151.700 270.500 151.600 270.400 151.600 H 267.600 C 267.500 151.600 267.600 151.700 267.600 151.600 V 145.800 C 267.600 145.700 267.500 145.800 267.600 145.800 H 270.400 C 270.500 145.800 270.400 145.700 270.400 145.800 V 148.700 Z" stroke="rgb(0,0,255)" stroke-width="0.20"/>
  <path d="M 270.400 136.700 V 139.600 C 270.400 139.700 270.500 139.600 270.400 139.600 H 267.600 C 267.500 139.600 267.600 139.700 267.600 139.600 V 133.800 C 267.600 133.700 267.500 133.800 267.600 133.800 H 270.400 C 270.500 133.800 270.400 133.700 270.400 133.800 V 136.700 Z" stroke="rgb(0,0,255)" stroke-width="0.20"/>
  <path d="M 270.400 124.700 V 127.600 C 270.400 127.700 270.500 127.600 270.400 127.600 H 267.600 C 267.500 127.600 267.600 127.700 267.600 127.600 V 121.800 C 267.600 121.700 267.500 121.800 267.600 121.800 H 270.400 C 270.500 121.800 270.400 121.700 270.400 121.800 V 124.700 Z" stroke="rgb(0,0,255)" stroke-width="0.20"/>
  <path d="M 276.000 116.700 C 276.000 116.432 276.077 116.169 276.222 115.943 C 276.367 115.717 276.574 115.538 276.818 115.427 C 277.063 115.315 277.334 115.276 277.599 115.314 C 277.865 115.352 278.114 115.466 278.317 115.642 C 278.520 115.818 278.668 116.048 278.743 116.306 C 278.819 116.563 278.819 116.837 278.743 117.094 C 278.668 117.352 278.520 117.582 278.317 117.758 C 278.114 117.934 277.865 118.048 277.599 118.086 C 277.334 118.124 277.063 118.085 276.818 117.973 C 276.574 117.862 276.367 117.683 276.222 117.457 C 276.077 117.231 276.000 116.968 276.000 116.700 Z" stroke="rgb(0,0,255)" stroke-width="0.20"/>
  <path d="M 17.400 118.100 C 17.132 118.100 16.869 118.023 16.643 117.878 C 16.417 117.733 16.238 117.526 16.127 117.282 C 16.015 117.037 15.976 116.766 16.014 116.501 C 16.052 116.235 16.166 115.986 16.342 115.783 C 16.518 115.580 16.748 115.432 17.006 115.357 C 17.263 115.281 17.537 115.281 17.794 115.357 C 18.052 115.432 18.282 115.580 18.458 115.783 C 18.634 115.986 18.748 116.235 18.786 116.501 C 18.824 116.766 18.785 117.037 18.673 117.282 C 18.562 117.526 18.383 117.733 18.157 117.878 C 17.931 118.023 17.668 118.100 17.400 118.100 Z" stroke="rgb(0,0,255)" stroke-width="0.20"/>
  <path d="M 24.400 124.700 V 121.800 C 24.400 121.700 24.300 121.800 24.400 121.800 H 27.200 C 27.300 121.800 27.200 121.700 27.200 121.800 V 127.600 C 27.200 127.700 27.300 127.600 27.200 127.600 H 24.400 C 24.300 127.600 24.400 127.700 24.400 127.600 V 124.700 Z" stroke="rgb(0,0,255)" stroke-width="0.20"/>
  <path d="M 24.400 136.700 V 133.800 C 24.400 133.700 24.300 133.800 24.400 133.800 H 27.200 C 27.300 133.800 27.200 133.700 27.200 133.800 V 139.600 C 27.200 139.700 27.300 139.600 27.200 139.600 H 24.400 C 24.300 139.600 24.400 139.700 24.400 139.600 V 136.700 Z" stroke="rgb(0,0,255)" stroke-width="0.20"/>
  <path d="M 24.400 148.700 V 145.800 C 24.400 145.700 24.300 145.800 24.400 145.800 H 27.200 C 27.300 145.800 27.200 145.700 27.200 145.800 V 151.600 C 27.200 151.700 27.300 151.600 27.200 151.600 H 24.400 C 24.300 151.600 24.400 151.700 24.400 151.600 V 148.700 Z" stroke="rgb(0,0,255)" stroke-width="0.20"/>
  <path d="M 24.400 160.700 V 157.800 C 24.400 157.700 24.300 157.800 24.400 157.800 H 27.200 C 27.300 157.800 27.200 157.700 27.200 157.800 V 163.600 C 27.200 163.700 27.300 163.600 27.200 163.600 H 24.400 C 24.300 163.600 24.400 163.700 24.400 163.600 V 160.700 Z" stroke="rgb(0,0,255)" stroke-width="0.20"/>
</g>
<g id="p-6" style="fill:none;stroke-linecap:round;stroke-linejoin:round;">
  <path d="M 21.800 98.000 C 21.800 98.268 21.723 98.531 21.578 98.757 C 21.433 98.983 21.226 99.162 20.982 99.273 C 20.737 99.385 20.466 99.424 20.201 99.386 C 19.935 99.348 19.686 99.234 19.483 99.058 C 19.280 98.882 19.132 98.652 19.057 98.394 C 18.981 98.137 18.981 97.863 19.057 97.606 C 19.132 97.348 19.280 97.118 19.483 96.942 C 19.686 96.766 19.935 96.652 20.201 96.614 C 20.466 96.576 20.737 96.615 20.982 96.727 C 21.226 96.838 21.433 97.017 21.578 97.243 C 21.723 97.469 21.800 97.732 21.800 98.000 Z" stroke="rgb(0,0,255)" stroke-width="0.20"/>
  <text dominant-baseline="hanging" font-size="4px" style="font-family: sans-serif ; font-weight: normal; font-style: normal; fill: rgb(255,0,0)" text-anchor="middle" transform="matrix( 1.000 0.000 0.000 1.000 130.400 76.100 )">Top</text><path d="M 10.400 108.100 H 250.400 C 250.455 108.100 250.500 108.055 250.500 108.000 V 48.000 C 250.500 47.945 250.455 47.900 250.400 47.900 H 10.400 C 10.345 47.900 10.300 47.945 10.300 48.000 V 108.000 C 10.300 108.055 10.345 108.100 10.400 108.100" stroke="rgb(0,0,0)" stroke-width="0.20"/>
  <path d="M 240.400 96.600 C 240.668 96.600 240.931 96.677 241.157 96.822 C 241.383 96.967 241.562 97.174 241.673 97.418 C 241.785 97.663 241.824 97.934 241.786 98.199 C 241.748 98.465 241.634 98.714 241.458 98.917 C 241.282 99.120 241.052 99.268 240.794 99.343 C 240.537 99.419 240.263 99.419 240.006 99.343 C 239.748 99.268 239.518 99.120 239.342 98.917 C 239.166 98.714 239.052 98.465 239.014 98.199 C 238.976 97.934 239.015 97.663 239.127 97.418 C 239.238 97.174 239.417 96.967 239.643 96.822 C 239.869 96.677 240.132 96.600 240.400 96.600 Z" stroke="rgb(0,0,255)" stroke-width="0.20"/>
  <path d="M 239.000 58.000 C 239.000 57.732 239.077 57.469 239.222 57.243 C 239.367 57.017 239.574 56.838 239.818 56.727 C 240.063 56.615 240.334 56.576 240.599 56.614 C 240.865 56.652 241.114 56.766 241.317 56.942 C 241.520 57.118 241.668 57.348 241.743 57.606 C 241.819 57.863 241.819 58.137 241.743 58.394 C 241.668 58.652 241.520 58.882 241.317 59.058 C 241.114 59.234 240.865 59.348 240.599 59.386 C 240.334 59.424 240.063 59.385 239.818 59.273 C 239.574 59.162 239.367 58.983 239.222 58.757 C 239.077 58.531 239.000 58.268 239.000 58.000 Z" stroke="rgb(0,0,255)" stroke-width="0.20"/>
  <path d="M 20.400 59.400 C 20.132 59.400 19.869 59.323 19.643 59.178 C 19.417 59.033 19.238 58.826 19.127 58.582 C 19.015 58.337 18.976 58.066 19.014 57.801 C 19.052 57.535 19.166 57.286 19.342 57.083 C 19.518 56.880 19.748 56.732 20.006 56.657 C 20.263 56.581 20.537 56.581 20.794 56.657 C 21.052 56.732 21.282 56.880 21.458 57.083 C 21.634 57.286 21.748 57.535 21.786 57.801 C 21.824 58.066 21.785 58.337 21.673 58.582 C 21.562 58.826 21.383 59.033 21.157 59.178 C 20.931 59.323 20.668 59.400 20.400 59.400 Z" stroke="rgb(0,0,255)" stroke-width="0.20"/>
</g>
<g id="p-7" style="fill:none;stroke-linecap:round;stroke-linejoin:round;">
  <path d="M 18.208 43.400 H 24.108 C 24.208 43.400 24.108 43.300 24.108 43.400 V 46.300 C 24.108 46.355 24.153 46.400 24.208 46.400 H 30.208 C 30.264 46.400 30.308 46.355 30.308 46.300 V 43.400 C 30.308 43.300 30.208 43.400 30.308 43.400 H 36.108 C 36.208 43.400 36.108 43.300 36.108 43.400 V 46.300 C 36.108 46.355 36.153 46.400 36.208 46.400 H 42.208 C 42.264 46.400 42.308 46.355 42.308 46.300 V 43.400 C 42.308 43.300 42.208 43.400 42.308 43.400 H 48.208 C 48.264 43.400 48.308 43.355 48.308 43.300 V 37.400 C 48.308 37.300 48.208 37.400 48.308 37.400 H 51.208 C 51.264 37.400 51.308 37.355 51.308 37.300 V 31.300 C 51.308 31.245 51.264 31.200 51.208 31.200 H 48.308 C 48.208 31.200 48.308 31.300 48.308 31.200 V 25.400 C 48.308 25.300 48.208 25.400 48.308 25.400 H 51.208 C 51.264 25.400 51.308 25.355 51.308 25.300 V 19.300 C 51.308 19.245 51.264 19.200 51.208 19.200 H 48.308 C 48.208 19.200 48.308 19.300 48.308 19.200 V 13.300 C 48.308 13.245 48.264 13.200 48.208 13.200 C 48.182 13.200 48.156 13.211 48.138 13.229 L 18.138 43.229 C 18.119 43.248 18.108 43.273 18.108 43.300 C 18.108 43.355 18.153 43.400 18.208 43.400 Z" stroke="rgb(0,0,0)" stroke-width="0.20"/>
  <path d="M 38.208 32.400 C 38.381 32.400 38.550 32.450 38.695 32.543 C 38.840 32.636 38.955 32.769 39.027 32.926 C 39.099 33.083 39.124 33.257 39.099 33.428 C 39.075 33.599 39.001 33.759 38.889 33.889 C 38.776 34.020 38.627 34.115 38.462 34.164 C 38.296 34.212 38.120 34.212 37.955 34.164 C 37.789 34.115 37.641 34.020 37.528 33.889 C 37.415 33.759 37.342 33.599 37.317 33.428 C 37.293 33.257 37.318 33.083 37.390 32.926 C 37.461 32.769 37.577 32.636 37.722 32.543 C 37.867 32.450 38.036 32.400 38.208 32.400 Z" stroke="rgb(0,0,255)" stroke-width="0.20"/>
  <path d="M 43.400 13.000 H 37.500 C 37.400 13.000 37.500 13.100 37.500 13.000 V 10.100 C 37.500 10.045 37.455 10.000 37.400 10.000 H 31.400 C 31.345 10.000 31.300 10.045 31.300 10.100 V 13.000 C 31.300 13.100 31.400 13.000 31.300 13.000 H 25.500 C 25.400 13.000 25.500 13.100 25.500 13.000 V 10.100 C 25.500 10.045 25.455 10.000 25.400 10.000 H 19.400 C 19.345 10.000 19.300 10.045 19.300 10.100 V 13.000 C 19.300 13.100 19.400 13.000 19.300 13.000 H 13.400 C 13.345 13.000 13.300 13.045 13.300 13.100 V 19.000 C 13.300 19.100 13.400 19.000 13.300 19.000 H 10.400 C 10.345 19.000 10.300 19.045 10.300 19.100 V 25.100 C 10.300 25.155 10.345 25.200 10.400 25.200 H 13.300 C 13.400 25.200 13.300 25.100 13.300 25.200 V 31.000 C 13.300 31.100 13.400 31.000 13.300 31.000 H 10.400 C 10.345 31.000 10.300 31.045 10.300 31.100 V 37.100 C 10.300 37.155 10.345 37.200 10.400 37.200 H 13.300 C 13.400 37.200 13.300 37.100 13.300 37.200 V 43.100 C 13.300 43.155 13.345 43.200 13.400 43.200 C 13.427 43.200 13.452 43.189 13.471 43.171 L 43.471 13.171 C 43.489 13.152 43.500 13.127 43.500 13.100 C 43.500 13.045 43.455 13.000 43.400 13.000 Z" stroke="rgb(0,0,0)" stroke-width="0.20"/>
  <path d="M 23.400 24.000 C 23.227 24.000 23.059 23.950 22.913 23.857 C 22.768 23.764 22.653 23.631 22.581 23.474 C 22.510 23.317 22.485 23.143 22.509 22.972 C 22.534 22.801 22.607 22.641 22.720 22.511 C 22.833 22.380 22.981 22.285 23.146 22.236 C 23.312 22.188 23.488 22.188 23.654 22.236 C 23.819 22.285 23.967 22.380 24.080 22.511 C 24.193 22.641 24.266 22.801 24.291 22.972 C 24.315 23.143 24.290 23.317 24.219 23.474 C 24.147 23.631 24.032 23.764 23.887 23.857 C 23.741 23.950 23.573 24.000 23.400 24.000 Z" stroke="rgb(0,0,255)" stroke-width="0.20"/>
  <path d="M 60.717 43.400 H 66.617 C 66.717 43.400 66.617 43.300 66.617 43.400 V 46.300 C 66.617 46.355 66.661 46.400 66.717 46.400 H 72.717 C 72.772 46.400 72.817 46.355 72.817 46.300 V 43.400 C 72.817 43.300 72.717 43.400 72.817 43.400 H 78.617 C 78.717 43.400 78.617 43.300 78.617 43.400 V 46.300 C 78.617 46.355 78.661 46.400 78.717 46.400 H 84.717 C 84.772 46.400 84.817 46.355 84.817 46.300 V 43.400 C 84.817 43.300 84.717 43.400 84.817 43.400 H 90.717 C 90.772 43.400 90.817 43.355 90.817 43.300 V 37.400 C 90.817 37.300 90.717 37.400 90.817 37.400 H 93.717 C 93.772 37.400 93.817 37.355 93.817 37.300 V 31.300 C 93.817 31.245 93.772 31.200 93.717 31.200 H 90.817 C 90.717 31.200 90.817 31.300 90.817 31.200 V 25.400 C 90.817 25.300 90.717 25.400 90.817 25.400 H 93.717 C 93.772 25.400 93.817 25.355 93.817 25.300 V 19.300 C 93.817 19.245 93.772 19.200 93.717 19.200 H 90.817 C 90.717 19.200 90.817 19.300 90.817 19.200 V 13.300 C 90.817 13.245 90.772 13.200 90.717 13.200 C 90.690 13.200 90.665 13.211 90.646 13.229 L 60.646 43.229 C 60.627 43.248 60.617 43.273 60.617 43.300 C 60.617 43.355 60.661 43.400 60.717 43.400 Z" stroke="rgb(0,0,0)" stroke-width="0.20"/>
  <path d="M 80.717 32.400 C 80.889 32.400 81.058 32.450 81.203 32.543 C 81.348 32.636 81.464 32.769 81.535 32.926 C 81.607 33.083 81.632 33.257 81.607 33.428 C 81.583 33.599 81.510 33.759 81.397 33.889 C 81.284 34.020 81.136 34.115 80.970 34.164 C 80.805 34.212 80.629 34.212 80.463 34.164 C 80.298 34.115 80.149 34.020 80.036 33.889 C 79.923 33.759 79.850 33.599 79.826 33.428 C 79.801 33.257 79.826 33.083 79.898 32.926 C 79.970 32.769 80.085 32.636 80.230 32.543 C 80.375 32.450 80.544 32.400 80.717 32.400 Z" stroke="rgb(0,0,255)" stroke-width="0.20"/>
  <path d="M 85.908 13.000 H 80.008 C 79.908 13.000 80.008 13.100 80.008 13.000 V 10.100 C 80.008 10.045 79.964 10.000 79.908 10.000 H 73.908 C 73.853 10.000 73.808 10.045 73.808 10.100 V 13.000 C 73.808 13.100 73.908 13.000 73.808 13.000 H 68.008 C 67.908 13.000 68.008 13.100 68.008 13.000 V 10.100 C 68.008 10.045 67.964 10.000 67.908 10.000 H 61.908 C 61.853 10.000 61.808 10.045 61.808 10.100 V 13.000 C 61.808 13.100 61.908 13.000 61.808 13.000 H 55.908 C 55.853 13.000 55.808 13.045 55.808 13.100 V 19.000 C 55.808 19.100 55.908 19.000 55.808 19.000 H 52.908 C 52.853 19.000 52.808 19.045 52.808 19.100 V 25.100 C 52.808 25.155 52.853 25.200 52.908 25.200 H 55.808 C 55.908 25.200 55.808 25.100 55.808 25.200 V 31.000 C 55.808 31.100 55.908 31.000 55.808 31.000 H 52.908 C 52.853 31.000 52.808 31.045 52.808 31.100 V 37.100 C 52.808 37.155 52.853 37.200 52.908 37.200 H 55.808 C 55.908 37.200 55.808 37.100 55.808 37.200 V 43.100 C 55.808 43.155 55.853 43.200 55.908 43.200 C 55.935 43.200 55.960 43.189 55.979 43.171 L 85.979 13.171 C 85.998 13.152 86.008 13.127 86.008 13.100 C 86.008 13.045 85.964 13.000 85.908 13.000 Z" stroke="rgb(0,0,0)" stroke-width="0.20"/>
  <path d="M 65.908 24.000 C 65.736 24.000 65.567 23.950 65.422 23.857 C 65.277 23.764 65.161 23.631 65.090 23.474 C 65.018 23.317 64.993 23.143 65.017 22.972 C 65.042 22.801 65.115 22.641 65.228 22.511 C 65.341 22.380 65.489 22.285 65.655 22.236 C 65.820 22.188 65.996 22.188 66.162 22.236 C 66.327 22.285 66.476 22.380 66.589 22.511 C 66.701 22.641 66.775 22.801 66.799 22.972 C 66.824 23.143 66.799 23.317 66.727 23.474 C 66.655 23.631 66.540 23.764 66.395 23.857 C 66.250 23.950 66.081 24.000 65.908 24.000 Z" stroke="rgb(0,0,255)" stroke-width="0.20"/>
</g>
</svg>