<?xml version="1.0" encoding="UTF-8" standalone="no"?>
<svg
   width="210mm"
   height="297mm"
   viewBox="0 0 210 297"
   version="1.1"
   id="svg8"
   inkscape:version="1.2 (1:1.2+202206011327+fc4e4096c5)"
   sodipodi:docname="seitenplatte_path.svg"
   xmlns:inkscape="http://www.inkscape.org/namespaces/inkscape"
   xmlns:sodipodi="http://sodipodi.sourceforge.net/DTD/sodipodi-0.dtd"
   xmlns="http://www.w3.org/2000/svg"
   xmlns:svg="http://www.w3.org/2000/svg"
   xmlns:rdf="http://www.w3.org/1999/02/22-rdf-syntax-ns#"
   xmlns:cc="http://creativecommons.org/ns#"
   xmlns:dc="http://purl.org/dc/elements/1.1/">
  <defs
     id="defs2">
    <rect
       x="169.42461"
       y="78.263643"
       width="17.139115"
       height="12.072837"
       id="rect877" />
  </defs>
  <sodipodi:namedview
     id="base"
     pagecolor="#ffffff"
     bordercolor="#666666"
     borderopacity="1.0"
     inkscape:pageopacity="0.0"
     inkscape:pageshadow="2"
     inkscape:zoom="0.94386488"
     inkscape:cx="583.77"
     inkscape:cy="915.915"
     inkscape:document-units="mm"
     inkscape:current-layer="layer1"
     inkscape:document-rotation="0"
     showgrid="false"
     inkscape:window-width="1366"
     inkscape:window-height="703"
     inkscape:window-x="0"
     inkscape:window-y="0"
     inkscape:window-maximized="1"
     inkscape:snap-others="false"
     inkscape:snap-nodes="false"
     inkscape:snap-bbox="true"
     inkscape:bbox-paths="true"
     inkscape:bbox-nodes="true"
     inkscape:pagecheckerboard="0"
     inkscape:snap-global="false"
     inkscape:showpageshadow="2"
     inkscape:deskcolor="#d1d1d1" />
  <metadata
     id="metadata5">
    <rdf:RDF>
      <cc:Work
         rdf:about="">
        <dc:format>image/svg+xml</dc:format>
        <dc:type
           rdf:resource="http://purl.org/dc/dcmitype/StillImage" />
      </cc:Work>
    </rdf:RDF>
  </metadata>
  <g
     inkscape:label="Layer 1"
     inkscape:groupmode="layer"
     id="layer1">
    <g
       id="g362">
      <text
         xml:space="preserve"
         id="text875"
         style="font-style:normal;font-weight:normal;font-size:10.5833px;line-height:1.25;font-family:sans-serif;white-space:pre;shape-inside:url(#rect877);display:inline;fill:#000000;fill-opacity:1;stroke:none" />
      <g
         id="g837"
         style="opacity:0.5104202">
        <path
           d="m 10.87353,254.40199 h 8.9 c 0.1,0 0,-0.1 0,0 v 2.9 c 0,0.055 0.045,0.1 0.1,0.1 h 6 c 0.055,0 0.1,-0.045 0.1,-0.1 v -2.9 c 0,-0.1 -0.1,0 0,0 h 5.8 c 0.1,0 0,-0.1 0,0 v 2.9 c 0,0.055 0.045,0.1 0.1,0.1 h 6 c 0.055,0 0.1,-0.045 0.1,-0.1 v -2.9 c 0,-0.1 -0.1,0 0,0 h 5.8 c 0.1,0 0,-0.1 0,0 v 2.9 c 0,0.055 0.045,0.1 0.1,0.1 h 6 c 0.055,0 0.1,-0.045 0.1,-0.1 v -2.9 c 0,-0.1 -0.1,0 0,0 h 5.8 c 0.1,0 0,-0.1 0,0 v 2.9 c 0,0.055 0.045,0.1 0.1,0.1 h 6 c 0.055,0 0.1,-0.045 0.1,-0.1 v -2.9 c 0,-0.1 -0.1,0 0,0 h 5.8 c 0.1,0 0,-0.1 0,0 v 2.9 c 0,0.055 0.045,0.1 0.1,0.1 h 6 c 0.055,0 0.1,-0.045 0.1,-0.1 v -2.9 c 0,-0.1 -0.1,0 0,0 h 5.8 c 0.1,0 0,-0.1 0,0 v 2.9 c 0,0.055 0.045,0.1 0.1,0.1 h 6 c 0.055,0 0.1,-0.045 0.1,-0.1 v -2.9 c 0,-0.1 -0.1,0 0,0 h 5.8 c 0.1,0 0,-0.1 0,0 v 2.9 c 0,0.055 0.045,0.1 0.1,0.1 h 6 c 0.055,0 0.1,-0.045 0.1,-0.1 v -2.9 c 0,-0.1 -0.1,0 0,0 h 5.8 c 0.1,0 0,-0.1 0,0 v 2.9 c 0,0.055 0.045,0.1 0.1,0.1 h 6 c 0.055,0 0.1,-0.045 0.1,-0.1 v -2.9 c 0,-0.1 -0.1,0 0,0 h 5.8 c 0.1,0 0,-0.1 0,0 v 2.9 c 0,0.055 0.045,0.1 0.1,0.1 h 6 c 0.055,0 0.1,-0.045 0.1,-0.1 v -2.9 c 0,-0.1 -0.1,0 0,0 h 5.8 c 0.1,0 0,-0.1 0,0 v 2.9 c 0,0.055 0.045,0.1 0.1,0.1 h 6 c 0.055,0 0.1,-0.045 0.1,-0.1 v -2.9 c 0,-0.1 -0.1,0 0,0 h 5.8 c 0.1,0 0,-0.1 0,0 v 2.9 c 0,0.055 0.045,0.1 0.1,0.1 h 6 c 0.055,0 0.1,-0.045 0.1,-0.1 v -2.9 c 0,-0.1 -0.1,0 0,0 h 5.8 c 0.1,0 0,-0.1 0,0 v 2.9 c 0,0.055 0.045,0.1 0.1,0.1 h 6 c 0.055,0 0.1,-0.045 0.1,-0.1 v -2.9 c 0,-0.1 -0.1,0 0,0 h 5.8 c 0.1,0 0,-0.1 0,0 v 2.9 c 0,0.055 0.045,0.1 0.1,0.1 h 6 c 0.055,0 0.1,-0.045 0.1,-0.1 v -2.9 c 0,-0.1 -0.1,0 0,0 h 5.8 c 0.1,0 0,-0.1 0,0 v 2.9 c 0,0.055 0.045,0.1 0.1,0.1 h 6 c 0.055,0 0.1,-0.045 0.1,-0.1 v -2.9 c 0,-0.1 -0.1,0 0,0 h 5.8 c 0.1,0 0,-0.1 0,0 v 2.9 c 0,0.055 0.045,0.1 0.1,0.1 h 6 c 0.055,0 0.1,-0.045 0.1,-0.1 v -2.9 c 0,-0.1 -0.1,0 0,0 h 5.8 c 0.1,0 0,-0.1 0,0 v 2.9 c 0,0.055 0.045,0.1 0.1,0.1 h 6 c 0.055,0 0.1,-0.045 0.1,-0.1 v -2.9 c 0,-0.1 -0.1,0 0,0 h 5.8 c 0.1,0 0,-0.1 0,0 v 2.9 c 0,0.055 0.045,0.1 0.1,0.1 h 6 c 0.055,0 0.1,-0.045 0.1,-0.1 v -2.9 c 0,-0.1 -0.1,0 0,0 h 5.8 c 0.1,0 0,-0.1 0,0 v 2.9 c 0,0.055 0.045,0.1 0.1,0.1 h 6 c 0.055,0 0.1,-0.045 0.1,-0.1 v -2.9 c 0,-0.1 -0.1,0 0,0 h 5.8 c 0.1,0 0,-0.1 0,0 v 2.9 c 0,0.055 0.045,0.1 0.1,0.1 h 6 c 0.055,0 0.1,-0.045 0.1,-0.1 v -2.9 c 0,-0.1 -0.1,0 0,0 h 8.9 3 c 0.055,0 0.1,-0.045 0.1,-0.1 v -6 c 0,-0.055 -0.045,-0.1 -0.1,-0.1 h -2.9 c -0.1,0 0,0.1 0,0 v -5.8 c 0,-0.1 -0.1,0 0,0 h 2.9 c 0.055,0 0.1,-0.045 0.1,-0.1 v -6 c 0,-0.055 -0.045,-0.1 -0.1,-0.1 h -2.9 c -0.1,0 0,0.1 0,0 v -5.8 c 0,-0.1 -0.1,0 0,0 h 2.9 c 0.055,0 0.1,-0.045 0.1,-0.1 v -6 c 0,-0.055 -0.045,-0.1 -0.1,-0.1 h -2.9 c -0.1,0 0,0.1 0,0 v -5.8 c 0,-0.1 -0.1,0 0,0 h 2.9 c 0.055,0 0.1,-0.045 0.1,-0.1 v -6 c 0,-0.055 -0.045,-0.1 -0.1,-0.1 h -2.9 c -0.1,0 0,0.1 0,0 v -5.8 c 0,-0.1 -0.1,0 0,0 h 2.9 c 0.055,0 0.1,-0.045 0.1,-0.1 v -6 c 0,-0.055 -0.045,-0.1 -0.1,-0.1 h -2.9 c -0.1,0 0,0.1 0,0 v -5.8 c 0,-0.1 -0.1,0 0,0 h 2.9 c 0.055,0 0.1,-0.045 0.1,-0.1 v -6 c 0,-0.055 -0.045,-0.1 -0.1,-0.1 h -3 -240 -3.0000001 c -0.055,0 -0.1,0.045 -0.1,0.1 v 6 c 0,0.055 0.045,0.1 0.1,0.1 H 10.77353 c 0.1,0 0,-0.1 0,0 v 5.8 c 0,0.1 0.1,0 0,0 H 7.8735299 c -0.055,0 -0.1,0.045 -0.1,0.1 v 6 c 0,0.055 0.045,0.1 0.1,0.1 H 10.77353 c 0.1,0 0,-0.1 0,0 v 5.8 c 0,0.1 0.1,0 0,0 H 7.8735299 c -0.055,0 -0.1,0.045 -0.1,0.1 v 6 c 0,0.055 0.045,0.1 0.1,0.1 H 10.77353 c 0.1,0 0,-0.1 0,0 v 5.8 c 0,0.1 0.1,0 0,0 H 7.8735299 c -0.055,0 -0.1,0.045 -0.1,0.1 v 6 c 0,0.055 0.045,0.1 0.1,0.1 H 10.77353 c 0.1,0 0,-0.1 0,0 v 5.8 c 0,0.1 0.1,0 0,0 H 7.8735299 c -0.055,0 -0.1,0.045 -0.1,0.1 v 6 c 0,0.055 0.045,0.1 0.1,0.1 H 10.77353 c 0.1,0 0,-0.1 0,0 v 5.8 c 0,0.1 0.1,0 0,0 H 7.8735299 c -0.055,0 -0.1,0.045 -0.1,0.1 v 6 c 0,0.055 0.045,0.1 0.1,0.1 H 10.87353"
           stroke="#000000"
           stroke-width="0.2"
           id="path60"
           style="fill:#000000;stroke-linecap:round;stroke-linejoin:round" />
        <path
           d="m 241.87353,191.40199 h 2.9 c 0.1,0 0,-0.1 0,0 v 2.8 c 0,0.1 0.1,0 0,0 h -5.8 c -0.1,0 0,0.1 0,0 v -2.8 c 0,-0.1 -0.1,0 0,0 z"
           stroke="#0000ff"
           stroke-width="0.2"
           id="path54"
           style="fill:#0000ff;stroke-linecap:round;stroke-linejoin:round" />
        <path
           d="m 229.87353,191.40199 h 2.9 c 0.1,0 0,-0.1 0,0 v 2.8 c 0,0.1 0.1,0 0,0 h -5.8 c -0.1,0 0,0.1 0,0 v -2.8 c 0,-0.1 -0.1,0 0,0 z"
           stroke="#0000ff"
           stroke-width="0.2"
           id="path56"
           style="fill:#0000ff;stroke-linecap:round;stroke-linejoin:round" />
        <path
           d="m 19.87353,194.20199 h -2.9 c -0.1,0 0,0.1 0,0 v -2.8 c 0,-0.1 -0.1,0 0,0 h 5.8 c 0.1,0 0,-0.1 0,0 v 2.8 c 0,0.1 0.1,0 0,0 z"
           stroke="#0000ff"
           stroke-width="0.2"
           id="path50"
           style="fill:#0000ff;stroke-linecap:round;stroke-linejoin:round" />
        <path
           d="m 31.87353,194.20199 h -2.9 c -0.1,0 0,0.1 0,0 v -2.8 c 0,-0.1 -0.1,0 0,0 h 5.8 c 0.1,0 0,-0.1 0,0 v 2.8 c 0,0.1 0.1,0 0,0 z"
           stroke="#0000ff"
           stroke-width="0.2"
           id="path52"
           style="fill:#0000ff;stroke-linecap:round;stroke-linejoin:round" />
      </g>
      <g
         id="g336">
        <rect
           style="opacity:0.483699;fill:#0000ff;stroke-width:0.296463"
           id="rect1023-5-7-3"
           width="8.5"
           height="22.5"
           x="237.22926"
           y="-203.3008"
           transform="rotate(90)" />
        <text
           xml:space="preserve"
           style="font-style:italic;font-size:3.97726px;line-height:1.25;font-family:DINCondensed;-inkscape-font-specification:'DINCondensed Italic';stroke-width:0.0994317"
           x="173.31375"
           y="230.14931"
           id="text1680"><tspan
             sodipodi:role="line"
             id="tspan1678"
             style="font-style:italic;font-variant:normal;font-weight:normal;font-stretch:normal;font-family:OCRABold;-inkscape-font-specification:'OCRABold Italic';stroke-width:0.0994317"
             x="173.31375"
             y="230.14931">GND VNC H1 H2</tspan></text>
      </g>
      <g
         id="g411"
         transform="translate(34.204203,-1.0583333)">
        <rect
           style="opacity:0.483699;fill:#0000ff;stroke-width:0.371305"
           id="rect1023-5-7-3-3"
           width="10"
           height="30"
           x="242.50198"
           y="-111.66933"
           transform="rotate(90)" />
        <text
           xml:space="preserve"
           style="font-style:italic;font-size:5.81717px;line-height:1.25;font-family:DINCondensed;-inkscape-font-specification:'DINCondensed Italic';stroke-width:0.14543"
           x="90.213631"
           y="235.72771"
           id="text1680-5"><tspan
             sodipodi:role="line"
             id="tspan1678-6"
             style="font-style:italic;font-variant:normal;font-weight:normal;font-stretch:normal;font-family:OCRABold;-inkscape-font-specification:'OCRABold Italic';stroke-width:0.14543"
             x="90.213631"
             y="235.72771">esp</tspan></text>
      </g>
      <g
         id="g274">
        <g
           id="g264">
          <text
             xml:space="preserve"
             style="font-style:italic;font-size:4.70648px;line-height:1.25;font-family:DINCondensed;-inkscape-font-specification:'DINCondensed Italic';stroke-width:0.117662"
             x="59.001831"
             y="221.58206"
             id="text1680-5-9-2"><tspan
               sodipodi:role="line"
               id="tspan1678-6-1-7"
               style="font-style:italic;font-variant:normal;font-weight:normal;font-stretch:normal;font-family:OCRABold;-inkscape-font-specification:'OCRABold Italic';stroke-width:0.117662"
               x="59.001831"
               y="221.58206">relay2</tspan></text>
          <rect
             style="opacity:0.51042;fill:#0000ff;stroke-width:0.262149"
             id="rect1825"
             width="17.5"
             height="16.5"
             x="-246.22926"
             y="61.106327"
             transform="rotate(-90)" />
        </g>
        <g
           id="g259">
          <text
             xml:space="preserve"
             style="font-style:italic;font-size:4.70648px;line-height:1.25;font-family:DINCondensed;-inkscape-font-specification:'DINCondensed Italic';stroke-width:0.117662"
             x="33.160419"
             y="221.58206"
             id="text1680-5-9"><tspan
               sodipodi:role="line"
               id="tspan1678-6-1"
               style="font-style:italic;font-variant:normal;font-weight:normal;font-stretch:normal;font-family:OCRABold;-inkscape-font-specification:'OCRABold Italic';stroke-width:0.117662"
               x="33.160419"
               y="221.58206">relay1</tspan></text>
          <rect
             style="opacity:0.51042;fill:#0000ff;stroke-width:0.262149"
             id="rect1825-2"
             width="17.5"
             height="16.5"
             x="-246.22926"
             y="35.095615"
             transform="rotate(-90)" />
        </g>
      </g>
    </g>
  </g>
</svg>
