<?xml version="1.0" encoding="UTF-8" standalone="no"?>
<svg
   width="385.92545mm"
   height="342.78671mm"
   viewBox="0 0 385.92545 342.78671"
   version="1.1"
   id="svg8"
   inkscape:version="1.1.2 (0a00cf5339, 2022-02-04)"
   sodipodi:docname="rad_halter_.svg"
   xmlns:inkscape="http://www.inkscape.org/namespaces/inkscape"
   xmlns:sodipodi="http://sodipodi.sourceforge.net/DTD/sodipodi-0.dtd"
   xmlns="http://www.w3.org/2000/svg"
   xmlns:svg="http://www.w3.org/2000/svg"
   xmlns:rdf="http://www.w3.org/1999/02/22-rdf-syntax-ns#"
   xmlns:cc="http://creativecommons.org/ns#"
   xmlns:dc="http://purl.org/dc/elements/1.1/">
  <defs
     id="defs2">
    <inkscape:path-effect
       effect="bend_path"
       id="path-effect3557"
       is_visible="true"
       lpeversion="1"
       bendpath="m 1134.6348,1084.2686 c 91.3852,-27.534 160.2082,-15.9772 226.7734,0"
       prop_scale="1"
       scale_y_rel="false"
       vertical="false"
       hide_knot="false"
       bendpath-nodetypes="cc" />
    <inkscape:path-effect
       effect="bend_path"
       id="path-effect2735"
       is_visible="true"
       lpeversion="1"
       bendpath="m 280.2757,192.47929 h 60"
       prop_scale="1"
       scale_y_rel="false"
       vertical="false"
       hide_knot="false" />
    <inkscape:path-effect
       effect="bend_path"
       id="path-effect2256"
       is_visible="true"
       lpeversion="1"
       bendpath="m -198.83031,308.29214 c 8.69627,0.8921 43.75177,19.03759 22,0"
       prop_scale="1.1609071"
       scale_y_rel="false"
       vertical="false"
       hide_knot="false"
       bendpath-nodetypes="cc" />
    <inkscape:path-effect
       effect="bend_path"
       id="path-effect2735-2"
       is_visible="true"
       lpeversion="1"
       bendpath="m 300.19223,254.29852 h 60"
       prop_scale="1"
       scale_y_rel="false"
       vertical="false"
       hide_knot="false" />
    <inkscape:path-effect
       effect="bend_path"
       id="path-effect2735-2-8"
       is_visible="true"
       lpeversion="1"
       bendpath="m 300.30567,286.87948 h 60"
       prop_scale="1"
       scale_y_rel="false"
       vertical="false"
       hide_knot="false" />
    <inkscape:path-effect
       effect="bend_path"
       id="path-effect2735-2-3"
       is_visible="true"
       lpeversion="1"
       bendpath="m 404.30662,269.97475 h 25.7792"
       prop_scale="1"
       scale_y_rel="false"
       vertical="false"
       hide_knot="false" />
    <inkscape:path-effect
       effect="bend_path"
       id="path-effect2735-2-3-5"
       is_visible="true"
       lpeversion="1"
       bendpath="m 421.11247,270.16596 h 25.7792"
       prop_scale="1"
       scale_y_rel="false"
       vertical="false"
       hide_knot="false" />
  </defs>
  <sodipodi:namedview
     id="base"
     pagecolor="#ffffff"
     bordercolor="#666666"
     borderopacity="1.0"
     inkscape:pageopacity="0.0"
     inkscape:pageshadow="2"
     inkscape:zoom="0.27873578"
     inkscape:cx="356.96888"
     inkscape:cy="735.46352"
     inkscape:document-units="mm"
     inkscape:current-layer="layer1"
     inkscape:document-rotation="0"
     showgrid="false"
     inkscape:window-width="1920"
     inkscape:window-height="1121"
     inkscape:window-x="1920"
     inkscape:window-y="0"
     inkscape:window-maximized="1"
     inkscape:snap-global="true"
     inkscape:snap-object-midpoints="true"
     inkscape:pagecheckerboard="0"
     fit-margin-top="0"
     fit-margin-left="0"
     fit-margin-right="0"
     fit-margin-bottom="0" />
  <metadata
     id="metadata5">
    <rdf:RDF>
      <cc:Work
         rdf:about="">
        <dc:format>image/svg+xml</dc:format>
        <dc:type
           rdf:resource="http://purl.org/dc/dcmitype/StillImage" />
      </cc:Work>
    </rdf:RDF>
  </metadata>
  <g
     inkscape:label="Layer 1"
     inkscape:groupmode="layer"
     id="layer1"
     transform="translate(-44.060198,46.17864)">
    <rect
       style="opacity:0.483699;fill:#ffff00;stroke-width:0.139583"
       id="rect1591"
       width="22"
       height="60"
       x="86.570999"
       y="133.76634" />
    <path
       id="path900-5-9-3"
       style="opacity:0.483699;fill:#0000ff;stroke-width:0.472236"
       d="m 106.5603,-46.17864 a 62.499999,62.499999 0 0 0 -62.500102,62.49953 62.499999,62.499999 0 0 0 62.500102,62.50006 62.499999,62.499999 0 0 0 62.5,-62.50006 62.499999,62.499999 0 0 0 -62.5,-62.49953 z m 0,29.9997 A 32.500001,32.500001 0 0 1 139.0606,16.32089 32.500001,32.500001 0 0 1 106.5603,48.82125 32.500001,32.500001 0 0 1 74.060498,16.32089 32.500001,32.500001 0 0 1 106.5603,-16.17894 Z" />
    <g
       id="g1722-3-6"
       transform="matrix(0.79569684,0.21320633,-0.21320633,0.79569684,-598.69805,-753.1539)">
      <path
         sodipodi:type="star"
         style="opacity:0.483699;fill:#ffff00"
         id="path1589-8-1-7"
         inkscape:flatsided="false"
         sodipodi:sides="4"
         sodipodi:cx="2389.7417"
         sodipodi:cy="1865.6477"
         sodipodi:r1="248.22359"
         sodipodi:r2="124.11179"
         sodipodi:arg1="0.78539816"
         sodipodi:arg2="1.5707963"
         inkscape:rounded="0"
         inkscape:randomized="0"
         transform="matrix(0.15914746,-0.15416651,0.15416651,0.15914746,400.78657,752.18567)"
         inkscape:transform-center-y="1.2373782e-05"
         inkscape:transform-center-x="9.9937086e-06"
         d="m 2565.2623,2041.1683 -175.5206,-51.4088 -175.5206,51.4088 51.4088,-175.5206 -51.4088,-175.5206 175.5206,51.4088 175.5206,-51.4088 -51.4088,175.5206 z" />
      <circle
         style="opacity:0.483699;fill:#ffff00;stroke-width:0.0983408"
         id="path1739-79-9-5"
         cx="841.0614"
         cy="986.98718"
         r="1.75"
         transform="rotate(-15)" />
      <circle
         style="opacity:0.483699;fill:#ffff00;stroke-width:0.0983408"
         id="path1739-7-2-4-3"
         cx="909.0321"
         cy="949.17194"
         r="1.75"
         transform="rotate(-15)" />
      <circle
         style="opacity:0.483699;fill:#ffff00;stroke-width:0.0983408"
         id="path1739-9-0-7-5"
         cx="803.24622"
         cy="919.01654"
         r="1.75"
         transform="rotate(-15)" />
      <circle
         style="opacity:0.483699;fill:#ffff00;stroke-width:0.0983408"
         id="path1739-2-23-8-6"
         cx="871.21686"
         cy="881.20129"
         r="1.75"
         transform="rotate(-15)" />
    </g>
    <circle
       style="opacity:0.484735;fill:#ffff00;stroke-width:0.221377"
       id="path873-5-3-3-6-7-5-9-7-2-4-2"
       cx="58.838951"
       cy="-11.023215"
       r="3.8499999" />
    <circle
       style="opacity:0.484735;fill:#ffff00;stroke-width:0.221377"
       id="path873-5-3-3-6-7-2-6-6-7-0-9"
       cx="154.10178"
       cy="-11.334556"
       r="3.8499999" />
    <circle
       style="opacity:0.484735;fill:#ffff00;stroke-width:0.221377"
       id="path873-5-3-3-6-7-9-2-0-3-3-1"
       cx="106.38058"
       cy="-38.678856"
       r="3.8499999" />
    <circle
       style="opacity:0.484735;fill:#ffff00;stroke-width:0.221377"
       id="path873-5-3-3-6-7-1-6-6-6-6-2"
       cx="59.018761"
       cy="43.976776"
       r="3.8499999" />
    <circle
       style="opacity:0.484735;fill:#ffff00;stroke-width:0.221377"
       id="path873-5-3-3-6-7-27-1-26-1-1-7"
       cx="106.74007"
       cy="71.321075"
       r="3.8499999" />
    <circle
       style="opacity:0.484735;fill:#ffff00;stroke-width:0.221377"
       id="path873-5-3-3-6-7-0-8-1-2-0-0"
       cx="154.28159"
       cy="43.665436"
       r="3.8499999" />
    <rect
       style="opacity:0.483699;fill:#0000ff;stroke-width:0.136233"
       id="rect1487"
       width="15.5"
       height="24"
       x="89.820999"
       y="151.76634" />
    <rect
       style="opacity:0.483699;fill:#ffff00;stroke-width:0.139583"
       id="rect1591-9"
       width="22"
       height="60"
       x="167.56401"
       y="145.30829" />
    <rect
       style="opacity:0.483699;fill:#0000ff;stroke-width:0.124363"
       id="rect1487-3"
       width="15.5"
       height="20"
       x="170.81401"
       y="165.30829" />
    <rect
       style="opacity:0.483699;fill:#ffff00;stroke-width:0.139583"
       id="rect1591-9-6"
       width="22"
       height="60"
       x="237.18645"
       y="148.81445" />
    <rect
       style="opacity:0.483699;fill:#0000ff;stroke-width:0.124363"
       id="rect1487-3-0"
       width="15.5"
       height="20"
       x="240.43645"
       y="168.81445" />
    <path
       style="opacity:0.483699;fill:#ffff00;stroke-width:0.225275"
       id="rect2653"
       width="60"
       height="22"
       x="280.2757"
       y="181.47929"
       inkscape:path-effect="#path-effect2735"
       d="m 280.1757,181.47929 h 60 v 22 h -60 z"
       sodipodi:type="rect" />
    <rect
       style="opacity:0.483699;fill:#00ffff;stroke-width:0.18695"
       id="rect2816"
       width="50"
       height="3.2"
       x="285.2757"
       y="190.8793"
       ry="1.6" />
    <path
       style="opacity:0.483699;fill:#ffff00;stroke-width:0.225275"
       id="rect2653-6"
       width="60"
       height="22"
       x="300.19223"
       y="243.29852"
       sodipodi:type="rect"
       d="m 305.06029,243.29852 h 50.06388 c 2.7523,0 4.96806,2.21576 4.96806,4.96806 v 12.06388 c 0,2.7523 -2.21576,4.96806 -4.96806,4.96806 h -50.06388 c -2.7523,0 -4.96806,-2.21576 -4.96806,-4.96806 v -12.06388 c 0,-2.7523 2.21576,-4.96806 4.96806,-4.96806 z"
       inkscape:path-effect="#path-effect2735-2"
       ry="4.9680643" />
    <rect
       style="opacity:0.483699;fill:#00ffff;stroke-width:0.18695"
       id="rect2816-1"
       width="50"
       height="3.2"
       x="305.19223"
       y="252.69853"
       ry="1.6" />
    <path
       id="rect2653-6-7"
       style="opacity:0.483699;fill:#ffff00;stroke-width:0.851433"
       d="m 1142.7584,1038.8907 c -11.2906,2.8378 -17.8063,13.6209 -14.8029,23.5802 l 13.1645,43.6538 c 3.0033,9.9593 12.7255,15.7416 21.8977,13.4407 30.5659,-7.6674 61.8781,-11.3522 92.6871,-10.07 25.3194,0.8506 51.3783,5.2676 78.1253,11.1216 9.7944,2.1436 19.7335,-4.0878 22.1605,-14.2032 l 10.6381,-44.3378 c 2.4232,-10.0994 -4.0622,-20.3538 -14.9601,-22.7508 -29.5611,-6.502 -60.4834,-11.5174 -92.7154,-12.9168 -39.4213,-1.4635 -78.5694,3.0253 -116.1948,12.4823 z m 15.2062,32.8822 c 32.5662,-7.605 66.1091,-11.1631 99.6007,-9.8643 27.2889,1.0858 54.2007,5.2943 80.6936,10.9017 3.3522,0.7095 5.4635,3.9424 4.7438,7.2174 -0.7198,3.275 -3.952,5.3256 -7.2511,4.6271 -26.0737,-5.5205 -52.3072,-9.6483 -78.6589,-10.6597 -32.3176,-1.2741 -64.7857,2.1828 -96.3764,9.5608 -3.2581,0.761 -6.524,-1.1987 -7.3362,-4.4502 -0.8121,-3.2513 1.2257,-6.5484 4.5845,-7.3328 z"
       transform="scale(0.26458333)"
       inkscape:path-effect="#path-effect3557"
       inkscape:original-d="m 1153.4121,1042.6934 c -10.4024,0 -18.7773,8.3749 -18.7773,18.7773 v 45.5957 c 0,10.4024 8.3749,18.7774 18.7773,18.7774 h 189.2188 c 10.4024,-1e-4 18.7773,-8.375 18.7773,-18.7774 v -45.5957 c 0,-10.4024 -8.3749,-18.7773 -18.7773,-18.7773 z m 6.5469,35.5273 h 176.8808 c 3.3502,0 6.0469,2.6987 6.0469,6.0488 0,3.3502 -2.6967,6.0469 -6.0469,6.0469 H 1159.959 c -3.3502,0 -6.0469,-2.6967 -6.0469,-6.0469 0,-3.3501 2.6967,-6.0488 6.0469,-6.0488 z" />
    <path
       id="rect2653-6-6"
       style="opacity:0.483699;fill:#0000ff;stroke-width:0.851433"
       d="m 1546.4863,978.80273 c -10.4024,0 -18.7754,8.37495 -18.7754,18.77735 v 45.59572 c 0,10.4024 8.373,18.7754 18.7754,18.7754 h 59.8809 c 10.4024,0 18.7754,-8.373 18.7754,-18.7754 v -1.2891 h -24.5254 c -5.2012,0 -9.3887,-4.1875 -9.3887,-9.3887 v -22.7968 c 0,-5.2012 4.1875,-9.3887 9.3887,-9.3887 h 24.5254 v -2.73242 c 0,-10.4024 -8.373,-18.77735 -18.7754,-18.77735 z"
       transform="scale(0.26458333)" />
  </g>
</svg>
