<?xml version="1.0" encoding="UTF-8" standalone="no"?>
<svg
   width="119.99991mm"
   height="119.99994mm"
   viewBox="0 0 119.99991 119.99994"
   version="1.1"
   id="svg8"
   inkscape:version="1.1.2 (0a00cf5339, 2022-02-04)"
   sodipodi:docname="rad_magnetring_path_8.svg"
   xmlns:inkscape="http://www.inkscape.org/namespaces/inkscape"
   xmlns:sodipodi="http://sodipodi.sourceforge.net/DTD/sodipodi-0.dtd"
   xmlns="http://www.w3.org/2000/svg"
   xmlns:svg="http://www.w3.org/2000/svg"
   xmlns:rdf="http://www.w3.org/1999/02/22-rdf-syntax-ns#"
   xmlns:cc="http://creativecommons.org/ns#"
   xmlns:dc="http://purl.org/dc/elements/1.1/">
  <defs
     id="defs2" />
  <sodipodi:namedview
     id="base"
     pagecolor="#ffffff"
     bordercolor="#666666"
     borderopacity="1.0"
     inkscape:pageopacity="0.0"
     inkscape:pageshadow="2"
     inkscape:zoom="0.175"
     inkscape:cx="-134.28571"
     inkscape:cy="2022.8571"
     inkscape:document-units="mm"
     inkscape:current-layer="layer1"
     inkscape:document-rotation="0"
     showgrid="false"
     inkscape:window-width="1920"
     inkscape:window-height="1121"
     inkscape:window-x="1920"
     inkscape:window-y="0"
     inkscape:window-maximized="1"
     inkscape:snap-global="true"
     inkscape:snap-object-midpoints="true"
     inkscape:pagecheckerboard="0"
     fit-margin-top="0"
     fit-margin-left="0"
     fit-margin-right="0"
     fit-margin-bottom="0" />
  <metadata
     id="metadata5">
    <rdf:RDF>
      <cc:Work
         rdf:about="">
        <dc:format>image/svg+xml</dc:format>
        <dc:type
           rdf:resource="http://purl.org/dc/dcmitype/StillImage" />
      </cc:Work>
    </rdf:RDF>
  </metadata>
  <g
     inkscape:label="Layer 1"
     inkscape:groupmode="layer"
     id="layer1"
     transform="translate(-44.195382,-17.038184)">
    <path
       id="path851-7-9-6"
       style="opacity:0.484735;fill:#0000ff;stroke-width:0.298437"
       d="m 104.09405,17.038205 a 59.999998,59.999998 0 0 0 -59.898668,59.999959 59.999998,59.999998 0 0 0 59.999958,59.999956 59.999998,59.999998 0 0 0 59.99995,-59.999956 59.999998,59.999998 0 0 0 -59.99995,-59.999959 59.999998,59.999998 0 0 0 -0.10129,0 z m -0.0785,0.99994 a 3.9999999,3.9999999 0 0 1 3.99976,4.000288 3.9999999,3.9999999 0 0 1 -3.99976,3.999759 3.9999999,3.9999999 0 0 1 -4.00027,-3.999759 3.9999999,3.9999999 0 0 1 4.00027,-4.000288 z m 0.17984,8.999987 a 50,50 0 0 1 50,50.000032 50,50 0 0 1 -50.00005,50.000056 50,50 0 0 1 -50.00005,-50.000056 50,50 0 0 1 50.00005,-50.000032 z m 47.54128,18.344594 a 3.9999999,3.9999999 0 0 1 4.00027,3.999759 3.9999999,3.9999999 0 0 1 -4.00027,4.000289 3.9999999,3.9999999 0 0 1 -3.99976,-4.000289 3.9999999,3.9999999 0 0 1 3.99976,-3.999759 z m -95.262918,0.311097 a 3.9999999,3.9999999 0 0 1 4.000272,4.000289 3.9999999,3.9999999 0 0 1 -4.000272,3.999732 3.9999999,3.9999999 0 0 1 -3.999754,-3.999732 3.9999999,3.9999999 0 0 1 3.999754,-4.000289 z M 151.9165,100.38248 a 3.9999999,3.9999999 0 0 1 3.99976,4.00027 3.9999999,3.9999999 0 0 1 -3.99976,3.99975 3.9999999,3.9999999 0 0 1 -4.00027,-3.99975 3.9999999,3.9999999 0 0 1 4.00027,-4.00027 z m -95.262914,0.3116 a 3.9999999,3.9999999 0 0 1 4.000273,3.99976 3.9999999,3.9999999 0 0 1 -4.000273,4.00026 3.9999999,3.9999999 0 0 1 -3.999756,-4.00026 3.9999999,3.9999999 0 0 1 3.999756,-3.99976 z m 47.721114,27.34408 a 3.9999999,3.9999999 0 0 1 4.00028,4.00026 3.9999999,3.9999999 0 0 1 -4.00028,3.99976 3.9999999,3.9999999 0 0 1 -3.99975,-3.99976 3.9999999,3.9999999 0 0 1 3.99975,-4.00026 z" />
  </g>
</svg>
